<svg width="367" height="276" viewBox="0 0 367 276" fill="none" xmlns="http://www.w3.org/2000/svg">
<path d="M294.037 38.4987H73.8663C69.245 38.4987 65.4987 42.2449 65.4987 46.8662V197.936C65.4987 202.557 69.245 206.303 73.8663 206.303H294.037C298.658 206.303 302.404 202.557 302.404 197.936V46.8662C302.404 42.2449 298.658 38.4987 294.037 38.4987Z" fill="white"/>
<path d="M294.037 206.846H73.8662C71.5192 206.832 69.2725 205.893 67.6129 204.233C65.9533 202.574 65.0145 200.327 65 197.98V46.8662C65 44.5148 65.9341 42.2596 67.5969 40.5969C69.2596 38.9341 71.5148 38 73.8662 38H294.037C296.388 38 298.644 38.9341 300.306 40.5969C301.969 42.2596 302.903 44.5148 302.903 46.8662V197.947C302.908 199.114 302.681 200.27 302.238 201.35C301.794 202.43 301.142 203.411 300.318 204.238C299.494 205.065 298.516 205.721 297.438 206.168C296.36 206.616 295.204 206.846 294.037 206.846ZM73.8662 39.0418C71.79 39.0418 69.7987 39.8658 68.3296 41.3328C66.8605 42.7999 66.0336 44.79 66.0307 46.8662V197.947C66.0336 200.023 66.8605 202.013 68.3296 203.48C69.7987 204.947 71.79 205.771 73.8662 205.771H294.037C296.111 205.768 298.1 204.943 299.566 203.476C301.033 202.01 301.858 200.021 301.861 197.947V46.8662C301.858 44.792 301.033 42.8035 299.566 41.3368C298.1 39.87 296.111 39.0447 294.037 39.0418H73.8662Z" fill="#231F20"/>
<path d="M293.638 60.1989H74.2542V197.481H293.638V60.1989Z" fill="#231F20"/>
<path d="M293.638 198.035H74.2541C74.1071 198.035 73.9661 197.977 73.8622 197.873C73.7583 197.769 73.6999 197.628 73.6999 197.481V60.1988C73.6999 60.0518 73.7583 59.9109 73.8622 59.807C73.9661 59.703 74.1071 59.6447 74.2541 59.6447H293.693C293.84 59.6447 293.981 59.703 294.085 59.807C294.189 59.9109 294.247 60.0518 294.247 60.1988V197.481C294.248 197.559 294.232 197.636 294.201 197.707C294.169 197.778 294.124 197.842 294.066 197.894C294.009 197.946 293.941 197.986 293.867 198.01C293.793 198.035 293.715 198.043 293.638 198.035ZM74.8414 196.927H293.172V60.7529H74.8414V196.927Z" fill="#231F20"/>
<path d="M293.638 47.3206H74.2542V60.1988H293.638V47.3206Z" fill="#E54B4B"/>
<path d="M293.638 60.753H74.2541C74.1071 60.753 73.9661 60.6946 73.8622 60.5907C73.7583 60.4867 73.6999 60.3458 73.6999 60.1988V47.3206C73.6999 47.1737 73.7583 47.0327 73.8622 46.9288C73.9661 46.8249 74.1071 46.7665 74.2541 46.7665H293.693C293.84 46.7665 293.981 46.8249 294.085 46.9288C294.189 47.0327 294.247 47.1737 294.247 47.3206V60.1988C294.248 60.2765 294.232 60.3534 294.201 60.4245C294.169 60.4956 294.124 60.5594 294.066 60.6116C294.009 60.6639 293.941 60.7035 293.867 60.7278C293.793 60.7522 293.715 60.7607 293.638 60.753ZM74.8414 59.6447H293.172V47.8748H74.8414V59.6447Z" fill="#E54B4B"/>
<path d="M118.242 73.864H99.4009C99.3301 73.8654 99.2597 73.8528 99.1939 73.8267C99.1281 73.8006 99.0681 73.7617 99.0176 73.7121C98.967 73.6626 98.9268 73.6034 98.8994 73.5382C98.872 73.4729 98.8578 73.4028 98.8578 73.332C98.8578 73.188 98.9151 73.0498 99.0169 72.948C99.1187 72.8462 99.2569 72.7889 99.4009 72.7889H118.242C118.312 72.7889 118.383 72.803 118.448 72.8305C118.513 72.8579 118.572 72.8981 118.622 72.9486C118.671 72.9992 118.71 73.0592 118.736 73.125C118.762 73.1908 118.775 73.2612 118.774 73.332C118.775 73.4023 118.762 73.4721 118.736 73.5374C118.71 73.6026 118.671 73.6618 118.621 73.7115C118.571 73.7612 118.512 73.8004 118.447 73.8266C118.382 73.8528 118.312 73.8655 118.242 73.864Z" fill="white"/>
<path d="M160.744 73.864H123.063C122.992 73.8655 122.923 73.8528 122.857 73.8266C122.792 73.8004 122.733 73.7612 122.683 73.7115C122.633 73.6618 122.594 73.6026 122.568 73.5374C122.542 73.4721 122.529 73.4023 122.531 73.332C122.529 73.2612 122.542 73.1908 122.568 73.125C122.594 73.0592 122.633 72.9992 122.683 72.9486C122.732 72.8981 122.791 72.8579 122.856 72.8305C122.922 72.803 122.992 72.7889 123.063 72.7889H160.744C160.888 72.7889 161.026 72.8462 161.128 72.948C161.23 73.0498 161.287 73.188 161.287 73.332C161.287 73.4028 161.273 73.4729 161.246 73.5382C161.218 73.6034 161.178 73.6626 161.127 73.7121C161.077 73.7617 161.017 73.8006 160.951 73.8267C160.885 73.8528 160.815 73.8654 160.744 73.864Z" fill="#E54B4B"/>
<path d="M173.766 81.7548H136.085C135.938 81.7548 135.797 81.6964 135.693 81.5925C135.589 81.4885 135.531 81.3476 135.531 81.2006C135.531 81.0537 135.589 80.9127 135.693 80.8088C135.797 80.7049 135.938 80.6465 136.085 80.6465H173.766C173.913 80.6465 174.054 80.7049 174.158 80.8088C174.262 80.9127 174.32 81.0537 174.32 81.2006C174.32 81.3476 174.262 81.4885 174.158 81.5925C174.054 81.6964 173.913 81.7548 173.766 81.7548Z" fill="#E54B4B"/>
<path d="M122.664 81.7548H103.823C103.676 81.7548 103.535 81.6964 103.431 81.5925C103.327 81.4885 103.269 81.3476 103.269 81.2006C103.269 81.0537 103.327 80.9127 103.431 80.8088C103.535 80.7049 103.676 80.6465 103.823 80.6465H122.664C122.811 80.6465 122.952 80.7049 123.056 80.8088C123.159 80.9127 123.218 81.0537 123.218 81.2006C123.218 81.3476 123.159 81.4885 123.056 81.5925C122.952 81.6964 122.811 81.7548 122.664 81.7548Z" fill="white"/>
<path d="M127.097 89.6347H108.256C108.112 89.6347 107.974 89.5775 107.872 89.4757C107.77 89.3738 107.713 89.2357 107.713 89.0917C107.713 89.0209 107.727 88.9508 107.755 88.8855C107.782 88.8202 107.822 88.7611 107.873 88.7115C107.923 88.662 107.983 88.623 108.049 88.597C108.115 88.5709 108.185 88.5582 108.256 88.5597H127.097C127.167 88.5582 127.237 88.5709 127.302 88.5971C127.367 88.6233 127.427 88.6624 127.476 88.7121C127.526 88.7618 127.565 88.8211 127.591 88.8863C127.618 88.9515 127.63 89.0214 127.629 89.0917C127.63 89.1624 127.618 89.2328 127.592 89.2986C127.565 89.3645 127.527 89.4244 127.477 89.475C127.427 89.5256 127.368 89.5658 127.303 89.5932C127.238 89.6206 127.168 89.6347 127.097 89.6347Z" fill="white"/>
<path d="M180.494 89.6347H133.381C133.31 89.6347 133.24 89.6206 133.175 89.5932C133.11 89.5658 133.05 89.5256 133.001 89.475C132.951 89.4244 132.912 89.3645 132.886 89.2986C132.86 89.2328 132.848 89.1624 132.849 89.0917C132.848 89.0214 132.86 88.9515 132.886 88.8863C132.913 88.8211 132.952 88.7618 133.001 88.7121C133.051 88.6624 133.11 88.6233 133.176 88.5971C133.241 88.5709 133.311 88.5582 133.381 88.5597H180.494C180.565 88.5582 180.635 88.5709 180.701 88.597C180.767 88.623 180.827 88.662 180.877 88.7115C180.928 88.7611 180.968 88.8202 180.995 88.8855C181.023 88.9508 181.037 89.0209 181.037 89.0917C181.037 89.2357 180.98 89.3738 180.878 89.4757C180.776 89.5775 180.638 89.6347 180.494 89.6347Z" fill="#E54B4B"/>
<path d="M131.519 97.5146H112.678C112.536 97.5117 112.401 97.4532 112.301 97.3517C112.202 97.2502 112.146 97.1137 112.146 96.9716C112.146 96.8305 112.202 96.6952 112.302 96.5954C112.402 96.4956 112.537 96.4396 112.678 96.4396H131.519C131.59 96.4381 131.66 96.4508 131.726 96.4768C131.792 96.5029 131.852 96.5419 131.902 96.5914C131.953 96.641 131.993 96.7001 132.02 96.7654C132.048 96.8307 132.062 96.9007 132.062 96.9716C132.062 97.1156 132.005 97.2537 131.903 97.3556C131.801 97.4574 131.663 97.5146 131.519 97.5146Z" fill="white"/>
<path d="M190.235 97.5146H134.223C134.079 97.5146 133.941 97.4574 133.839 97.3556C133.737 97.2537 133.68 97.1156 133.68 96.9716C133.68 96.9007 133.694 96.8307 133.721 96.7654C133.749 96.7001 133.789 96.641 133.84 96.5914C133.89 96.5419 133.95 96.5029 134.016 96.4768C134.082 96.4508 134.152 96.4381 134.223 96.4396H190.235C190.306 96.4381 190.376 96.4508 190.442 96.4768C190.508 96.5029 190.568 96.5419 190.619 96.5914C190.669 96.641 190.709 96.7001 190.737 96.7654C190.764 96.8307 190.778 96.9007 190.778 96.9716C190.778 97.1156 190.721 97.2537 190.619 97.3556C190.517 97.4574 190.379 97.5146 190.235 97.5146Z" fill="#E54B4B"/>
<path d="M126.521 105.394H107.68C107.533 105.394 107.392 105.336 107.288 105.232C107.184 105.128 107.126 104.987 107.126 104.84C107.126 104.693 107.184 104.552 107.288 104.448C107.392 104.345 107.533 104.286 107.68 104.286H126.521C126.668 104.286 126.809 104.345 126.912 104.448C127.016 104.552 127.075 104.693 127.075 104.84C127.075 104.987 127.016 105.128 126.912 105.232C126.809 105.336 126.668 105.394 126.521 105.394Z" fill="white"/>
<path d="M160.744 105.394H130.366C130.219 105.394 130.078 105.336 129.975 105.232C129.871 105.128 129.812 104.987 129.812 104.84C129.812 104.693 129.871 104.552 129.975 104.448C130.078 104.345 130.219 104.286 130.366 104.286H160.744C160.891 104.286 161.032 104.345 161.136 104.448C161.24 104.552 161.298 104.693 161.298 104.84C161.298 104.987 161.24 105.128 161.136 105.232C161.032 105.336 160.891 105.394 160.744 105.394Z" fill="#E54B4B"/>
<path d="M202.726 105.394H172.37C172.223 105.394 172.082 105.336 171.978 105.232C171.874 105.128 171.816 104.987 171.816 104.84C171.816 104.693 171.874 104.552 171.978 104.448C172.082 104.345 172.223 104.286 172.37 104.286H202.748C202.895 104.286 203.036 104.345 203.14 104.448C203.244 104.552 203.302 104.693 203.302 104.84C203.302 104.987 203.244 105.128 203.14 105.232C203.036 105.336 202.895 105.394 202.748 105.394H202.726Z" fill="#E54B4B"/>
<path d="M126.521 113.274H107.68C107.533 113.274 107.392 113.216 107.288 113.112C107.184 113.008 107.126 112.867 107.126 112.72C107.126 112.573 107.184 112.432 107.288 112.328C107.392 112.224 107.533 112.166 107.68 112.166H126.521C126.668 112.166 126.809 112.224 126.912 112.328C127.016 112.432 127.075 112.573 127.075 112.72C127.075 112.867 127.016 113.008 126.912 113.112C126.809 113.216 126.668 113.274 126.521 113.274Z" fill="white"/>
<path d="M160.744 113.274H134.223C134.076 113.274 133.935 113.216 133.831 113.112C133.727 113.008 133.669 112.867 133.669 112.72C133.669 112.573 133.727 112.432 133.831 112.328C133.935 112.224 134.076 112.166 134.223 112.166H160.744C160.891 112.166 161.032 112.224 161.136 112.328C161.24 112.432 161.298 112.573 161.298 112.72C161.298 112.867 161.24 113.008 161.136 113.112C161.032 113.216 160.891 113.274 160.744 113.274Z" fill="#E54B4B"/>
<path d="M176.061 113.274H165.222C165.075 113.274 164.934 113.216 164.83 113.112C164.726 113.008 164.667 112.867 164.667 112.72C164.667 112.573 164.726 112.432 164.83 112.328C164.934 112.224 165.075 112.166 165.222 112.166H176.061C176.207 112.166 176.348 112.224 176.452 112.328C176.556 112.432 176.615 112.573 176.615 112.72C176.615 112.867 176.556 113.008 176.452 113.112C176.348 113.216 176.207 113.274 176.061 113.274Z" fill="#E54B4B"/>
<path d="M126.521 121.154H107.68C107.609 121.156 107.539 121.143 107.473 121.117C107.407 121.091 107.347 121.052 107.296 121.002C107.246 120.953 107.206 120.894 107.178 120.828C107.151 120.763 107.137 120.693 107.137 120.622C107.137 120.478 107.194 120.34 107.296 120.238C107.398 120.136 107.536 120.079 107.68 120.079H126.521C126.591 120.079 126.661 120.093 126.727 120.121C126.792 120.148 126.851 120.188 126.901 120.239C126.95 120.289 126.989 120.349 127.015 120.415C127.041 120.481 127.054 120.551 127.052 120.622C127.054 120.692 127.041 120.762 127.015 120.828C126.989 120.893 126.95 120.952 126.9 121.002C126.85 121.051 126.791 121.091 126.726 121.117C126.661 121.143 126.591 121.156 126.521 121.154Z" fill="white"/>
<path d="M170.265 121.154H131.475C131.334 121.154 131.198 121.098 131.099 120.998C130.999 120.899 130.943 120.763 130.943 120.622C130.943 120.48 130.998 120.344 131.098 120.242C131.197 120.14 131.333 120.082 131.475 120.079H170.265C170.409 120.079 170.547 120.136 170.649 120.238C170.75 120.34 170.808 120.478 170.808 120.622C170.808 120.693 170.794 120.763 170.766 120.828C170.739 120.894 170.698 120.953 170.648 121.002C170.597 121.052 170.537 121.091 170.472 121.117C170.406 121.143 170.335 121.156 170.265 121.154Z" fill="#E54B4B"/>
<path d="M193.693 121.154H174.853C174.782 121.156 174.711 121.143 174.646 121.117C174.58 121.091 174.52 121.052 174.469 121.002C174.419 120.953 174.378 120.894 174.351 120.828C174.324 120.763 174.309 120.693 174.309 120.622C174.309 120.478 174.367 120.34 174.469 120.238C174.57 120.136 174.708 120.079 174.853 120.079H193.693C193.835 120.082 193.971 120.14 194.07 120.242C194.17 120.344 194.225 120.48 194.225 120.622C194.225 120.763 194.169 120.899 194.069 120.998C193.97 121.098 193.834 121.154 193.693 121.154Z" fill="#E54B4B"/>
<path d="M113.232 129.034H103.258C103.111 129.034 102.97 128.976 102.866 128.872C102.762 128.768 102.704 128.627 102.704 128.48C102.704 128.333 102.762 128.192 102.866 128.088C102.97 127.984 103.111 127.926 103.258 127.926H113.232C113.379 127.926 113.52 127.984 113.624 128.088C113.728 128.192 113.786 128.333 113.786 128.48C113.786 128.627 113.728 128.768 113.624 128.872C113.52 128.976 113.379 129.034 113.232 129.034Z" fill="white"/>
<path d="M165.222 129.034H121.511C121.364 129.034 121.223 128.976 121.119 128.872C121.015 128.768 120.957 128.627 120.957 128.48C120.957 128.333 121.015 128.192 121.119 128.088C121.223 127.984 121.364 127.926 121.511 127.926H165.222C165.369 127.926 165.509 127.984 165.613 128.088C165.717 128.192 165.776 128.333 165.776 128.48C165.776 128.627 165.717 128.768 165.613 128.872C165.509 128.976 165.369 129.034 165.222 129.034Z" fill="#E54B4B"/>
<path d="M122.087 136.925H103.247C103.1 136.925 102.959 136.867 102.855 136.763C102.751 136.659 102.692 136.518 102.692 136.371C102.692 136.224 102.751 136.083 102.855 135.979C102.959 135.875 103.1 135.817 103.247 135.817H122.087C122.234 135.817 122.375 135.875 122.479 135.979C122.583 136.083 122.641 136.224 122.641 136.371C122.641 136.518 122.583 136.659 122.479 136.763C122.375 136.867 122.234 136.925 122.087 136.925Z" fill="white"/>
<path d="M143.654 144.805H105.973C105.902 144.805 105.832 144.791 105.767 144.763C105.702 144.736 105.642 144.696 105.593 144.645C105.543 144.594 105.504 144.535 105.478 144.469C105.452 144.403 105.44 144.333 105.441 144.262C105.439 144.191 105.452 144.122 105.478 144.056C105.505 143.991 105.544 143.932 105.593 143.882C105.643 143.832 105.702 143.793 105.768 143.767C105.833 143.741 105.903 143.728 105.973 143.73H143.654C143.725 143.728 143.796 143.741 143.861 143.767C143.927 143.793 143.987 143.832 144.038 143.882C144.088 143.931 144.129 143.99 144.156 144.056C144.183 144.121 144.198 144.191 144.197 144.262C144.197 144.406 144.14 144.544 144.038 144.646C143.937 144.748 143.798 144.805 143.654 144.805Z" fill="white"/>
<path d="M176.061 144.805H149.894C149.823 144.805 149.753 144.791 149.688 144.763C149.623 144.736 149.564 144.696 149.514 144.645C149.465 144.594 149.426 144.535 149.4 144.469C149.374 144.403 149.361 144.333 149.362 144.262C149.361 144.191 149.374 144.122 149.4 144.056C149.426 143.991 149.465 143.932 149.515 143.882C149.564 143.832 149.624 143.793 149.689 143.767C149.754 143.741 149.824 143.728 149.894 143.73H176.061C176.132 143.728 176.202 143.741 176.268 143.767C176.334 143.793 176.394 143.832 176.444 143.882C176.495 143.931 176.535 143.99 176.562 144.056C176.59 144.121 176.604 144.191 176.604 144.262C176.604 144.406 176.547 144.544 176.445 144.646C176.343 144.748 176.205 144.805 176.061 144.805Z" fill="#E54B4B"/>
<path d="M212.202 144.805H179.807C179.736 144.805 179.666 144.791 179.6 144.763C179.535 144.736 179.476 144.696 179.427 144.645C179.377 144.594 179.338 144.535 179.312 144.469C179.286 144.403 179.273 144.333 179.275 144.262C179.273 144.191 179.286 144.122 179.312 144.056C179.338 143.991 179.377 143.932 179.427 143.882C179.477 143.832 179.536 143.793 179.601 143.767C179.667 143.741 179.736 143.728 179.807 143.73H212.202C212.343 143.73 212.478 143.786 212.578 143.886C212.678 143.985 212.734 144.121 212.734 144.262C212.734 144.404 212.678 144.54 212.578 144.642C212.479 144.743 212.344 144.802 212.202 144.805Z" fill="#E54B4B"/>
<path d="M162.518 152.685H107.658C107.514 152.685 107.376 152.627 107.274 152.526C107.172 152.424 107.115 152.286 107.115 152.142C107.115 152.071 107.129 152.001 107.156 151.935C107.184 151.87 107.224 151.811 107.275 151.761C107.325 151.712 107.385 151.673 107.451 151.647C107.517 151.621 107.587 151.608 107.658 151.61H162.518C162.588 151.608 162.659 151.621 162.725 151.647C162.79 151.673 162.85 151.712 162.901 151.761C162.952 151.811 162.992 151.87 163.019 151.935C163.047 152.001 163.061 152.071 163.061 152.142C163.061 152.286 163.004 152.424 162.902 152.526C162.8 152.627 162.662 152.685 162.518 152.685Z" fill="white"/>
<path d="M190.945 152.685H166.263C166.119 152.685 165.981 152.627 165.879 152.526C165.778 152.424 165.72 152.286 165.72 152.142C165.72 152.071 165.735 152.001 165.762 151.935C165.789 151.87 165.83 151.811 165.88 151.761C165.931 151.712 165.991 151.673 166.057 151.647C166.122 151.621 166.193 151.608 166.263 151.61H190.945C191.015 151.608 191.085 151.621 191.15 151.647C191.215 151.673 191.275 151.712 191.324 151.762C191.374 151.812 191.413 151.871 191.439 151.936C191.466 152.001 191.478 152.071 191.477 152.142C191.478 152.212 191.466 152.283 191.44 152.349C191.413 152.414 191.375 152.474 191.325 152.525C191.275 152.576 191.216 152.616 191.151 152.643C191.086 152.671 191.016 152.685 190.945 152.685Z" fill="#E54B4B"/>
<path d="M268.513 152.685H195.123C194.981 152.682 194.846 152.623 194.746 152.522C194.647 152.42 194.591 152.284 194.591 152.142C194.591 152.001 194.647 151.865 194.747 151.765C194.847 151.666 194.982 151.61 195.123 151.61H268.513C268.584 151.608 268.655 151.621 268.72 151.647C268.786 151.673 268.846 151.712 268.897 151.761C268.947 151.811 268.988 151.87 269.015 151.935C269.042 152.001 269.057 152.071 269.057 152.142C269.057 152.286 268.999 152.424 268.897 152.526C268.796 152.627 268.657 152.685 268.513 152.685Z" fill="#E54B4B"/>
<path d="M133.381 160.565H107.436C107.289 160.565 107.148 160.506 107.044 160.402C106.94 160.298 106.882 160.157 106.882 160.01C106.882 159.863 106.94 159.723 107.044 159.619C107.148 159.515 107.289 159.456 107.436 159.456H133.381C133.528 159.456 133.669 159.515 133.773 159.619C133.877 159.723 133.935 159.863 133.935 160.01C133.935 160.157 133.877 160.298 133.773 160.402C133.669 160.506 133.528 160.565 133.381 160.565Z" fill="white"/>
<path d="M157.652 160.565H138.545C138.398 160.565 138.257 160.506 138.154 160.402C138.05 160.298 137.991 160.157 137.991 160.01C137.991 159.863 138.05 159.723 138.154 159.619C138.257 159.515 138.398 159.456 138.545 159.456H157.652C157.799 159.456 157.94 159.515 158.044 159.619C158.148 159.723 158.206 159.863 158.206 160.01C158.206 160.157 158.148 160.298 158.044 160.402C157.94 160.506 157.799 160.565 157.652 160.565Z" fill="#E54B4B"/>
<path d="M181.901 160.565H162.795C162.648 160.565 162.507 160.506 162.403 160.402C162.299 160.298 162.241 160.157 162.241 160.01C162.241 159.863 162.299 159.723 162.403 159.619C162.507 159.515 162.648 159.456 162.795 159.456H181.901C182.048 159.456 182.189 159.515 182.293 159.619C182.397 159.723 182.456 159.863 182.456 160.01C182.456 160.157 182.397 160.298 182.293 160.402C182.189 160.506 182.048 160.565 181.901 160.565Z" fill="#E54B4B"/>
<path d="M153.308 168.444H107.436C107.365 168.446 107.295 168.433 107.229 168.407C107.163 168.381 107.103 168.342 107.053 168.293C107.002 168.243 106.962 168.184 106.935 168.119C106.907 168.053 106.893 167.983 106.893 167.912C106.893 167.768 106.95 167.63 107.052 167.528C107.154 167.427 107.292 167.369 107.436 167.369H153.308C153.452 167.369 153.59 167.427 153.692 167.528C153.794 167.63 153.851 167.768 153.851 167.912C153.851 167.983 153.837 168.053 153.809 168.119C153.782 168.184 153.742 168.243 153.691 168.293C153.641 168.342 153.581 168.381 153.515 168.407C153.449 168.433 153.379 168.446 153.308 168.444Z" fill="white"/>
<path d="M181.901 168.444H158.96C158.89 168.446 158.82 168.433 158.755 168.407C158.69 168.381 158.63 168.342 158.581 168.292C158.531 168.242 158.492 168.183 158.466 168.118C158.439 168.053 158.427 167.983 158.428 167.912C158.427 167.842 158.439 167.771 158.465 167.705C158.491 167.64 158.53 167.58 158.58 167.529C158.63 167.479 158.689 167.438 158.754 167.411C158.819 167.383 158.889 167.369 158.96 167.369H181.901C181.972 167.369 182.042 167.383 182.108 167.411C182.173 167.438 182.232 167.479 182.282 167.529C182.331 167.58 182.37 167.64 182.396 167.705C182.422 167.771 182.435 167.842 182.433 167.912C182.435 167.983 182.422 168.053 182.396 168.118C182.37 168.183 182.331 168.242 182.281 168.292C182.231 168.342 182.172 168.381 182.107 168.407C182.042 168.433 181.972 168.446 181.901 168.444Z" fill="#E54B4B"/>
<path d="M222.464 168.444H187.531C187.461 168.446 187.391 168.433 187.326 168.407C187.26 168.381 187.201 168.342 187.151 168.292C187.102 168.242 187.063 168.183 187.036 168.118C187.01 168.053 186.998 167.983 186.999 167.912C186.998 167.842 187.01 167.771 187.036 167.705C187.062 167.64 187.101 167.58 187.151 167.529C187.2 167.479 187.26 167.438 187.325 167.411C187.39 167.383 187.46 167.369 187.531 167.369H222.464C222.535 167.369 222.606 167.383 222.672 167.411C222.738 167.438 222.798 167.478 222.848 167.528C222.898 167.579 222.938 167.639 222.966 167.705C222.993 167.771 223.007 167.841 223.007 167.912C223.007 167.983 222.993 168.053 222.965 168.119C222.938 168.184 222.898 168.243 222.847 168.293C222.797 168.342 222.737 168.381 222.671 168.407C222.605 168.433 222.535 168.446 222.464 168.444Z" fill="#E54B4B"/>
<path d="M261.032 168.444H226.144C226.073 168.446 226.003 168.433 225.937 168.407C225.871 168.381 225.811 168.342 225.76 168.293C225.71 168.243 225.67 168.184 225.642 168.119C225.615 168.053 225.601 167.983 225.601 167.912C225.601 167.768 225.658 167.63 225.76 167.528C225.862 167.427 226 167.369 226.144 167.369H261.032C261.176 167.369 261.315 167.427 261.416 167.528C261.518 167.63 261.575 167.768 261.575 167.912C261.575 167.983 261.561 168.053 261.534 168.119C261.507 168.184 261.466 168.243 261.416 168.293C261.365 168.342 261.305 168.381 261.239 168.407C261.174 168.433 261.103 168.446 261.032 168.444Z" fill="#E54B4B"/>
<path d="M146.403 176.324H119.04C118.969 176.326 118.899 176.313 118.833 176.287C118.767 176.261 118.707 176.222 118.656 176.172C118.606 176.123 118.566 176.064 118.538 175.998C118.511 175.933 118.497 175.863 118.497 175.792C118.497 175.721 118.511 175.65 118.538 175.585C118.565 175.519 118.605 175.459 118.656 175.408C118.706 175.358 118.766 175.318 118.832 175.291C118.898 175.263 118.968 175.249 119.04 175.249H146.403C146.474 175.249 146.544 175.263 146.609 175.291C146.675 175.318 146.734 175.358 146.783 175.409C146.833 175.46 146.872 175.52 146.898 175.585C146.924 175.651 146.937 175.722 146.935 175.792C146.937 175.863 146.924 175.932 146.898 175.998C146.871 176.063 146.832 176.122 146.783 176.172C146.733 176.222 146.674 176.261 146.608 176.287C146.543 176.313 146.473 176.326 146.403 176.324Z" fill="white"/>
<path d="M178.898 176.324H151.534C151.464 176.326 151.394 176.313 151.329 176.287C151.264 176.261 151.205 176.222 151.155 176.172C151.105 176.122 151.066 176.063 151.04 175.998C151.014 175.932 151.001 175.863 151.003 175.792C151.001 175.722 151.014 175.651 151.04 175.585C151.066 175.52 151.105 175.46 151.154 175.409C151.204 175.358 151.263 175.318 151.328 175.291C151.394 175.263 151.464 175.249 151.534 175.249H178.898C178.969 175.249 179.04 175.263 179.106 175.291C179.172 175.318 179.231 175.358 179.282 175.408C179.332 175.459 179.372 175.519 179.4 175.585C179.427 175.65 179.441 175.721 179.441 175.792C179.441 175.863 179.427 175.933 179.399 175.998C179.372 176.064 179.332 176.123 179.281 176.172C179.231 176.222 179.171 176.261 179.105 176.287C179.039 176.313 178.969 176.326 178.898 176.324Z" fill="#E54B4B"/>
<path d="M211.625 176.324H184.262C184.191 176.326 184.121 176.313 184.055 176.287C183.989 176.261 183.929 176.222 183.878 176.172C183.828 176.123 183.788 176.064 183.76 175.998C183.733 175.933 183.719 175.863 183.719 175.792C183.719 175.721 183.733 175.65 183.76 175.585C183.787 175.519 183.827 175.459 183.878 175.408C183.928 175.358 183.988 175.318 184.054 175.291C184.12 175.263 184.19 175.249 184.262 175.249H211.625C211.696 175.249 211.766 175.263 211.831 175.291C211.897 175.318 211.956 175.358 212.005 175.409C212.055 175.46 212.094 175.52 212.12 175.585C212.146 175.651 212.159 175.722 212.157 175.792C212.159 175.863 212.146 175.932 212.12 175.998C212.094 176.063 212.054 176.122 212.005 176.172C211.955 176.222 211.896 176.261 211.831 176.287C211.765 176.313 211.695 176.326 211.625 176.324Z" fill="#E54B4B"/>
<path d="M245.516 177.211H218.142C217.995 177.211 217.854 177.153 217.75 177.049C217.646 176.945 217.588 176.804 217.588 176.657C217.588 176.51 217.646 176.369 217.75 176.265C217.854 176.161 217.995 176.103 218.142 176.103H245.516C245.663 176.103 245.804 176.161 245.908 176.265C246.012 176.369 246.07 176.51 246.07 176.657C246.07 176.804 246.012 176.945 245.908 177.049C245.804 177.153 245.663 177.211 245.516 177.211Z" fill="#E54B4B"/>
<path d="M141.97 184.204H123.129C123.059 184.206 122.989 184.193 122.924 184.167C122.859 184.141 122.8 184.101 122.75 184.052C122.7 184.002 122.661 183.943 122.635 183.878C122.609 183.812 122.596 183.742 122.597 183.672C122.596 183.601 122.609 183.531 122.635 183.465C122.661 183.399 122.7 183.339 122.749 183.289C122.799 183.238 122.858 183.198 122.923 183.171C122.988 183.143 123.059 183.129 123.129 183.129H141.97C142.114 183.129 142.252 183.186 142.354 183.288C142.456 183.39 142.513 183.528 142.513 183.672C142.513 183.743 142.499 183.813 142.472 183.878C142.444 183.944 142.404 184.003 142.353 184.052C142.303 184.102 142.243 184.141 142.177 184.167C142.111 184.193 142.041 184.206 141.97 184.204Z" fill="white"/>
<path d="M165.266 184.204H146.425C146.355 184.206 146.284 184.193 146.218 184.167C146.153 184.141 146.093 184.102 146.042 184.052C145.992 184.003 145.951 183.944 145.924 183.878C145.896 183.813 145.882 183.743 145.882 183.672C145.882 183.528 145.94 183.39 146.041 183.288C146.143 183.186 146.281 183.129 146.425 183.129H165.266C165.337 183.129 165.407 183.143 165.472 183.171C165.538 183.198 165.597 183.238 165.646 183.289C165.696 183.339 165.735 183.399 165.761 183.465C165.787 183.531 165.8 183.601 165.798 183.672C165.8 183.742 165.787 183.812 165.761 183.878C165.735 183.943 165.695 184.002 165.646 184.052C165.596 184.101 165.537 184.141 165.472 184.167C165.406 184.193 165.336 184.206 165.266 184.204Z" fill="#E54B4B"/>
<path d="M208.821 185.002L169.876 184.204C169.805 184.204 169.735 184.19 169.67 184.163C169.605 184.135 169.546 184.095 169.496 184.045C169.447 183.994 169.408 183.934 169.382 183.868C169.356 183.802 169.343 183.732 169.344 183.661C169.343 183.589 169.356 183.517 169.384 183.45C169.411 183.384 169.452 183.323 169.504 183.273C169.556 183.223 169.618 183.185 169.686 183.16C169.754 183.135 169.826 183.125 169.898 183.129L208.843 183.927C208.99 183.927 209.131 183.986 209.235 184.09C209.339 184.193 209.398 184.334 209.398 184.481C209.398 184.628 209.339 184.769 209.235 184.873C209.131 184.977 208.99 185.035 208.843 185.035L208.821 185.002Z" fill="#E54B4B"/>
<path d="M223.351 97.5146H197.86C197.79 97.5146 197.72 97.5005 197.654 97.4731C197.589 97.4457 197.53 97.4055 197.48 97.3549C197.431 97.3043 197.392 97.2444 197.366 97.1785C197.34 97.1127 197.327 97.0423 197.329 96.9716C197.327 96.9013 197.34 96.8314 197.366 96.7662C197.392 96.701 197.431 96.6417 197.481 96.592C197.531 96.5423 197.59 96.5032 197.655 96.477C197.72 96.4508 197.79 96.4381 197.86 96.4396H223.351C223.422 96.4381 223.492 96.4508 223.558 96.4768C223.624 96.5029 223.684 96.5419 223.734 96.5914C223.785 96.641 223.825 96.7001 223.852 96.7654C223.88 96.8307 223.894 96.9008 223.894 96.9716C223.894 97.1156 223.837 97.2537 223.735 97.3556C223.633 97.4574 223.495 97.5146 223.351 97.5146Z" fill="#E54B4B"/>
<path d="M242.192 97.5922C237.204 97.5922 233.503 97.5922 233.325 97.4814C233.258 97.4624 233.194 97.4304 233.139 97.387C233.084 97.3436 233.038 97.2898 233.003 97.2285C232.934 97.1049 232.916 96.9586 232.954 96.8219C232.992 96.6853 233.083 96.5694 233.207 96.4997C233.331 96.4301 233.477 96.4125 233.613 96.4507C234.589 96.5726 251.412 96.5061 262.54 96.4507C262.61 96.4492 262.681 96.4619 262.747 96.4879C262.812 96.514 262.872 96.553 262.923 96.6025C262.973 96.6521 263.014 96.7112 263.041 96.7765C263.069 96.8418 263.083 96.9118 263.083 96.9826C263.083 97.1267 263.025 97.2648 262.924 97.3666C262.822 97.4685 262.684 97.5257 262.54 97.5257C256.599 97.5479 248.398 97.5922 242.192 97.5922Z" fill="#E54B4B"/>
<path d="M219.284 81.7548H182.267C182.12 81.7548 181.979 81.6964 181.875 81.5925C181.771 81.4885 181.713 81.3476 181.713 81.2006C181.713 81.0537 181.771 80.9127 181.875 80.8088C181.979 80.7049 182.12 80.6465 182.267 80.6465H219.284C219.431 80.6465 219.571 80.7049 219.675 80.8088C219.779 80.9127 219.838 81.0537 219.838 81.2006C219.838 81.3476 219.779 81.4885 219.675 81.5925C219.571 81.6964 219.431 81.7548 219.284 81.7548Z" fill="#E54B4B"/>
<path d="M263.559 81.7548H226.676C226.529 81.7548 226.388 81.6964 226.284 81.5925C226.18 81.4885 226.122 81.3476 226.122 81.2006C226.122 81.0537 226.18 80.9127 226.284 80.8088C226.388 80.7049 226.529 80.6465 226.676 80.6465H263.515C263.662 80.6465 263.803 80.7049 263.907 80.8088C264.011 80.9127 264.069 81.0537 264.069 81.2006C264.069 81.3476 264.011 81.4885 263.907 81.5925C263.803 81.6964 263.662 81.7548 263.515 81.7548H263.559Z" fill="#E54B4B"/>
<path d="M184.561 73.9082C177.723 73.9082 172.514 73.9082 172.304 73.9082C172.163 73.8838 172.038 73.805 171.955 73.6888C171.872 73.5727 171.838 73.4285 171.86 73.2876C171.882 73.1501 171.957 73.0266 172.069 72.9437C172.181 72.8609 172.321 72.8251 172.459 72.8443C173.401 72.9108 200.731 72.8443 215.072 72.8443C215.216 72.8443 215.354 72.9015 215.456 73.0033C215.558 73.1052 215.615 73.2433 215.615 73.3873C215.615 73.4581 215.601 73.5282 215.574 73.5935C215.546 73.6588 215.506 73.7179 215.455 73.7675C215.405 73.817 215.345 73.856 215.279 73.882C215.213 73.9081 215.143 73.9208 215.072 73.9193C209.054 73.8861 194.912 73.9082 184.561 73.9082Z" fill="#E54B4B"/>
<path d="M225.058 73.8972C224.959 73.8951 224.862 73.8648 224.78 73.8098C224.697 73.7549 224.632 73.6775 224.592 73.5869C224.538 73.4495 224.538 73.2969 224.591 73.1593C224.645 73.0217 224.748 72.9093 224.88 72.8443C225.313 72.6338 233.924 72.6116 250.459 72.8443C250.601 72.85 250.734 72.9093 250.833 73.0102C250.932 73.1112 250.989 73.2461 250.991 73.3874C250.991 73.4582 250.977 73.5283 250.95 73.5936C250.922 73.6588 250.882 73.718 250.832 73.7675C250.781 73.8171 250.721 73.856 250.655 73.8821C250.589 73.9082 250.519 73.9208 250.448 73.9194C240.817 73.8196 226.177 73.7309 225.268 73.9194C225.197 73.9322 225.124 73.9246 225.058 73.8972Z" fill="white"/>
<path d="M189.349 129.034H170.265C170.118 129.034 169.977 128.976 169.873 128.872C169.769 128.768 169.71 128.627 169.71 128.48C169.71 128.333 169.769 128.192 169.873 128.088C169.977 127.984 170.118 127.926 170.265 127.926H189.349C189.496 127.926 189.637 127.984 189.741 128.088C189.845 128.192 189.903 128.333 189.903 128.48C189.903 128.627 189.845 128.768 189.741 128.872C189.637 128.976 189.496 129.034 189.349 129.034Z" fill="#E54B4B"/>
<path d="M145.561 136.925H131.519C131.372 136.925 131.231 136.867 131.127 136.763C131.023 136.659 130.965 136.518 130.965 136.371C130.965 136.224 131.023 136.083 131.127 135.979C131.231 135.875 131.372 135.817 131.519 135.817H145.561C145.708 135.817 145.849 135.875 145.953 135.979C146.057 136.083 146.115 136.224 146.115 136.371C146.115 136.518 146.057 136.659 145.953 136.763C145.849 136.867 145.708 136.925 145.561 136.925Z" fill="#E54B4B"/>
<path d="M184.262 136.925H150.892C150.745 136.925 150.604 136.867 150.5 136.763C150.396 136.659 150.337 136.518 150.337 136.371C150.337 136.224 150.396 136.083 150.5 135.979C150.604 135.875 150.745 135.817 150.892 135.817H184.262C184.409 135.817 184.55 135.875 184.654 135.979C184.758 136.083 184.816 136.224 184.816 136.371C184.816 136.518 184.758 136.659 184.654 136.763C184.55 136.867 184.409 136.925 184.262 136.925Z" fill="white"/>
<path d="M255.591 136.925H190.945C190.798 136.925 190.657 136.867 190.553 136.763C190.449 136.659 190.391 136.518 190.391 136.371C190.391 136.224 190.449 136.083 190.553 135.979C190.657 135.875 190.798 135.817 190.945 135.817H255.591C255.738 135.817 255.879 135.875 255.983 135.979C256.087 136.083 256.145 136.224 256.145 136.371C256.145 136.518 256.087 136.659 255.983 136.763C255.879 136.867 255.738 136.925 255.591 136.925Z" fill="#E54B4B"/>
<path d="M82.5993 55.6439C83.6399 55.6439 84.4834 54.8004 84.4834 53.7598C84.4834 52.7193 83.6399 51.8757 82.5993 51.8757C81.5588 51.8757 80.7153 52.7193 80.7153 53.7598C80.7153 54.8004 81.5588 55.6439 82.5993 55.6439Z" fill="#231F20"/>
<path d="M89.2049 55.6439C90.2455 55.6439 91.089 54.8004 91.089 53.7598C91.089 52.7193 90.2455 51.8757 89.2049 51.8757C88.1644 51.8757 87.3209 52.7193 87.3209 53.7598C87.3209 54.8004 88.1644 55.6439 89.2049 55.6439Z" fill="white"/>
<path d="M95.81 55.6439C96.8506 55.6439 97.6941 54.8004 97.6941 53.7598C97.6941 52.7193 96.8506 51.8757 95.81 51.8757C94.7695 51.8757 93.9259 52.7193 93.9259 53.7598C93.9259 54.8004 94.7695 55.6439 95.81 55.6439Z" fill="white"/>
<path d="M219.195 230.597H148.697L156.666 206.303H211.226L219.195 230.597Z" fill="white"/>
<path d="M219.195 231.151H148.697C148.609 231.154 148.522 231.136 148.442 231.097C148.363 231.059 148.294 231.002 148.242 230.931C148.189 230.86 148.155 230.777 148.142 230.69C148.128 230.603 148.136 230.514 148.165 230.431L156.134 206.137C156.169 206.024 156.24 205.925 156.336 205.856C156.432 205.786 156.547 205.749 156.666 205.749H211.226C211.345 205.749 211.46 205.786 211.556 205.856C211.652 205.925 211.723 206.024 211.758 206.137L219.727 230.431C219.756 230.514 219.764 230.603 219.75 230.69C219.737 230.777 219.703 230.86 219.65 230.931C219.598 231.002 219.529 231.059 219.45 231.097C219.37 231.136 219.283 231.154 219.195 231.151ZM149.462 230.043H218.43L210.827 206.858H157.065L149.462 230.043Z" fill="#231F20"/>
<path d="M225.013 230.597H142.879C140.987 230.597 139.454 232.128 139.454 234.016C139.454 235.904 140.987 237.435 142.879 237.435H225.013C226.905 237.435 228.438 235.904 228.438 234.016C228.438 232.128 226.905 230.597 225.013 230.597Z" fill="white"/>
<path d="M225.024 238H142.879C141.823 238 140.811 237.581 140.065 236.835C139.319 236.088 138.9 235.076 138.9 234.021C138.9 232.966 139.319 231.954 140.065 231.208C140.811 230.462 141.823 230.042 142.879 230.042H225.024C226.08 230.042 227.092 230.462 227.838 231.208C228.584 231.954 229.003 232.966 229.003 234.021C229.003 235.076 228.584 236.088 227.838 236.835C227.092 237.581 226.08 238 225.024 238ZM142.879 231.151C142.117 231.151 141.387 231.453 140.849 231.991C140.311 232.53 140.008 233.26 140.008 234.021C140.008 234.782 140.311 235.513 140.849 236.051C141.387 236.589 142.117 236.892 142.879 236.892H225.024C225.786 236.892 226.516 236.589 227.054 236.051C227.592 235.513 227.895 234.782 227.895 234.021C227.895 233.26 227.592 232.53 227.054 231.991C226.516 231.453 225.786 231.151 225.024 231.151H142.879Z" fill="#231F20"/>
<path d="M150.814 224.158C151.922 223.559 212.989 212.41 212.989 212.41L210.983 206.303H156.422L150.814 224.158Z" fill="#231F20"/>
<path d="M150.803 224.712C150.676 224.711 150.554 224.663 150.459 224.579C150.379 224.509 150.321 224.417 150.293 224.314C150.266 224.212 150.27 224.103 150.304 224.002L155.912 206.148C155.944 206.038 156.011 205.941 156.103 205.873C156.195 205.805 156.307 205.769 156.422 205.771H210.983C211.096 205.768 211.207 205.803 211.299 205.869C211.391 205.935 211.459 206.029 211.492 206.137L213.498 212.232C213.52 212.306 213.526 212.383 213.516 212.459C213.506 212.535 213.48 212.608 213.441 212.674C213.401 212.739 213.349 212.796 213.286 212.84C213.223 212.885 213.152 212.915 213.077 212.931C196.342 215.989 152.554 224.069 151.014 224.656C150.947 224.687 150.876 224.706 150.803 224.712ZM156.854 206.846L151.645 223.415C158.982 221.753 201.717 213.928 212.312 211.989L210.628 206.846H156.854Z" fill="#231F20"/>
<path d="M119.399 125.139L107.83 119.226L93.7736 146.731L105.342 152.643L119.399 125.139Z" fill="#E54B4B"/>
<path d="M105.332 153.225C105.243 153.223 105.155 153.199 105.077 153.155L93.4558 147.251C93.3869 147.218 93.3255 147.171 93.2751 147.114C93.2247 147.056 93.1865 146.989 93.1626 146.916C93.1388 146.844 93.1298 146.767 93.1362 146.691C93.1427 146.615 93.1644 146.54 93.2001 146.473L107.261 118.966C107.295 118.897 107.342 118.836 107.4 118.786C107.458 118.736 107.525 118.699 107.598 118.676C107.74 118.618 107.898 118.618 108.04 118.676L119.661 124.591C119.729 124.625 119.789 124.673 119.838 124.731C119.887 124.789 119.924 124.856 119.947 124.929C119.97 125.001 119.978 125.078 119.97 125.153C119.963 125.229 119.941 125.303 119.905 125.369L105.878 152.911C105.804 153.042 105.684 153.141 105.541 153.19C105.475 153.217 105.404 153.229 105.332 153.225ZM94.5481 146.484L105.088 151.865L118.661 125.393L108.133 120.001L94.5481 146.484Z" fill="#231F20"/>
<path d="M108.731 144.521L98.3622 139.222C96.9392 138.495 95.1961 139.059 94.4688 140.482L70.3168 187.74C69.5896 189.163 70.1536 190.906 71.5766 191.633L81.9451 196.932C83.3681 197.659 85.1112 197.095 85.8385 195.672L109.99 148.414C110.718 146.991 110.154 145.248 108.731 144.521Z" fill="white"/>
<path d="M83.2643 197.837C82.718 197.838 82.1796 197.706 81.6955 197.453L71.3065 192.154C70.4955 191.732 69.8827 191.008 69.6002 190.139C69.3176 189.27 69.3878 188.324 69.7958 187.506L93.9554 140.244C94.3774 139.433 95.1011 138.82 95.9705 138.538C96.8399 138.255 97.7856 138.325 98.6037 138.733L108.981 144.032C109.792 144.454 110.405 145.178 110.687 146.047C110.97 146.917 110.9 147.863 110.492 148.681L86.3554 195.942C86.0634 196.511 85.6206 196.989 85.0754 197.323C84.5302 197.657 83.9037 197.835 83.2643 197.837ZM97.0465 139.489C96.8053 139.486 96.5655 139.526 96.3377 139.605C96.0476 139.7 95.7793 139.852 95.548 140.052C95.3167 140.251 95.127 140.494 94.9897 140.767L70.83 188.017C70.5572 188.563 70.5102 189.195 70.6994 189.776C70.8886 190.356 71.2987 190.839 71.8411 191.12L82.2184 196.419C82.7633 196.693 83.3939 196.741 83.9744 196.554C84.5548 196.367 85.0385 195.96 85.3212 195.419L109.481 148.193C109.754 147.646 109.801 147.015 109.611 146.434C109.422 145.853 109.012 145.371 108.47 145.09L98.0924 139.791C97.7745 139.604 97.4149 139.5 97.0465 139.489Z" fill="#231F20"/>
<path d="M140.23 68.4623C134.349 65.4518 127.708 64.2536 121.146 65.0194C114.584 65.7851 108.397 68.4803 103.367 72.7639C98.3381 77.0475 94.6926 82.7269 92.8924 89.0832C91.0922 95.4395 91.2182 102.187 93.2545 108.472C95.2908 114.756 99.1458 120.296 104.332 124.388C109.517 128.481 115.801 130.944 122.387 131.464C128.973 131.984 135.565 130.539 141.329 127.311C147.093 124.083 151.769 119.217 154.767 113.33C158.779 105.451 159.502 96.3016 156.776 87.89C154.051 79.4785 148.1 72.4916 140.23 68.4623ZM113.722 120.303C109.345 118.065 105.729 114.58 103.332 110.287C100.935 105.995 99.865 101.088 100.257 96.1873C100.649 91.2866 102.485 86.6122 105.534 82.7553C108.583 78.8983 112.706 76.032 117.384 74.5188C122.062 73.0056 127.083 72.9136 131.813 74.2542C136.543 75.5949 140.769 78.3081 143.957 82.0508C147.145 85.7934 149.152 90.3973 149.723 95.2804C150.295 100.163 149.405 105.106 147.167 109.484C144.167 115.353 138.957 119.79 132.685 121.819C126.413 123.848 119.592 123.303 113.722 120.303Z" fill="white"/>
<path d="M125.006 132.168C116.427 132.19 108.154 128.976 101.84 123.167C95.5255 117.358 91.6344 109.382 90.9432 100.83C90.2519 92.2778 92.8115 83.7798 98.1107 77.0322C103.41 70.2845 111.059 65.7837 119.531 64.4282C128.003 63.0727 136.675 64.9622 143.815 69.7195C150.955 74.4769 156.038 81.752 158.05 90.0927C160.061 98.4333 158.853 107.226 154.667 114.715C150.48 122.204 143.624 127.839 135.465 130.494C132.089 131.599 128.559 132.163 125.006 132.168ZM125.076 65.3712C121.635 65.3756 118.217 65.9167 114.943 66.9749C107.128 69.5182 100.559 74.9137 96.5458 82.0854C92.5326 89.2571 91.3701 97.6779 93.29 105.669C95.2099 113.659 100.071 120.633 106.905 125.199C113.738 129.764 122.041 131.586 130.158 130.302C138.275 129.017 145.61 124.72 150.7 118.268C155.789 111.815 158.26 103.681 157.619 95.4883C156.977 87.2951 153.271 79.6448 147.24 74.0627C141.208 68.4807 133.294 65.3773 125.076 65.3712ZM124.995 123.615C120.986 123.614 117.035 122.662 113.467 120.837C107.911 118.005 103.588 113.233 101.317 107.425C99.0467 101.617 98.9862 95.1783 101.147 89.329C103.309 83.4797 107.541 78.6269 113.043 75.691C118.544 72.755 124.932 71.94 130.994 73.4006C137.056 74.8612 142.372 78.4958 145.933 83.615C149.493 88.7343 151.052 94.9823 150.312 101.174C149.572 107.366 146.586 113.071 141.919 117.207C137.253 121.343 131.23 123.623 124.995 123.615ZM114.013 119.803C118.285 121.982 123.106 122.847 127.869 122.288C132.632 121.73 137.123 119.774 140.775 116.666C144.427 113.558 147.077 109.438 148.391 104.826C149.704 100.214 149.622 95.3166 148.155 90.751C146.676 86.185 143.877 82.1597 140.111 79.184C136.345 76.2083 131.782 74.4156 126.998 74.0326C122.213 73.6495 117.423 74.6933 113.232 77.032C109.04 79.3706 105.636 82.8992 103.45 87.1718C100.536 92.902 100.012 99.5533 101.992 105.669C103.971 111.785 108.294 116.867 114.013 119.803Z" fill="#231F20"/>
</svg>
