<svg width="367" height="276" viewBox="0 0 367 276" fill="none" xmlns="http://www.w3.org/2000/svg">
<path d="M311.981 200.253H54.2153C54.0939 200.253 53.9775 200.205 53.8917 200.119C53.8058 200.033 53.7576 199.917 53.7576 199.796C53.7576 199.674 53.8058 199.558 53.8917 199.472C53.9775 199.386 54.0939 199.338 54.2153 199.338H311.981C312.102 199.338 312.219 199.386 312.304 199.472C312.39 199.558 312.438 199.674 312.438 199.796C312.438 199.917 312.39 200.033 312.304 200.119C312.219 200.205 312.102 200.253 311.981 200.253Z" fill="#D1D3D4"/>
<path d="M191.694 94.9722H199.302C205.358 94.9722 211.165 97.3777 215.447 101.66C219.729 105.941 222.135 111.749 222.135 117.804V142.852H168.871V117.768C168.881 111.72 171.29 105.924 175.568 101.65C179.847 97.3762 185.647 94.9746 191.694 94.9722Z" fill="#231F20"/>
<path d="M222.144 143.228H168.871C168.762 143.228 168.657 143.184 168.58 143.107C168.503 143.03 168.459 142.925 168.459 142.816V117.768C168.467 111.608 170.917 105.702 175.273 101.346C179.629 96.9903 185.534 94.54 191.694 94.5327H199.311C205.471 94.54 211.377 96.9903 215.733 101.346C220.089 105.702 222.539 111.608 222.546 117.768V142.816C222.547 142.923 222.504 143.027 222.429 143.104C222.354 143.181 222.251 143.225 222.144 143.228ZM169.274 142.413H221.732V117.768C221.727 111.822 219.363 106.121 215.16 101.916C210.957 97.7114 205.257 95.3456 199.311 95.3384H191.694C185.749 95.3456 180.049 97.7114 175.846 101.916C171.642 106.121 169.279 111.822 169.274 117.768V142.413Z" fill="#231F20"/>
<path d="M213.355 80.6812C213.513 83.8062 213.142 86.9356 212.256 89.9368C211.213 93.7177 211.524 98.0938 211.341 102.003C211.318 103.681 211.109 105.351 210.718 106.983C209.235 112.385 203.898 116.083 198.378 117.054C195.491 117.564 192.525 117.397 189.714 116.564C186.904 115.732 184.325 114.257 182.183 112.256C180.086 110.219 178.58 107.653 177.824 104.829C177.068 102.005 177.09 99.0291 177.889 96.217C178.366 94.5658 179.251 93.061 180.461 91.841C181.798 90.5593 183.556 89.7903 184.947 88.5635C188.307 85.579 188.811 80.6262 190.495 76.4607C191.089 74.7155 192.197 73.1902 193.672 72.0847C195.427 71.0834 197.445 70.6426 199.458 70.8213C203.843 70.922 209.189 72.396 211.872 76.1495C212.758 77.5025 213.27 79.0661 213.355 80.6812Z" fill="white"/>
<path d="M195.128 117.713C190.222 117.761 185.486 115.915 181.908 112.559C179.753 110.466 178.206 107.829 177.432 104.927C176.658 102.025 176.687 98.9671 177.514 96.0798C178 94.3513 178.921 92.7757 180.187 91.5024C180.931 90.819 181.737 90.2061 182.594 89.6714C183.327 89.2235 184.024 88.7216 184.682 88.17C186.98 86.1284 187.886 83.1622 188.847 80.013C189.232 78.7496 189.625 77.4496 190.12 76.2137C190.739 74.3892 191.894 72.7939 193.434 71.6362C195.347 70.3545 197.792 70.2721 199.467 70.2996C201.573 70.3545 208.695 70.8947 212.211 75.7926C213.143 77.207 213.683 78.8434 213.776 80.5348C213.931 83.7122 213.553 86.8931 212.659 89.946C212.026 92.7752 211.747 95.6719 211.826 98.5699C211.826 99.6868 211.826 100.831 211.735 101.921C211.702 103.629 211.488 105.33 211.094 106.992C209.464 112.925 203.55 116.468 198.414 117.337C197.332 117.558 196.232 117.684 195.128 117.713ZM198.89 71.2243C197.145 71.1254 195.41 71.5425 193.901 72.4235C192.496 73.5016 191.449 74.9791 190.898 76.6623C190.413 77.8524 189.982 79.1432 189.644 80.3883C188.728 83.501 187.712 86.7235 185.24 88.9207C184.564 89.4846 183.848 89.9986 183.098 90.4587C182.283 90.9453 181.516 91.5094 180.809 92.1432C179.649 93.314 178.805 94.7597 178.356 96.3453C177.585 99.0756 177.566 101.964 178.303 104.704C179.039 107.443 180.503 109.933 182.54 111.909C184.63 113.854 187.144 115.287 189.883 116.096C192.622 116.905 195.511 117.066 198.323 116.568C203.193 115.735 208.796 112.403 210.334 106.828C210.712 105.221 210.917 103.58 210.947 101.93C211.002 100.859 211.02 99.7692 211.039 98.6157C210.957 95.6466 211.246 92.6788 211.899 89.7812C212.766 86.8264 213.134 83.7479 212.989 80.6721C212.909 79.1267 212.423 77.6298 211.579 76.3327C208.961 72.6707 203.623 71.2792 199.494 71.1876L198.89 71.2243Z" fill="#231F20"/>
<path d="M215.818 185.02C217.209 169.356 216.687 150.231 209.464 134.942L178.951 138.531C178.951 138.778 173.348 165.474 169.219 185.02H215.818Z" fill="#231F20"/>
<path d="M184.993 138.65L188.591 98.0024L207.542 98.8355L206.809 139.721L184.993 138.65Z" fill="white"/>
<path d="M206.809 140.142L185.002 139.071C184.89 139.061 184.785 139.009 184.709 138.925C184.636 138.838 184.6 138.726 184.609 138.613L188.197 97.9564C188.201 97.9027 188.215 97.8501 188.239 97.8019C188.263 97.7537 188.297 97.7109 188.338 97.6759C188.379 97.6409 188.426 97.6144 188.478 97.5982C188.529 97.5819 188.583 97.5761 188.637 97.5811L207.587 98.4233C207.641 98.4245 207.694 98.4364 207.743 98.4583C207.792 98.4802 207.836 98.5118 207.873 98.551C207.91 98.5902 207.938 98.6364 207.957 98.6868C207.975 98.7372 207.983 98.7908 207.981 98.8445L207.249 139.73C207.248 139.844 207.201 139.953 207.12 140.032C207.033 140.105 206.923 140.144 206.809 140.142ZM185.451 138.256L206.397 139.282L207.111 99.2381L188.966 98.4325L185.451 138.256Z" fill="#231F20"/>
<path d="M224.002 114.417L212.577 118.171L214.792 140.747L201.92 142.578L203.129 100.758H192.372C192.372 101.161 188.71 131.619 187.913 140.6L175.774 138.641L180.828 117.585L172.277 111.561C172.277 111.561 177.294 96.2537 192.216 96.565C205.949 96.8579 201.17 97.041 200.895 97.0594C201.17 97.0594 211.78 96.7115 216.861 103.065C219.73 106.519 222.13 110.336 224.002 114.417Z" fill="#E54B4B"/>
<path d="M193.69 94.5601L192.692 101.28C192.692 101.28 192.756 105.161 197.05 104.685C198.317 104.535 199.534 104.103 200.612 103.422C201.691 102.741 202.604 101.828 203.285 100.749C203.285 100.749 205.418 84.2699 205.555 83.0707C204.823 83.2904 202.754 83.7481 202.076 83.3453C201.399 82.9425 201.618 80.5988 201.646 79.9031C200.873 80.7722 200.282 81.7868 199.906 82.8876L197.096 82.5488C196.881 81.5008 196.881 80.4201 197.096 79.3721C196.354 80.1798 195.809 81.1479 195.503 82.2009C194.716 82.0911 191.841 81.1756 191.273 81.7432C190.413 82.5763 188.948 89.0122 190.404 91.5756C191.859 94.1389 193.69 94.5601 193.69 94.5601Z" fill="white"/>
<path d="M196.345 105.152C195.348 105.197 194.37 104.871 193.599 104.237C192.796 103.468 192.323 102.418 192.28 101.307C192.28 101.252 193.022 96.2354 193.196 94.8988C191.826 94.2607 190.71 93.1805 190.028 91.8319C188.499 89.1404 189.964 82.4848 190.944 81.496C191.502 80.9467 192.903 81.2305 194.67 81.6517L195.182 81.7798C195.536 80.7794 196.098 79.8652 196.83 79.0975C196.89 79.0265 196.973 78.9779 197.064 78.9596C197.155 78.9414 197.25 78.9546 197.333 78.9971C197.416 79.0395 197.482 79.1087 197.52 79.1934C197.558 79.2782 197.567 79.3734 197.544 79.4637C197.359 80.3679 197.337 81.2982 197.48 82.2101L199.65 82.4665C200.048 81.4347 200.628 80.4827 201.362 79.6559C201.418 79.5907 201.494 79.5448 201.577 79.5245C201.661 79.5043 201.749 79.5108 201.829 79.5431C201.908 79.5755 201.976 79.632 202.022 79.7048C202.068 79.7775 202.09 79.8629 202.085 79.9489V80.2693C201.975 82.4756 202.186 82.9425 202.323 83.0158C202.772 83.2721 204.475 83.0158 205.473 82.6953C205.538 82.6759 205.608 82.6733 205.675 82.6877C205.742 82.7021 205.805 82.733 205.857 82.7777C205.911 82.8211 205.953 82.8775 205.978 82.9417C206.004 83.0058 206.013 83.0754 206.004 83.1439C205.875 84.3341 203.825 100.163 203.742 100.831C203.734 100.886 203.715 100.939 203.687 100.987C202.976 102.126 202.018 103.09 200.883 103.808C199.748 104.526 198.466 104.979 197.132 105.134C196.871 105.154 196.608 105.16 196.345 105.152ZM193.113 101.38C193.176 102.233 193.547 103.034 194.157 103.633C194.557 103.941 195.017 104.161 195.508 104.277C195.999 104.394 196.509 104.405 197.004 104.31C198.191 104.163 199.331 103.759 200.346 103.127C201.361 102.494 202.226 101.648 202.882 100.648C203.037 99.4671 204.713 86.7601 205.07 83.6658C204.154 83.8763 202.58 84.1693 201.866 83.739C201.289 83.4003 201.17 82.3932 201.179 81.2397C200.8 81.8102 200.492 82.4252 200.263 83.0707C200.233 83.1598 200.172 83.2358 200.092 83.2858C200.012 83.3357 199.918 83.3568 199.824 83.3453L197.013 83.0066C196.926 82.998 196.844 82.9612 196.78 82.9017C196.715 82.8422 196.672 82.7633 196.656 82.677C196.537 82.1051 196.482 81.5217 196.492 80.9376C196.236 81.3889 196.033 81.8681 195.887 82.3658C195.86 82.4618 195.798 82.5445 195.714 82.5984C195.629 82.6523 195.529 82.6738 195.43 82.6587C195.121 82.6066 194.816 82.5394 194.514 82.4573C193.864 82.3017 191.887 81.8348 191.566 82.0911C190.889 82.7503 189.406 89.0122 190.761 91.4108C191.382 92.6736 192.458 93.6548 193.773 94.1573C193.873 94.1832 193.96 94.2452 194.017 94.3313C194.075 94.4174 194.098 94.5217 194.084 94.6242C194.084 94.6974 193.104 101.234 193.095 101.344L193.113 101.38Z" fill="#231F20"/>
<path d="M203.916 87.6482C204.101 87.1632 204.443 86.754 204.887 86.4856C205.304 86.2489 205.759 86.0877 206.232 86.0095C206.492 85.9503 206.761 85.9503 207.02 86.0095C207.196 86.0634 207.361 86.1504 207.505 86.2658C207.873 86.5054 208.143 86.8693 208.265 87.2912C208.32 87.6407 208.292 87.9983 208.182 88.3348C208.088 88.7055 207.947 89.0625 207.761 89.3968C207.567 89.727 207.309 90.0152 207.002 90.2446C206.696 90.474 206.346 90.6399 205.975 90.7328C205.603 90.8257 205.217 90.8437 204.838 90.7856C204.46 90.7276 204.096 90.5947 203.77 90.3947" fill="white"/>
<path d="M205.271 91.182C204.675 91.1843 204.089 91.0228 203.578 90.7151C203.507 90.66 203.459 90.581 203.443 90.4931C203.427 90.4052 203.444 90.3144 203.49 90.2378C203.536 90.1612 203.609 90.1042 203.694 90.0775C203.779 90.0507 203.871 90.0561 203.953 90.0926C204.535 90.4355 205.228 90.5373 205.885 90.3764C206.208 90.2928 206.512 90.1463 206.779 89.9453C207.046 89.7442 207.271 89.4925 207.441 89.2045C207.614 88.9006 207.743 88.5739 207.825 88.2341C207.93 87.9409 207.959 87.6258 207.908 87.3186C207.803 86.9845 207.587 86.6967 207.294 86.5039C207.187 86.4149 207.062 86.3494 206.928 86.3116C206.726 86.2672 206.517 86.2672 206.315 86.3116C205.882 86.3872 205.465 86.5325 205.079 86.7419C204.706 86.9755 204.418 87.3218 204.255 87.7306C204.242 87.7805 204.218 87.827 204.186 87.8671C204.153 87.9072 204.113 87.94 204.067 87.9633C204.021 87.9867 203.97 88 203.919 88.0025C203.867 88.0049 203.815 87.9965 203.767 87.9776C203.719 87.9588 203.676 87.93 203.64 87.8932C203.604 87.8564 203.576 87.8123 203.558 87.7639C203.54 87.7155 203.532 87.6639 203.536 87.6124C203.539 87.5609 203.553 87.5107 203.578 87.4651C203.795 86.9102 204.187 86.441 204.694 86.1285C205.147 85.868 205.644 85.6912 206.159 85.6067C206.46 85.5374 206.773 85.5374 207.075 85.6067C207.3 85.6709 207.511 85.7765 207.697 85.9179C208.142 86.2055 208.467 86.6447 208.613 87.1538C208.681 87.5611 208.65 87.979 208.521 88.3715C208.42 88.7773 208.266 89.1681 208.063 89.5341C207.62 90.2796 206.899 90.8193 206.059 91.0355C205.804 91.1197 205.539 91.169 205.271 91.182Z" fill="#231F20"/>
<path d="M193.416 97.2334C193.416 97.2334 196.052 98.4327 198.112 96.9038C198.689 96.5208 199.176 96.0171 199.54 95.4276C199.903 94.838 200.135 94.1766 200.218 93.489C200.218 93.489 196.345 95.5946 193.69 94.6975L193.416 97.2334Z" fill="#231F20"/>
<path d="M195.64 98.0848C194.817 98.0759 194.003 97.9113 193.242 97.5996C193.165 97.5636 193.102 97.5045 193.061 97.4305C193.02 97.3566 193.003 97.2716 193.013 97.1876L193.287 94.6517C193.294 94.5922 193.313 94.5348 193.345 94.4841C193.377 94.4333 193.42 94.3904 193.471 94.3587C193.525 94.334 193.584 94.3211 193.644 94.3211C193.704 94.3211 193.764 94.334 193.818 94.3587C196.272 95.1918 199.98 93.2052 200.025 93.1778C200.087 93.1441 200.157 93.1265 200.227 93.1265C200.297 93.1265 200.366 93.1441 200.428 93.1778C200.487 93.2169 200.536 93.2699 200.569 93.3322C200.603 93.3945 200.62 93.4641 200.621 93.5348C200.536 94.2836 200.289 95.0049 199.897 95.6484C199.505 96.292 198.977 96.8422 198.35 97.2608C197.561 97.8233 196.609 98.1126 195.64 98.0848ZM193.809 96.9679C194.464 97.2224 195.17 97.3202 195.869 97.2534C196.568 97.1867 197.243 96.9572 197.837 96.5834C198.682 96.0017 199.323 95.169 199.668 94.2031C198.469 94.7432 196.061 95.6404 194.047 95.2101L193.809 96.9679Z" fill="#231F20"/>
<path d="M194.258 83.8579C194.258 83.8579 191.557 86.7417 191.978 87.3917C192.399 88.0417 193.91 87.9044 193.91 87.9044" fill="white"/>
<path d="M193.553 88.3255C193.201 88.3606 192.845 88.3145 192.513 88.1907C192.182 88.0669 191.883 87.8688 191.64 87.6114C191.246 87.0072 192.024 85.6523 193.965 83.5833C194.002 83.545 194.046 83.5146 194.095 83.4939C194.143 83.4731 194.196 83.4624 194.249 83.4624C194.302 83.4624 194.354 83.4731 194.403 83.4939C194.452 83.5146 194.496 83.545 194.533 83.5833C194.571 83.6208 194.602 83.6656 194.622 83.7152C194.643 83.7647 194.654 83.8179 194.654 83.8716C194.654 83.9254 194.643 83.9786 194.622 84.0281C194.602 84.0776 194.571 84.1225 194.533 84.16C193.324 85.4509 192.29 86.9065 192.326 87.2361C192.5 87.4924 193.342 87.5656 193.855 87.5199C193.908 87.5148 193.961 87.5203 194.012 87.536C194.063 87.5518 194.11 87.5774 194.151 87.6114C194.192 87.6455 194.226 87.6873 194.25 87.7344C194.275 87.7815 194.29 87.8331 194.294 87.8861C194.302 87.9925 194.268 88.0977 194.2 88.1797C194.132 88.2617 194.034 88.3139 193.928 88.3255H193.553Z" fill="#231F20"/>
<path d="M198.362 84.8392C198.518 84.4442 198.419 84.0351 198.142 83.9254C197.865 83.8157 197.513 84.0469 197.357 84.4419C197.201 84.8368 197.299 85.2459 197.576 85.3556C197.854 85.4654 198.205 85.2341 198.362 84.8392Z" fill="#231F20"/>
<path d="M192.393 83.9894C192.549 83.5944 192.451 83.1853 192.174 83.0756C191.896 82.9659 191.545 83.1971 191.389 83.592C191.232 83.987 191.331 84.3961 191.608 84.5058C191.886 84.6155 192.237 84.3843 192.393 83.9894Z" fill="#231F20"/>
<path d="M191.026 89.0945C191.026 89.0945 192.5 92.2987 196.373 90.0924L191.026 89.0945Z" fill="white"/>
<path d="M193.855 91.3101C193.489 91.3119 193.124 91.2563 192.775 91.1453C191.86 90.8311 191.102 90.1749 190.66 89.3143C190.638 89.2662 190.625 89.2142 190.623 89.1613C190.621 89.1083 190.629 89.0555 190.647 89.0057C190.666 88.956 190.694 88.9104 190.73 88.8714C190.765 88.8325 190.809 88.801 190.857 88.7787C190.954 88.7338 191.065 88.7293 191.165 88.7662C191.215 88.7845 191.261 88.8124 191.3 88.8483C191.339 88.8842 191.37 88.9275 191.392 88.9756C191.741 89.6355 192.326 90.1391 193.031 90.3854C193.568 90.5077 194.124 90.5172 194.665 90.4131C195.205 90.3091 195.718 90.0939 196.171 89.7812C196.265 89.7278 196.376 89.7137 196.479 89.742C196.583 89.7703 196.672 89.8388 196.725 89.9322C196.779 90.0257 196.793 90.1366 196.764 90.2405C196.736 90.3443 196.668 90.4327 196.574 90.4861C195.756 90.9945 194.818 91.2786 193.855 91.3101Z" fill="#231F20"/>
<path d="M183.418 113.172C183.367 113.186 183.314 113.186 183.263 113.172C183.211 113.153 183.164 113.123 183.124 113.086C183.084 113.048 183.052 113.003 183.03 112.952C183.008 112.902 182.996 112.848 182.995 112.793C182.994 112.738 183.004 112.683 183.025 112.632L185.478 106.352C185.518 106.247 185.598 106.163 185.7 106.118C185.803 106.072 185.919 106.069 186.023 106.109C186.127 106.149 186.212 106.229 186.257 106.331C186.303 106.433 186.306 106.549 186.266 106.654L183.803 112.934C183.768 113.006 183.713 113.067 183.645 113.109C183.577 113.151 183.499 113.173 183.418 113.172Z" fill="#231F20"/>
<path d="M221.704 115.168C221.704 115.168 230.456 135.208 231.006 137.341C231.555 139.474 205.729 158.837 202.57 160.375C199.412 161.913 194.642 163.835 192.344 160.576C190.715 158.278 197.59 155.312 197.59 155.312C197.59 155.312 194.038 152.813 195.347 152.053C196.656 151.293 202.296 152.52 202.296 152.52L218.152 136.297L210.352 119.068" fill="white"/>
<path d="M196.016 162.782C195.234 162.827 194.454 162.67 193.751 162.327C193.047 161.984 192.443 161.466 191.997 160.823C191.844 160.61 191.741 160.365 191.697 160.107C191.652 159.848 191.667 159.583 191.74 159.331C192.244 157.573 195.356 155.898 196.775 155.22C195.906 154.543 194.597 153.389 194.642 152.474C194.647 152.311 194.695 152.151 194.782 152.013C194.869 151.874 194.992 151.762 195.137 151.687C196.428 150.936 200.813 151.778 202.159 152.062L217.649 136.215L209.968 119.242C209.945 119.192 209.932 119.138 209.931 119.083C209.929 119.028 209.938 118.974 209.958 118.923C209.977 118.872 210.007 118.825 210.045 118.785C210.083 118.746 210.128 118.714 210.178 118.692C210.227 118.668 210.281 118.654 210.335 118.651C210.39 118.648 210.445 118.656 210.496 118.675C210.548 118.694 210.595 118.723 210.634 118.76C210.674 118.798 210.706 118.843 210.728 118.894L218.528 136.169C218.563 136.245 218.574 136.329 218.559 136.411C218.544 136.493 218.504 136.568 218.445 136.627L202.598 152.813C202.547 152.863 202.485 152.9 202.416 152.921C202.347 152.942 202.275 152.945 202.204 152.932C200.09 152.465 196.409 151.915 195.558 152.41C195.475 152.41 195.475 152.483 195.475 152.511C195.475 152.968 196.675 154.149 197.837 154.964C197.896 155.009 197.942 155.068 197.972 155.135C198.003 155.202 198.016 155.275 198.011 155.349C198.004 155.424 197.976 155.497 197.931 155.558C197.886 155.619 197.825 155.667 197.755 155.696C196.455 156.255 192.976 158.049 192.546 159.56C192.509 159.692 192.503 159.83 192.526 159.964C192.55 160.099 192.604 160.227 192.683 160.338C194.752 163.277 199.211 161.556 202.387 159.999C206.049 158.223 230.447 139.547 230.603 137.414C230.063 135.373 221.448 115.534 221.32 115.332C221.297 115.283 221.284 115.229 221.283 115.174C221.281 115.119 221.29 115.065 221.31 115.014C221.329 114.962 221.359 114.916 221.397 114.876C221.435 114.837 221.48 114.805 221.53 114.783C221.634 114.74 221.75 114.739 221.854 114.78C221.958 114.821 222.043 114.901 222.089 115.003C222.446 115.818 230.859 135.144 231.418 137.231C232.132 139.977 204.685 159.807 202.754 160.75C200.822 161.693 198.231 162.782 196.016 162.782Z" fill="#231F20"/>
<path d="M172.286 111.524L168.386 118.253C168.386 118.253 152.685 108.118 152.383 106.278C152.081 104.438 150.909 98.341 149.683 97.2882C148.456 96.2354 148.648 101.71 148.648 101.71C148.648 101.71 142.56 94.7889 141.947 96.3361C141.223 98.1121 140.07 101.893 141.581 104.099C143.192 106.471 147.989 110.709 147.989 110.709C147.989 110.709 167.69 134.988 170.547 134.887C173.403 134.787 180.818 117.548 180.818 117.548" fill="white"/>
<path d="M170.556 135.308C167.571 135.308 150.992 115.049 147.669 110.975C147.513 110.856 142.844 106.727 141.26 104.337C139.676 101.948 140.921 97.81 141.581 96.1712C141.628 96.0501 141.706 95.9434 141.807 95.8615C141.908 95.7797 142.029 95.7255 142.157 95.7043C143.393 95.4938 146.552 98.7438 148.236 100.593C148.236 99.0092 148.41 97.1416 149.152 96.8029C149.295 96.7395 149.454 96.7213 149.608 96.7508C149.761 96.7802 149.903 96.8559 150.012 96.9677C151.495 98.2494 152.759 105.399 152.85 106.214C153.07 107.267 160.815 112.815 168.304 117.667L171.966 111.313C172.024 111.219 172.117 111.152 172.225 111.124C172.332 111.097 172.446 111.112 172.542 111.167C172.59 111.194 172.631 111.231 172.664 111.274C172.697 111.318 172.721 111.367 172.734 111.42C172.748 111.473 172.751 111.528 172.743 111.582C172.735 111.636 172.717 111.688 172.689 111.735L168.798 118.463C168.739 118.562 168.644 118.634 168.533 118.665C168.476 118.677 168.418 118.677 168.361 118.666C168.305 118.655 168.251 118.633 168.203 118.601C165.557 116.898 152.338 108.274 152.017 106.351C151.532 103.413 150.415 98.4508 149.463 97.6085C149.11 98.939 148.99 100.32 149.106 101.692C149.112 101.777 149.09 101.863 149.044 101.935C148.998 102.008 148.93 102.063 148.85 102.094C148.768 102.125 148.68 102.131 148.595 102.112C148.51 102.092 148.433 102.048 148.373 101.985C145.691 98.936 142.881 96.4367 142.322 96.4917C141.901 97.6269 140.491 101.637 141.965 103.816C143.439 105.994 148.282 110.306 148.328 110.343C155.926 119.699 168.606 134.42 170.583 134.42C172.469 134.347 177.669 123.901 180.489 117.328C180.533 117.227 180.616 117.147 180.718 117.106C180.821 117.065 180.936 117.066 181.038 117.108C181.089 117.129 181.136 117.16 181.174 117.2C181.213 117.239 181.244 117.285 181.264 117.337C181.285 117.388 181.295 117.443 181.294 117.498C181.293 117.553 181.28 117.607 181.258 117.658C180.004 120.578 173.586 135.144 170.611 135.254L170.556 135.308Z" fill="#231F20"/>
<path d="M148.648 101.71C148.648 101.71 146.579 104.044 147.238 105.811L148.648 101.71Z" fill="white"/>
<path d="M147.238 106.233C147.153 106.231 147.07 106.204 147 106.155C146.929 106.106 146.875 106.038 146.845 105.958C146.112 103.98 148.245 101.536 148.337 101.435C148.41 101.353 148.512 101.303 148.622 101.296C148.732 101.289 148.84 101.326 148.923 101.399C149.005 101.472 149.056 101.574 149.062 101.684C149.069 101.794 149.032 101.902 148.959 101.985C148.428 102.589 147.128 104.411 147.632 105.647C147.67 105.751 147.666 105.866 147.62 105.968C147.573 106.069 147.489 106.148 147.385 106.187C147.34 106.212 147.29 106.228 147.238 106.233Z" fill="#231F20"/>
<path d="M209.299 116.028C209.227 116.026 209.156 116.006 209.094 115.969C209.031 115.932 208.979 115.88 208.942 115.818L205.07 109.089C205.016 108.991 205.002 108.877 205.031 108.769C205.06 108.662 205.13 108.569 205.225 108.512C205.273 108.485 205.325 108.467 205.38 108.46C205.434 108.452 205.489 108.456 205.542 108.471C205.595 108.485 205.644 108.51 205.687 108.544C205.73 108.578 205.766 108.62 205.793 108.668L209.684 115.397C209.711 115.444 209.729 115.496 209.736 115.551C209.744 115.605 209.74 115.66 209.725 115.713C209.711 115.766 209.686 115.815 209.652 115.859C209.618 115.902 209.576 115.938 209.528 115.964C209.461 116.011 209.381 116.034 209.299 116.028Z" fill="#231F20"/>
<path d="M295.355 147.823H148.566V207.348H295.355V147.823Z" fill="white"/>
<path d="M295.355 207.77H148.566C148.454 207.77 148.347 207.725 148.268 207.646C148.189 207.567 148.145 207.46 148.145 207.348V147.842C148.145 147.786 148.155 147.731 148.177 147.68C148.198 147.629 148.229 147.583 148.268 147.544C148.307 147.505 148.353 147.474 148.405 147.452C148.456 147.431 148.51 147.42 148.566 147.42H295.355C295.465 147.423 295.57 147.468 295.647 147.547C295.724 147.626 295.767 147.731 295.767 147.842V207.348C295.767 207.459 295.724 207.564 295.647 207.643C295.57 207.722 295.465 207.767 295.355 207.77ZM148.978 206.927H294.934V148.244H148.978V206.927Z" fill="#231F20"/>
<path d="M303.21 137.817H140.693V147.823H303.21V137.817Z" fill="white"/>
<path d="M303.219 148.244H140.692C140.582 148.242 140.478 148.196 140.401 148.118C140.324 148.039 140.28 147.933 140.281 147.823V137.817C140.28 137.707 140.324 137.601 140.401 137.522C140.478 137.444 140.582 137.398 140.692 137.396H303.219C303.33 137.398 303.434 137.444 303.511 137.522C303.588 137.601 303.631 137.707 303.631 137.817V147.823C303.631 147.933 303.588 148.039 303.511 148.118C303.434 148.196 303.33 148.242 303.219 148.244ZM141.114 147.402H302.798V138.247H141.114V147.402Z" fill="#231F20"/>
<path d="M247.182 85.2312C247.182 85.2312 241.964 88.4903 242.339 89.4791C242.715 90.4678 245.214 90.3946 245.214 90.3946" fill="white"/>
<path d="M245.022 90.7883C244.289 90.7883 242.376 90.6876 241.964 89.6165C241.552 88.5453 244.436 86.458 246.972 84.9017C247.017 84.8734 247.067 84.8543 247.119 84.8455C247.172 84.8366 247.226 84.8382 247.278 84.8501C247.329 84.862 247.378 84.884 247.422 84.9149C247.465 84.9457 247.502 84.9848 247.53 85.0299C247.558 85.0749 247.578 85.1251 247.586 85.1776C247.595 85.2301 247.594 85.2838 247.582 85.3356C247.57 85.3875 247.548 85.4365 247.517 85.4798C247.486 85.5232 247.447 85.5601 247.402 85.5883C244.894 87.1446 242.751 88.8841 242.724 89.3784C242.907 89.827 244.317 90.0193 245.205 89.9827C245.313 89.9802 245.417 90.02 245.496 90.0936C245.574 90.1672 245.621 90.2687 245.626 90.3763C245.628 90.4841 245.589 90.5885 245.515 90.6672C245.441 90.7459 245.34 90.7927 245.232 90.7974L245.022 90.7883Z" fill="#231F20"/>
<path d="M249.819 77.2847C249.819 77.2847 243.841 87.2818 244.326 93.0311C244.811 98.7804 251.897 98.3318 251.897 98.3318L250.844 105.454C250.844 105.454 260.237 105.83 260.237 105.454C260.237 105.079 263.716 87.4283 263.487 82.5671C263.258 77.7058 252.547 75.9206 249.819 77.2847Z" fill="white"/>
<path d="M257.5 106.04C256.081 106.04 253.984 106.04 250.863 105.866C250.804 105.866 250.747 105.853 250.695 105.828C250.642 105.803 250.596 105.766 250.56 105.72C250.524 105.674 250.496 105.621 250.481 105.565C250.465 105.508 250.461 105.449 250.469 105.39L251.384 98.7531C249.691 98.7531 244.28 98.2221 243.877 93.0679C243.42 87.2454 249.215 77.5046 249.462 77.0651C249.506 76.9996 249.566 76.9461 249.636 76.9095C251.668 75.8933 257.417 76.4701 260.997 78.5665C262.828 79.656 263.872 81.0384 263.945 82.5672C264.128 86.4947 261.967 98.3961 261.043 103.477C260.851 104.53 260.695 105.363 260.686 105.473C260.673 105.585 260.625 105.691 260.548 105.775C260.457 105.866 260.274 106.04 257.5 106.04ZM251.357 105.043C255.019 105.18 258.928 105.253 259.889 105.134C259.935 104.859 260.036 104.347 260.219 103.303C261.061 98.7256 263.286 86.4123 263.112 82.5855C263.039 81.0292 261.693 79.9215 260.567 79.2715C257.198 77.2848 251.86 76.8454 250.112 77.587C249.471 78.6947 244.299 87.7489 244.71 92.9855C245.122 98.2221 251.568 97.92 251.842 97.9017C251.903 97.897 251.965 97.9061 252.022 97.9283C252.08 97.9506 252.131 97.9853 252.173 98.0301C252.216 98.0749 252.247 98.1285 252.266 98.1871C252.285 98.2457 252.29 98.3077 252.282 98.3686L251.357 105.043Z" fill="#231F20"/>
<path d="M269.429 83.1165C269.145 79.2073 264.622 76.708 261.528 75.1883C260.127 74.5017 258.507 74.1172 257.161 73.3573C256.786 73.1559 256.301 73.22 256.063 72.7989C255.587 71.9658 256.932 70.6658 254.973 70.794C252.465 70.9588 248.565 71.9841 248.336 75.0876C248.171 77.6052 250.982 78.539 252.849 79.4728C254.973 80.5348 254.442 83.7115 253.38 89.7721C252.318 95.8326 255.065 98.0115 255.065 98.0115L261.647 99.3756C261.647 99.3756 269.886 89.2502 269.429 83.1165Z" fill="white"/>
<path d="M261.647 99.8149H261.565L254.973 98.4509C254.911 98.4329 254.852 98.405 254.799 98.3685C254.68 98.2678 251.879 95.9424 252.968 89.7171C254.058 83.4917 254.451 80.7544 252.666 79.8664L251.906 79.5002C250.075 78.5847 247.759 77.5594 247.915 75.0784C248.116 71.9566 251.677 70.6108 254.946 70.3911C255.178 70.3439 255.418 70.3499 255.648 70.4085C255.878 70.4672 256.092 70.577 256.273 70.7298C256.387 70.8984 256.46 71.0912 256.487 71.2929C256.514 71.4946 256.494 71.6998 256.429 71.8925C256.355 72.1279 256.355 72.3803 256.429 72.6157C256.484 72.7164 256.594 72.753 256.85 72.8263C257.028 72.8655 257.2 72.9271 257.363 73.0094C258.11 73.3945 258.884 73.7249 259.679 73.9981C260.37 74.2379 261.048 74.5129 261.711 74.822C265.373 76.5981 269.557 79.1523 269.85 83.0615C270.308 89.2959 262.315 99.2199 261.977 99.641C261.939 99.6933 261.889 99.7362 261.832 99.7664C261.775 99.7966 261.712 99.8132 261.647 99.8149ZM255.239 97.6452L261.464 98.9361C262.59 97.4896 269.401 88.5819 268.998 83.1439C268.733 79.6284 264.76 77.2481 261.317 75.5636C260.681 75.2651 260.031 74.9993 259.367 74.7671C258.533 74.4853 257.722 74.1394 256.941 73.7326C256.835 73.6864 256.725 73.6496 256.612 73.6228C256.425 73.592 256.247 73.5223 256.09 73.4181C255.932 73.314 255.798 73.1779 255.696 73.0185C255.502 72.6162 255.466 72.1553 255.596 71.7277C255.634 71.5814 255.649 71.4301 255.641 71.2791C255.641 71.2791 255.522 71.1784 254.991 71.2242C253.984 71.2883 248.958 71.7918 248.748 75.1242C248.62 77.0284 250.579 77.9347 252.254 78.7312L253.032 79.1065C255.449 80.315 254.863 83.684 253.783 89.8544C252.886 95.0269 254.863 97.2607 255.257 97.6452H255.239Z" fill="#231F20"/>
<path d="M251.677 88.179C252.528 87.2138 253.636 86.5118 254.872 86.1558C256.136 85.9361 257.665 86.76 257.665 88.0417C257.646 88.4224 257.553 88.7957 257.39 89.1403C256.858 90.3324 256.052 91.3827 255.039 92.2064C254.026 93.0302 252.834 93.6043 251.558 93.8825" fill="white"/>
<path d="M251.558 94.3037C251.464 94.3035 251.372 94.2707 251.298 94.2106C251.225 94.1506 251.174 94.0671 251.156 93.9742C251.142 93.9206 251.14 93.8648 251.149 93.8103C251.158 93.7558 251.178 93.7037 251.208 93.6573C251.238 93.611 251.278 93.5713 251.324 93.5407C251.37 93.5102 251.422 93.4894 251.476 93.4798C252.681 93.209 253.805 92.6597 254.759 91.8759C255.713 91.0921 256.47 90.0956 256.969 88.9664C257.111 88.6804 257.194 88.3694 257.216 88.0509C257.206 87.8568 257.155 87.667 257.065 87.4948C256.974 87.3225 256.848 87.1718 256.694 87.053C256.445 86.8555 256.158 86.7112 255.851 86.6293C255.544 86.5474 255.223 86.5296 254.909 86.577C253.757 86.923 252.726 87.5861 251.934 88.4904C251.896 88.5369 251.849 88.5749 251.795 88.6018C251.742 88.6287 251.683 88.6438 251.624 88.6463C251.564 88.6487 251.504 88.6384 251.449 88.616C251.393 88.5936 251.343 88.5596 251.302 88.5163C251.26 88.473 251.229 88.4214 251.209 88.3649C251.189 88.3084 251.182 88.2483 251.187 88.1887C251.192 88.1291 251.21 88.0713 251.239 88.0191C251.269 87.9669 251.309 87.9216 251.357 87.8861C252.261 86.8602 253.445 86.1191 254.763 85.7531C255.198 85.6821 255.643 85.7042 256.069 85.8178C256.495 85.9314 256.892 86.134 257.234 86.4122C257.483 86.6078 257.686 86.8563 257.826 87.1397C257.967 87.4232 258.043 87.7344 258.049 88.0509C258.034 88.4891 257.928 88.9193 257.738 89.3143C257.181 90.5687 256.336 91.6742 255.272 92.5411C254.208 93.4079 252.954 94.0118 251.613 94.3037H251.558Z" fill="#231F20"/>
<path d="M248.098 209.134C248.248 210.457 247.955 211.794 247.265 212.933C246.139 214.618 246.395 219.515 246.395 219.515H256.749C256.749 219.515 257.033 213.574 256.374 212.722C255.715 211.871 255.458 212.585 255.266 211.551C255.266 210.335 255.445 209.126 255.797 207.962L248.098 209.134Z" fill="#231F20"/>
<path d="M256.768 219.918H246.413C246.31 219.916 246.212 219.876 246.137 219.804C246.062 219.733 246.017 219.637 246.01 219.534C246.01 219.332 245.763 214.48 246.926 212.713C247.554 211.652 247.82 210.415 247.686 209.189C247.673 209.085 247.701 208.979 247.764 208.896C247.827 208.812 247.921 208.756 248.025 208.74L255.724 207.568C255.791 207.556 255.86 207.562 255.924 207.584C255.988 207.607 256.045 207.645 256.09 207.696C256.136 207.746 256.168 207.807 256.183 207.873C256.197 207.939 256.194 208.008 256.172 208.072C255.832 209.175 255.656 210.323 255.651 211.477C255.706 211.761 255.751 211.825 255.76 211.825C256.134 211.925 256.459 212.156 256.676 212.475C257.372 213.391 257.198 218.106 257.134 219.534C257.13 219.631 257.09 219.724 257.023 219.795C256.956 219.866 256.865 219.909 256.768 219.918ZM246.807 219.113H256.337C256.447 216.412 256.337 213.4 256.035 212.97C255.985 212.882 255.918 212.805 255.838 212.744C255.757 212.683 255.666 212.638 255.568 212.613C255.193 212.494 254.982 212.311 254.854 211.624C254.8 210.554 254.927 209.484 255.229 208.456L248.51 209.482C248.592 210.768 248.272 212.048 247.594 213.144C246.825 214.343 246.752 217.565 246.807 219.113Z" fill="#231F20"/>
<path d="M217.786 208.355C217.786 208.355 217.292 211.615 216.239 212.265C215.186 212.915 209.959 213.436 209.565 214.617C209.358 215.912 209.358 217.232 209.565 218.527H225.476V207.348L217.786 208.355Z" fill="#231F20"/>
<path d="M225.476 218.929H209.565C209.468 218.93 209.374 218.895 209.302 218.831C209.229 218.767 209.182 218.678 209.171 218.582C208.948 217.227 208.948 215.844 209.171 214.489C209.464 213.574 211.121 213.171 213.611 212.603C214.432 212.46 215.236 212.233 216.01 211.926C216.669 211.523 217.2 209.482 217.374 208.264C217.39 208.178 217.432 208.1 217.494 208.039C217.556 207.979 217.636 207.939 217.722 207.925L225.421 206.918C225.477 206.912 225.534 206.917 225.588 206.935C225.641 206.952 225.691 206.981 225.732 207.019C225.777 207.055 225.812 207.102 225.836 207.154C225.86 207.206 225.872 207.263 225.87 207.321V218.563C225.861 218.662 225.816 218.754 225.743 218.822C225.67 218.889 225.575 218.928 225.476 218.929ZM209.913 218.124H225.064V207.806L218.125 208.722C217.969 209.637 217.456 211.99 216.44 212.622C215.593 212.988 214.705 213.249 213.794 213.4C212.504 213.693 210.132 214.242 209.94 214.755C209.751 215.869 209.745 217.007 209.922 218.124H209.913Z" fill="#231F20"/>
<path d="M247.283 210.516H256.768L269.2 166.005L249.718 161.83L247.283 210.516Z" fill="white"/>
<path d="M256.767 210.937H247.283C247.168 210.933 247.06 210.883 246.981 210.8C246.943 210.76 246.914 210.712 246.895 210.66C246.876 210.608 246.868 210.553 246.871 210.498L249.306 161.803C249.308 161.743 249.323 161.684 249.35 161.63C249.376 161.576 249.415 161.529 249.462 161.492C249.511 161.455 249.568 161.43 249.628 161.417C249.688 161.405 249.75 161.405 249.81 161.418L269.291 165.593C269.347 165.604 269.4 165.626 269.446 165.659C269.492 165.693 269.53 165.736 269.557 165.785C269.587 165.832 269.606 165.885 269.614 165.941C269.622 165.996 269.618 166.052 269.603 166.106L257.17 210.617C257.147 210.707 257.095 210.786 257.022 210.844C256.95 210.902 256.86 210.934 256.767 210.937ZM247.722 210.095H256.447L268.678 166.325L250.112 162.343L247.722 210.095Z" fill="#231F20"/>
<path d="M247.805 153.829C247.805 153.829 228.58 158.177 222.171 162.7C219.425 164.641 217.099 210.003 217.099 210.003L225.568 211.029C225.568 211.029 233.203 174.006 236.196 172.789C239.19 171.571 254.799 172.093 254.799 172.093C254.799 172.093 259.807 158.553 247.805 153.829Z" fill="white"/>
<path d="M225.549 211.45H225.494L217.035 210.425C216.93 210.411 216.834 210.358 216.766 210.277C216.698 210.195 216.664 210.091 216.669 209.985C216.669 209.875 217.255 198.505 218.161 187.052C219.992 163.689 221.402 162.727 221.915 162.334C228.323 157.811 246.926 153.573 247.713 153.399C247.793 153.371 247.88 153.371 247.96 153.399C260.201 158.205 255.211 172.056 255.156 172.194C255.122 172.273 255.066 172.34 254.994 172.389C254.923 172.438 254.84 172.465 254.753 172.468C254.598 172.468 239.19 171.956 236.315 173.127C234.311 173.951 228.9 196.839 225.961 211.065C225.95 211.168 225.903 211.264 225.827 211.334C225.751 211.405 225.653 211.446 225.549 211.45ZM217.52 209.619L225.22 210.534C226.666 203.531 233.047 173.585 235.995 172.368C238.943 171.15 252.181 171.562 254.47 171.626C255.183 169.388 255.493 167.042 255.385 164.696C255.343 162.385 254.592 160.142 253.235 158.271C251.878 156.4 249.979 154.99 247.796 154.232C246.12 154.616 228.47 158.809 222.409 163.011C220.514 164.357 218.418 192.142 217.52 209.628V209.619Z" fill="#231F20"/>
<path d="M285.157 123.572C285.157 123.572 291.803 134.402 291.419 136.874C291.034 139.346 286.979 139.849 277.329 140.124L271.196 122.135L285.157 123.572Z" fill="white"/>
<path d="M277.329 140.536C277.242 140.538 277.156 140.511 277.085 140.46C277.014 140.409 276.962 140.336 276.936 140.252L270.802 122.272C270.78 122.206 270.776 122.135 270.788 122.066C270.801 121.998 270.83 121.933 270.874 121.879C270.917 121.825 270.974 121.782 271.038 121.754C271.102 121.727 271.172 121.716 271.241 121.723L285.203 123.16C285.266 123.166 285.327 123.186 285.381 123.22C285.435 123.253 285.48 123.298 285.514 123.352C286.2 124.478 292.234 134.384 291.831 136.938C291.373 139.822 286.85 140.271 277.339 140.536H277.329ZM271.836 122.62L277.65 139.694C286.631 139.428 290.696 138.934 291.034 136.81C291.3 135.126 287.574 128.278 284.937 123.993L271.836 122.62Z" fill="#231F20"/>
<path d="M224.853 125.183C224.853 125.183 215.982 137.002 217.2 138.742C218.418 140.481 238.421 140.133 238.421 140.133L240.151 125.183H224.853Z" fill="white"/>
<path d="M233.706 140.554C227.243 140.554 217.813 140.316 216.861 138.943C215.561 137.112 222.354 127.719 224.515 124.89C224.555 124.839 224.606 124.797 224.665 124.769C224.724 124.74 224.788 124.726 224.854 124.726H240.151C240.212 124.724 240.271 124.735 240.327 124.759C240.382 124.782 240.432 124.818 240.472 124.863C240.545 124.956 240.581 125.074 240.572 125.192L238.833 140.142C238.822 140.244 238.773 140.337 238.697 140.405C238.621 140.472 238.523 140.509 238.421 140.509C237.332 140.527 235.656 140.554 233.706 140.554ZM225.064 125.559C220.926 131.097 216.907 137.552 217.539 138.458C218.17 139.364 228.442 139.831 238.046 139.685L239.684 125.559H225.064Z" fill="#231F20"/>
<path d="M271.196 101.655C271.196 101.655 247.722 98.5242 241.461 101.655C235.199 104.786 222.153 127.225 222.153 127.225L238.632 131.372L236.032 166.161C236.032 166.161 237.075 172.102 256.172 172.102C275.27 172.102 275.398 169.759 275.398 169.759C275.398 169.759 279.838 142.623 278.272 128.012L287.427 125.156C287.427 125.156 282.42 107.139 271.196 101.655Z" fill="#E54B4B"/>
<path d="M254.103 113.602H262.343C267.61 113.593 272.666 115.675 276.398 119.392C280.13 123.109 282.233 128.155 282.246 133.423V153.792H234.246V133.423C234.259 128.163 236.356 123.123 240.078 119.408C243.8 115.693 248.844 113.605 254.103 113.602Z" fill="#231F20"/>
<path d="M282.246 154.232H234.246C234.193 154.233 234.139 154.223 234.089 154.204C234.04 154.184 233.994 154.155 233.956 154.117C233.917 154.08 233.887 154.035 233.866 153.985C233.845 153.936 233.834 153.883 233.834 153.829V133.468C233.842 128.095 235.98 122.944 239.779 119.144C243.579 115.345 248.73 113.207 254.103 113.199H262.343C267.717 113.204 272.87 115.341 276.67 119.141C280.47 122.942 282.607 128.094 282.612 133.468V153.829C282.612 153.93 282.575 154.027 282.507 154.102C282.439 154.176 282.346 154.223 282.246 154.232ZM234.64 153.426H281.834V133.468C281.826 128.309 279.773 123.362 276.125 119.714C272.476 116.065 267.53 114.012 262.37 114.005H254.131C248.972 114.012 244.027 116.066 240.38 119.714C236.732 123.363 234.682 128.309 234.677 133.468L234.64 153.426Z" fill="#231F20"/>
<path d="M276.148 171.397H237.387C235.652 171.397 234.246 172.803 234.246 174.537V175.563C234.246 177.297 235.652 178.703 237.387 178.703H276.148C277.883 178.703 279.289 177.297 279.289 175.563V174.537C279.289 172.803 277.883 171.397 276.148 171.397Z" fill="#231F20"/>
<path d="M276.148 179.106H237.377C236.438 179.106 235.537 178.732 234.872 178.068C234.208 177.403 233.834 176.502 233.834 175.563V174.537C233.834 173.598 234.208 172.697 234.872 172.032C235.537 171.368 236.438 170.994 237.377 170.994H276.148C277.088 170.994 277.989 171.368 278.654 172.032C279.318 172.697 279.691 173.598 279.691 174.537V175.535C279.695 176.003 279.606 176.466 279.43 176.899C279.253 177.332 278.993 177.726 278.663 178.058C278.334 178.39 277.942 178.654 277.511 178.833C277.079 179.013 276.616 179.106 276.148 179.106ZM237.377 171.782C236.649 171.782 235.95 172.071 235.435 172.586C234.92 173.101 234.631 173.8 234.631 174.528V175.535C234.631 176.264 234.92 176.962 235.435 177.477C235.95 177.992 236.649 178.282 237.377 178.282H276.148C276.877 178.282 277.575 177.992 278.09 177.477C278.606 176.962 278.895 176.264 278.895 175.535V174.51C278.895 173.781 278.606 173.083 278.09 172.568C277.575 172.053 276.877 171.763 276.148 171.763L237.377 171.782Z" fill="#231F20"/>
<path d="M258.241 137.487C258.241 137.487 260.155 151.394 258.241 160.091C256.328 168.788 252.327 173.704 252.327 173.704H259.084C261.81 169.005 263.755 163.894 264.842 158.571C266.582 149.874 264.842 137.515 264.842 137.515L258.241 137.487Z" fill="#231F20"/>
<path d="M259.084 174.061H252.318C252.242 174.06 252.168 174.038 252.104 173.997C252.039 173.957 251.987 173.9 251.952 173.832C251.919 173.763 251.907 173.685 251.917 173.609C251.926 173.533 251.958 173.461 252.007 173.402C254.89 169.394 256.882 164.814 257.848 159.972C259.725 151.449 257.848 137.643 257.848 137.506C257.838 137.39 257.874 137.275 257.948 137.185C257.985 137.141 258.031 137.105 258.084 137.081C258.136 137.058 258.193 137.046 258.251 137.048H264.86C264.958 137.047 265.053 137.082 265.127 137.146C265.202 137.21 265.25 137.299 265.263 137.396C265.263 137.515 266.984 149.911 265.263 158.571C264.163 163.939 262.2 169.093 259.45 173.832C259.417 173.901 259.365 173.96 259.3 174C259.235 174.041 259.16 174.062 259.084 174.061ZM253.124 173.256H258.855C261.486 168.646 263.374 163.65 264.448 158.452C265.986 150.725 264.751 139.95 264.448 137.89H258.653C258.965 140.371 260.301 152.401 258.589 160.182C257.642 164.855 255.789 169.296 253.133 173.256H253.124Z" fill="#231F20"/>
<path d="M238.595 176.533L234.246 224.523H237.551L243.804 175.05L238.595 176.533Z" fill="#231F20"/>
<path d="M237.551 224.972H234.246C234.19 224.972 234.135 224.96 234.083 224.938C234.032 224.915 233.986 224.882 233.948 224.841C233.91 224.8 233.881 224.751 233.863 224.698C233.845 224.644 233.839 224.588 233.844 224.532L238.192 176.533C238.198 176.452 238.228 176.374 238.279 176.31C238.329 176.247 238.398 176.2 238.476 176.176L243.694 174.702C243.759 174.681 243.827 174.677 243.893 174.692C243.959 174.706 244.02 174.738 244.07 174.784C244.121 174.827 244.161 174.883 244.185 174.945C244.209 175.008 244.216 175.075 244.207 175.142L237.945 224.578C237.943 224.682 237.901 224.78 237.827 224.854C237.754 224.927 237.655 224.969 237.551 224.972ZM234.686 224.166H237.194L243.328 175.645L238.943 176.844L234.686 224.166Z" fill="#231F20"/>
<path d="M274.418 176.533L278.767 224.523H275.462L269.2 175.05L274.418 176.533Z" fill="#231F20"/>
<path d="M278.767 224.972H275.462C275.363 224.97 275.268 224.934 275.194 224.868C275.12 224.802 275.072 224.713 275.059 224.615L268.797 175.178C268.788 175.112 268.795 175.044 268.819 174.982C268.843 174.919 268.883 174.864 268.934 174.821C268.984 174.775 269.045 174.743 269.111 174.728C269.177 174.714 269.246 174.717 269.31 174.739L274.528 176.213C274.606 176.237 274.676 176.284 274.728 176.347C274.78 176.411 274.812 176.488 274.821 176.57L279.17 224.569C279.175 224.624 279.168 224.68 279.149 224.732C279.13 224.784 279.099 224.832 279.06 224.871C279.02 224.906 278.974 224.933 278.923 224.951C278.873 224.968 278.82 224.975 278.767 224.972ZM275.819 224.166H278.309L274.034 176.881L269.667 175.645L275.819 224.166Z" fill="#231F20"/>
<path d="M244.299 93.0311C244.524 93.2644 244.801 93.4428 245.106 93.5526C245.412 93.6624 245.739 93.7006 246.062 93.6644C246.384 93.6281 246.694 93.5183 246.968 93.3435C247.242 93.1686 247.472 92.9334 247.64 92.6558" fill="white"/>
<path d="M245.901 94.1114C245.2 94.0753 244.533 93.797 244.015 93.3241C243.937 93.2501 243.892 93.1482 243.889 93.0409C243.887 92.9336 243.927 92.8296 244.001 92.7519C244.075 92.6742 244.177 92.6291 244.284 92.6266C244.392 92.624 244.495 92.6642 244.573 92.7382C244.974 93.1012 245.497 93.3004 246.038 93.2967C246.305 93.2478 246.557 93.1403 246.777 92.982C246.997 92.8237 247.179 92.6185 247.311 92.3812C247.374 92.2938 247.469 92.235 247.575 92.2178C247.682 92.2007 247.791 92.2265 247.878 92.2896C247.966 92.3527 248.024 92.448 248.041 92.5545C248.059 92.6609 248.033 92.7698 247.97 92.8572C247.771 93.1803 247.505 93.456 247.188 93.6648C246.872 93.8736 246.514 94.0105 246.139 94.0657L245.901 94.1114Z" fill="#231F20"/>
<path d="M250.044 83.3224C250.216 82.6778 250.127 82.0936 249.844 82.0177C249.56 81.9418 249.191 82.4029 249.018 83.0476C248.845 83.6922 248.935 84.2764 249.218 84.3523C249.501 84.4282 249.871 83.9671 250.044 83.3224Z" fill="#231F20"/>
<path d="M85.1406 54.4433C85.0324 53.3532 85.2901 52.2581 85.873 51.3306C86.5321 50.4701 87.9969 50.1588 88.6927 51.001C88.418 49.0785 90.0384 47.2841 91.906 46.7715C93.8181 46.3887 95.8024 46.6227 97.5729 47.4398C99.3419 48.2575 101.18 48.9162 103.066 49.4081C104.006 49.6479 104.989 49.6566 105.933 49.4334C106.877 49.2102 107.753 48.7618 108.486 48.1264C108.486 50.4243 108.486 52.9144 107.012 54.7088C105.81 56.0237 104.195 56.8892 102.434 57.1623C100.704 57.5376 98.9187 57.6383 97.2067 58.0778C96.5384 58.27 95.7969 58.5996 95.6046 59.2588C95.5341 59.778 95.607 60.3067 95.8152 60.7876C96.0737 61.8356 95.9911 62.9386 95.5795 63.9364C95.1678 64.9342 94.4486 65.7746 93.5265 66.3355C86.2025 70.5742 85.1863 58.5721 85.1406 54.4433Z" fill="white"/>
<path d="M90.6793 67.7088C90.0353 67.7048 89.4038 67.5311 88.8483 67.2052C85.0216 65.0264 84.7561 56.2193 84.7469 54.4524C84.6319 53.2599 84.9222 52.0633 85.5709 51.056C85.8131 50.7517 86.1189 50.504 86.4667 50.33C86.8146 50.1561 87.1962 50.0602 87.585 50.0489C87.8238 50.0444 88.0618 50.0784 88.2899 50.1496C88.4631 49.2422 88.8893 48.4023 89.5195 47.7268C90.1496 47.0513 90.9579 46.5678 91.8511 46.332C93.8569 45.9336 95.937 46.1704 97.8018 47.0095C98.3145 47.2109 98.8272 47.4306 99.3399 47.6412C100.567 48.2094 101.85 48.6511 103.167 48.9595C104.032 49.1901 104.941 49.2055 105.814 49.0045C106.687 48.8034 107.497 48.392 108.174 47.806C108.238 47.7401 108.32 47.6948 108.409 47.6758C108.499 47.6569 108.592 47.6652 108.676 47.6997C108.761 47.7342 108.834 47.7932 108.884 47.8693C108.935 47.9454 108.962 48.0349 108.962 48.1264C108.962 50.6898 108.87 53.1433 107.387 54.9926C106.118 56.3967 104.405 57.3212 102.535 57.6109C101.784 57.7665 101.024 57.8855 100.292 57.9862C99.293 58.1131 98.3025 58.2996 97.3258 58.5447C96.5842 58.7553 96.154 59.0482 96.0441 59.4144C95.9963 59.7555 96.0405 60.1032 96.1723 60.4214L96.2547 60.6961C96.547 61.842 96.4617 63.0518 96.0114 64.1453C95.5611 65.2389 94.7699 66.158 93.7554 66.7658C92.8311 67.3458 91.7699 67.6711 90.6793 67.7088ZM87.585 50.9644C87.3328 50.9719 87.0852 51.0339 86.8592 51.1461C86.6332 51.2583 86.4342 51.4181 86.2758 51.6144C85.7644 52.4641 85.5427 53.4568 85.6441 54.4433C85.6441 59.0207 86.6512 64.9073 89.3061 66.4179C90.3772 67.0313 91.723 66.8848 93.2976 65.9693C94.1377 65.4634 94.7931 64.701 95.1672 63.7945C95.5413 62.888 95.6144 61.8853 95.3758 60.9341L95.3025 60.6778C95.1087 60.1988 95.0609 59.6733 95.1652 59.1672C95.3666 58.4531 95.9983 57.9679 97.0878 57.6658C98.1004 57.4088 99.1276 57.2132 100.164 57.0799C100.878 56.9792 101.629 56.8693 102.343 56.7137C104.006 56.4704 105.535 55.6622 106.673 54.425C107.799 53.0243 108.019 51.1292 108.046 49.0877C106.522 49.9813 104.714 50.2565 102.993 49.8567C101.613 49.5372 100.269 49.0771 98.9828 48.4835C98.4793 48.2729 97.9758 48.0623 97.4723 47.8701C95.2659 47.0187 93.554 46.8081 92.0892 47.2109C90.6244 47.6137 88.9124 49.1975 89.1688 50.9278C89.1828 51.0276 89.1635 51.1293 89.1138 51.2171C89.0642 51.3048 88.9869 51.3737 88.8941 51.413C88.8048 51.4541 88.7045 51.4647 88.6085 51.4432C88.5126 51.4217 88.4264 51.3693 88.3631 51.294C88.2667 51.184 88.1466 51.0971 88.0118 51.0401C87.877 50.983 87.7311 50.9571 87.585 50.9644Z" fill="#231F20"/>
<path d="M111.543 79.8665C111.543 79.8665 126.374 105.757 128.37 110.307C130.366 114.856 121.55 125.357 118.144 122.803C114.738 120.249 111.543 79.8665 111.543 79.8665Z" fill="#231F20"/>
<path d="M83.1082 214.901C83.1082 214.901 82.5223 218.71 83.4011 220.175C84.5869 222.233 85.2882 224.534 85.4518 226.903C84.75 227.688 83.8929 228.319 82.9348 228.755C81.9767 229.192 80.9384 229.425 79.8857 229.439C76.3793 229.439 72.8639 226.803 72.4702 225.539C72.0765 224.276 75.2991 210.809 75.2991 210.809L83.1082 214.901Z" fill="#231F20"/>
<path d="M107.286 122.611L90.3772 127.298L86.4589 78.4016C86.4589 78.4016 100.466 75.0875 103.853 76.6438C107.241 78.2001 107.286 122.611 107.286 122.611Z" fill="#231F20"/>
<path d="M90.3772 127.756C90.2851 127.756 90.1953 127.728 90.1209 127.673C90.065 127.635 90.0182 127.584 89.9834 127.526C89.9487 127.467 89.9269 127.402 89.9194 127.335L86.0561 78.4383C86.0468 78.3303 86.0769 78.2226 86.1408 78.1351C86.2048 78.0476 86.2982 77.9862 86.404 77.9623C86.9807 77.8249 100.594 74.6207 104.082 76.232C107.57 77.8433 107.744 115.149 107.744 122.611C107.744 122.71 107.712 122.806 107.652 122.885C107.593 122.965 107.51 123.022 107.414 123.05L90.4962 127.737L90.3772 127.756ZM86.9716 78.7587L90.8166 126.712L106.856 122.272C106.856 100.978 105.693 77.9897 103.679 77.0651C101.079 75.875 91.073 77.8066 86.9716 78.7587Z" fill="#231F20"/>
<path d="M101.619 206.103V217.556L107.112 219.113L106.984 216.769L109.456 219.241C109.456 219.241 124.104 221.877 124.058 219.927C124.012 217.977 122.502 216.906 120.643 215.927C118.785 214.947 113.429 211.926 113.429 211.926L112.642 203.54" fill="#231F20"/>
<path d="M75.4181 127.234L70.9139 214.123C70.9139 214.123 71.3442 217.3 78.2378 217.694C85.1314 218.087 84.4448 216.467 84.4448 216.467L95.211 152.73L99.6328 209.344L114.519 210.26L111.562 121.018L75.4181 127.234Z" fill="white"/>
<path d="M80.2519 218.169C79.6293 218.169 78.961 218.169 78.2195 218.105C71.0603 217.703 70.5202 214.324 70.5019 214.178L74.9969 127.206C75.0017 127.111 75.0388 127.02 75.102 126.949C75.1652 126.877 75.2508 126.829 75.3448 126.813L111.47 120.606C111.528 120.598 111.588 120.602 111.644 120.617C111.701 120.633 111.754 120.66 111.8 120.697C111.848 120.733 111.888 120.78 111.915 120.834C111.942 120.888 111.956 120.948 111.955 121.008L114.912 210.241C114.917 210.3 114.908 210.359 114.888 210.414C114.867 210.47 114.835 210.52 114.793 210.562C114.705 210.64 114.591 210.683 114.473 210.681L99.587 209.765C99.4855 209.761 99.3892 209.719 99.3166 209.648C99.2439 209.577 99.2 209.482 99.1934 209.381L95.037 156.154L84.8659 216.448C84.9 216.684 84.8409 216.924 84.7011 217.117C84.2251 217.822 82.742 218.169 80.2519 218.169ZM71.335 214.141C71.335 214.141 71.9301 216.888 78.2652 217.272C82.6047 217.519 83.6941 216.952 83.9688 216.695C84.006 216.669 84.0321 216.63 84.042 216.586C84.0188 216.524 84.0188 216.455 84.042 216.393L94.7807 152.648C94.7964 152.547 94.8492 152.455 94.9287 152.391C95.0083 152.327 95.1089 152.294 95.211 152.3C95.3139 152.304 95.4115 152.347 95.4844 152.42C95.5572 152.493 95.6002 152.591 95.6046 152.694L99.999 208.941L114.07 209.811L111.141 121.521L75.8209 127.591L71.335 214.141Z" fill="#231F20"/>
<path d="M89.8096 74.3003C89.8096 74.3003 95.3025 132.745 92.7025 136.123C90.1026 139.501 74.0723 142.184 72.8822 135.62C70.9139 124.844 71.9667 86.1101 74.3195 82.4665C83.6575 74.3918 89.8096 74.3003 89.8096 74.3003Z" fill="#E54B4B"/>
<path d="M111.543 79.8665C111.543 79.8665 119.783 133.459 118.263 135.016C116.743 136.572 104.869 138 102.535 136.453C100.2 134.906 100.31 74.0073 100.31 74.0073C104.518 74.9023 108.402 76.9281 111.543 79.8665Z" fill="#E54B4B"/>
<path d="M99.8617 72.9453L100.045 79.6009C100.045 79.6009 99.2574 82.6678 94.7807 81.7523C90.304 80.8368 89.5258 77.8065 89.5258 77.8065L89.6356 65.3833C89.6356 65.3833 91.9885 61.1995 90.7617 54.0862C90.7617 54.0862 96.9962 54.9467 104.494 55.5143C104.494 55.5143 105.043 65.1453 104.631 68.6059C104.219 72.0664 99.8617 72.9453 99.8617 72.9453Z" fill="white"/>
<path d="M96.337 82.384C95.7828 82.3806 95.2305 82.3192 94.6891 82.2009C89.9743 81.2854 89.1138 78.0537 89.0863 77.9164C89.0819 77.8799 89.0819 77.843 89.0863 77.8065L89.1962 65.3741C89.1958 65.2975 89.2147 65.2219 89.2511 65.1544C89.2511 65.1544 91.5124 61.0164 90.3314 54.1685C90.3176 54.0982 90.3213 54.0255 90.342 53.9569C90.3627 53.8883 90.4 53.8258 90.4504 53.7749C90.5009 53.7231 90.5627 53.6837 90.6311 53.6598C90.6994 53.636 90.7723 53.6284 90.8441 53.6376C90.9081 53.6376 97.1518 54.5073 104.576 55.0657C104.687 55.0744 104.79 55.1228 104.868 55.2019C104.945 55.281 104.991 55.3855 104.998 55.496C104.998 55.8897 105.547 65.2094 105.135 68.6699C104.76 71.8284 101.473 73.0002 100.383 73.3114L100.557 79.6009C100.562 79.6435 100.562 79.6864 100.557 79.729C100.557 79.729 99.7884 82.384 96.337 82.384ZM89.9835 77.7424C90.1117 78.1269 91.0088 80.4889 94.8722 81.3037C98.5342 82.0635 99.4497 79.9304 99.5778 79.5459L99.4039 73.0002C99.3995 72.8915 99.434 72.7849 99.5011 72.6994C99.5682 72.6138 99.6635 72.5549 99.7701 72.5333C99.7701 72.5333 103.798 71.6727 104.174 68.5875C104.549 65.5023 104.174 57.8305 104.055 55.9812C98.1405 55.5143 93.0687 54.8826 91.311 54.6538C92.2264 60.9432 90.4504 64.834 90.0934 65.5298L89.9835 77.7424Z" fill="#231F20"/>
<path d="M91.723 64.9531C91.5533 64.3448 91.1861 63.8102 90.6793 63.4334C90.196 63.1047 89.6605 62.8602 89.0955 62.7101C88.8057 62.5919 88.4918 62.5448 88.18 62.5728C87.9596 62.6181 87.7489 62.7018 87.5575 62.82C87.0849 63.0717 86.718 63.4841 86.523 63.9827C86.4234 64.401 86.4234 64.8369 86.523 65.2552C86.5817 65.7147 86.7018 66.1642 86.88 66.5918C87.078 67.0138 87.358 67.3922 87.7036 67.705C88.0492 68.0178 88.4536 68.2587 88.8932 68.4138C89.3328 68.5688 89.7989 68.6349 90.2642 68.6081C90.7296 68.5814 91.185 68.4624 91.604 68.258" fill="white"/>
<path d="M90.0659 69.0728C89.6144 69.0728 89.1659 68.9986 88.7384 68.8531C87.7392 68.4934 86.9229 67.7529 86.468 66.7932C86.263 66.3298 86.1243 65.8398 86.0561 65.3376C85.9328 64.8478 85.9328 64.3352 86.0561 63.8454C86.2791 63.2414 86.7155 62.7399 87.2828 62.4355C87.5266 62.2811 87.7965 62.1725 88.0793 62.1151C88.4675 62.0824 88.8582 62.1355 89.2236 62.2707C89.8429 62.432 90.4287 62.7016 90.9539 63.0672C91.5341 63.5072 91.9551 64.1243 92.1532 64.8249C92.1694 64.8851 92.1737 64.9478 92.1657 65.0095C92.1577 65.0713 92.1376 65.1308 92.1065 65.1848C92.0755 65.2388 92.0341 65.2861 91.9848 65.3241C91.9355 65.3621 91.8792 65.39 91.8191 65.4063C91.7589 65.4225 91.6962 65.4267 91.6345 65.4187C91.5727 65.4107 91.5132 65.3906 91.4592 65.3596C91.4052 65.3286 91.3579 65.2872 91.3199 65.2379C91.2819 65.1886 91.254 65.1322 91.2377 65.0721C91.0805 64.5589 90.7588 64.1118 90.3222 63.7996C89.8811 63.4991 89.3919 63.2762 88.8758 63.1404C88.6435 63.0468 88.3933 63.0062 88.1434 63.0214C87.981 63.059 87.8262 63.124 87.6856 63.2137C87.3101 63.4129 87.0155 63.7365 86.8525 64.1292C86.7746 64.4758 86.7746 64.8354 86.8525 65.182C86.9164 65.602 87.0364 66.0116 87.2096 66.3996C87.3812 66.7674 87.6244 67.0974 87.9249 67.3702C88.2253 67.6431 88.5772 67.8534 88.9598 67.9889C89.3424 68.1244 89.7481 68.1824 90.1534 68.1594C90.5586 68.1364 90.9552 68.033 91.3201 67.8552C91.3742 67.8288 91.433 67.8132 91.4931 67.8095C91.5532 67.8058 91.6135 67.8139 91.6704 67.8335C91.7274 67.853 91.7799 67.8836 91.8251 67.9234C91.8702 67.9633 91.907 68.0117 91.9335 68.0658C91.9599 68.1199 91.9755 68.1787 91.9792 68.2388C91.9829 68.2989 91.9748 68.3591 91.9552 68.4161C91.9357 68.473 91.9051 68.5256 91.8653 68.5707C91.8254 68.6159 91.777 68.6527 91.7229 68.6792C91.2056 68.9289 90.6402 69.0632 90.0659 69.0728Z" fill="#231F20"/>
<path d="M101.473 62.4446C101.473 62.4446 104.045 65.7495 103.542 66.3903C103.038 67.0312 101.455 66.7474 101.455 66.7474" fill="white"/>
<path d="M102.233 67.2785C101.944 67.2793 101.656 67.2517 101.372 67.1961C101.253 67.1739 101.148 67.1056 101.08 67.0061C101.011 66.9066 100.985 66.7841 101.006 66.6652C101.03 66.5475 101.099 66.4438 101.198 66.3756C101.297 66.3074 101.418 66.28 101.537 66.299C102.086 66.3997 102.965 66.3905 103.185 66.1067C102.676 64.8795 101.978 63.7396 101.116 62.7285C101.075 62.6815 101.044 62.6266 101.024 62.5671C101.005 62.5076 100.999 62.4448 101.005 62.3826C101.011 62.3204 101.029 62.2601 101.06 62.2055C101.09 62.1508 101.131 62.1029 101.18 62.0647C101.23 62.0265 101.287 61.9988 101.347 61.9834C101.408 61.968 101.471 61.9651 101.533 61.975C101.594 61.9849 101.653 62.0073 101.706 62.0408C101.759 62.0744 101.804 62.1184 101.839 62.1701C103.67 64.5504 104.384 66.0609 103.899 66.6835C103.68 66.8961 103.418 67.0592 103.13 67.1619C102.843 67.2645 102.537 67.3043 102.233 67.2785Z" fill="#231F20"/>
<path d="M99.492 61.9135C99.7976 61.8238 99.9427 61.4011 99.816 60.9693C99.6894 60.5375 99.3389 60.2602 99.0332 60.3498C98.7276 60.4395 98.5825 60.8622 98.7092 61.294C98.8358 61.7258 99.1863 62.0032 99.492 61.9135Z" fill="#231F20"/>
<path d="M103.321 61.6616C103.626 61.5719 103.771 61.1492 103.645 60.7174C103.518 60.2856 103.168 60.0082 102.862 60.0979C102.556 60.1876 102.411 60.6103 102.538 61.0421C102.665 61.4739 103.015 61.7512 103.321 61.6616Z" fill="#231F20"/>
<path d="M102.343 68.4229L99.3307 68.3496C99.3307 68.3496 98.9462 70.4827 100.521 71.0228C102.095 71.563 102.343 68.4229 102.343 68.4229Z" fill="white"/>
<path d="M100.869 71.4989C100.701 71.497 100.534 71.4692 100.374 71.4165C98.8272 70.8856 98.7265 69.0912 98.8821 68.2215C98.898 68.1115 98.955 68.0116 99.0417 67.9419C99.1283 67.8723 99.2381 67.838 99.349 67.8461L102.352 67.9194C102.414 67.9217 102.475 67.9364 102.531 67.9627C102.588 67.9889 102.638 68.0261 102.68 68.0722C102.722 68.1182 102.754 68.1722 102.775 68.2308C102.795 68.2895 102.804 68.3517 102.8 68.4137C102.8 68.6335 102.599 70.6201 101.601 71.2792C101.385 71.4242 101.129 71.5008 100.869 71.4989ZM99.7518 68.7525C99.6919 69.1077 99.7487 69.4728 99.9138 69.793C100.079 70.1132 100.343 70.3712 100.667 70.5285C100.734 70.5638 100.807 70.5822 100.882 70.5822C100.957 70.5822 101.031 70.5638 101.098 70.5285C101.519 70.0629 101.773 69.4702 101.821 68.844L99.7518 68.7525Z" fill="#231F20"/>
<path d="M99.8617 72.9453C99.8617 72.9453 96.4011 72.9453 94.7899 72.0298C94.7899 72.0298 96.1448 75.9755 99.9074 76.9551L99.8617 72.9453Z" fill="#231F20"/>
<path d="M99.9075 77.4128H99.7884C95.8335 76.3875 94.4145 72.3685 94.3596 72.2037C94.3284 72.1158 94.3249 72.0204 94.3494 71.9305C94.374 71.8405 94.4254 71.7601 94.4969 71.7002C94.5744 71.6494 94.6651 71.6223 94.7578 71.6223C94.8505 71.6223 94.9412 71.6494 95.0187 71.7002C96.5018 72.5607 99.8159 72.5699 99.8525 72.5607C99.9715 72.5607 100.086 72.608 100.17 72.6921C100.254 72.7763 100.301 72.8904 100.301 73.0093L100.347 77.01C100.348 77.0803 100.333 77.1499 100.303 77.2134C100.273 77.2769 100.228 77.3326 100.173 77.3762C100.09 77.4158 99.9976 77.4286 99.9075 77.4128ZM95.6962 72.8903C96.4988 74.4438 97.8252 75.6631 99.4406 76.3326V73.3938C98.1766 73.3793 96.9191 73.2102 95.6962 72.8903Z" fill="#231F20"/>
<path d="M70.804 121.457C70.6826 121.464 70.5633 121.423 70.4723 121.342C70.3813 121.262 70.3261 121.148 70.3188 121.027C70.3115 120.905 70.3528 120.786 70.4335 120.695C70.5142 120.604 70.6277 120.549 70.7491 120.542C70.8864 120.542 84.3441 119.004 88.3814 116.806C88.4343 116.777 88.4924 116.759 88.5523 116.753C88.6123 116.746 88.6729 116.752 88.7308 116.769C88.7886 116.786 88.8425 116.814 88.8894 116.852C88.9363 116.89 88.9752 116.937 89.004 116.99C89.0601 117.097 89.0724 117.222 89.0382 117.338C89.0041 117.454 88.9261 117.552 88.8209 117.612C84.6188 119.901 71.4266 121.384 70.8498 121.448L70.804 121.457Z" fill="#231F20"/>
<path d="M74.3195 82.4666C74.3195 82.4666 48.1273 118.821 59.3421 128.195C69.6322 136.792 92.3913 122.519 92.3913 122.519L91.018 110.444C91.018 110.444 73.0195 120.194 72.7082 115.653C72.2871 108.979 81.1033 99.8609 81.1033 99.8609C81.8922 98.3886 82.37 96.7699 82.507 95.1053C82.644 93.4406 82.4373 91.7656 81.8998 90.1841C81.3641 88.3757 80.3929 86.7264 79.0713 85.3808C77.7496 84.0353 76.118 83.0346 74.3195 82.4666Z" fill="#231F20"/>
<path d="M118.849 127.673H92.73C92.2513 127.673 91.7788 127.565 91.3468 127.359C90.9148 127.153 90.5342 126.853 90.2326 126.481C89.931 126.11 89.716 125.675 89.6033 125.21C89.4905 124.745 89.4828 124.26 89.5807 123.792L95.1377 97.7186C95.2901 96.9462 95.7054 96.2504 96.313 95.7497C96.9205 95.249 97.6828 94.9742 98.4701 94.9722H124.214C124.721 94.9732 125.222 95.0875 125.679 95.3067C126.137 95.526 126.539 95.8447 126.858 96.2396C127.176 96.6344 127.402 97.0954 127.52 97.5889C127.638 98.0824 127.643 98.5959 127.537 99.0919L121.998 125.128C121.845 125.85 121.448 126.496 120.875 126.959C120.301 127.423 119.586 127.675 118.849 127.673Z" fill="white"/>
<path d="M118.849 128.094H92.73C92.19 128.089 91.6579 127.965 91.1717 127.729C90.6856 127.494 90.2574 127.155 89.9179 126.735C89.5785 126.315 89.3361 125.825 89.2081 125.3C89.0802 124.776 89.0699 124.229 89.1779 123.7L94.7349 97.5812C94.9189 96.7268 95.3898 95.9611 96.0694 95.4115C96.7489 94.8618 97.5961 94.5614 98.4701 94.5601H124.214C124.779 94.5609 125.337 94.6874 125.847 94.9302C126.358 95.173 126.808 95.5261 127.166 95.9641C127.523 96.402 127.779 96.9139 127.914 97.4627C128.05 98.0115 128.061 98.5835 127.949 99.1375L122.456 125.183C122.283 126.01 121.829 126.752 121.172 127.282C120.514 127.813 119.694 128.1 118.849 128.094ZM98.4701 95.3932C97.7873 95.3962 97.1259 95.6318 96.595 96.0612C96.0641 96.4905 95.6954 97.088 95.5497 97.7551L89.9927 123.874C89.9052 124.283 89.9104 124.706 90.0079 125.113C90.1054 125.52 90.2927 125.899 90.5561 126.224C90.8195 126.549 91.1523 126.811 91.5301 126.99C91.9078 127.17 92.321 127.262 92.7392 127.261H118.858C119.5 127.26 120.121 127.039 120.621 126.636C121.12 126.234 121.467 125.673 121.605 125.046L127.143 99.0002C127.235 98.5649 127.228 98.1147 127.123 97.6824C127.019 97.25 126.819 96.8464 126.539 96.5009C126.261 96.154 125.908 95.8743 125.507 95.6825C125.106 95.4907 124.667 95.3918 124.223 95.3932H98.4701Z" fill="#231F20"/>
<path d="M87.3561 114.563C87.1966 113.645 87.269 112.701 87.5667 111.817C87.8485 111.221 88.2398 110.684 88.7202 110.233C89.5374 109.381 90.4122 108.585 91.3385 107.853C91.7119 107.474 92.1633 107.181 92.6613 106.995C93.1593 106.808 93.692 106.733 94.2223 106.773C93.885 108.291 92.9939 109.629 91.723 110.526C92.1494 110.046 92.701 109.694 93.3159 109.51C93.7279 109.382 94.2955 109.4 94.4694 109.803C94.5091 109.934 94.5206 110.072 94.5033 110.207C94.4859 110.343 94.4401 110.474 94.3687 110.59C93.882 111.645 93.1354 112.558 92.199 113.245L93.2061 112.623C93.4596 112.44 93.7503 112.315 94.0575 112.256C94.2099 112.23 94.3669 112.253 94.5053 112.322C94.6437 112.391 94.7563 112.503 94.8265 112.641C94.8926 112.871 94.8663 113.117 94.7532 113.328C94.4944 113.944 94.0578 114.47 93.499 114.838C93.8704 114.542 94.3064 114.338 94.7716 114.243C95.0043 114.205 95.2429 114.252 95.4443 114.374C95.6458 114.497 95.7968 114.687 95.8701 114.911C95.9063 115.169 95.8512 115.431 95.7145 115.653C94.973 117.099 93.1878 117.264 92.3272 118.473C91.6772 119.388 91.9793 120.349 90.6518 120.899C87.3744 122.272 87.5392 116.449 87.3561 114.563Z" fill="white"/>
<path d="M89.718 121.576C89.3562 121.581 89.0005 121.482 88.6927 121.292C87.2096 120.377 87.0448 117.429 86.9349 115.497C86.9349 115.149 86.9349 114.847 86.8708 114.582C86.71 113.597 86.7949 112.587 87.118 111.643C87.4208 110.993 87.8432 110.406 88.3631 109.913C89.1935 109.046 90.0838 108.238 91.0272 107.496C91.451 107.073 91.9627 106.749 92.526 106.546C93.0893 106.344 93.6903 106.268 94.2863 106.324C94.3459 106.334 94.4028 106.356 94.4532 106.389C94.5037 106.422 94.5467 106.466 94.5793 106.516C94.6445 106.62 94.6675 106.744 94.6434 106.864C94.4649 107.618 94.155 108.333 93.7279 108.979C93.9525 108.966 94.176 109.02 94.37 109.134C94.564 109.248 94.7197 109.417 94.8173 109.62C94.8816 109.81 94.9059 110.012 94.8886 110.212C94.8712 110.412 94.8127 110.606 94.7166 110.783C94.5509 111.131 94.3612 111.467 94.149 111.79C94.3689 111.793 94.5832 111.86 94.7665 111.982C94.9498 112.103 95.0945 112.275 95.1835 112.476C95.2876 112.819 95.2582 113.189 95.1011 113.511C95.1011 113.602 95.0187 113.694 94.9729 113.785C95.2685 113.796 95.5525 113.903 95.782 114.09C96.0116 114.277 96.1742 114.533 96.2455 114.82C96.3025 115.179 96.2347 115.548 96.0532 115.863C95.5855 116.663 94.8864 117.301 94.0483 117.694C93.4997 117.951 93.0127 118.323 92.6201 118.784C92.4515 119.048 92.322 119.334 92.2356 119.635C92.1521 120.024 91.9726 120.386 91.7136 120.689C91.4546 120.991 91.1243 121.224 90.7525 121.366C90.4245 121.502 90.0732 121.574 89.718 121.576ZM93.6088 107.212C92.8571 107.36 92.1604 107.712 91.5948 108.228C90.6964 108.94 89.8462 109.711 89.0497 110.535C88.61 110.952 88.2501 111.445 87.9877 111.991C87.7305 112.798 87.6709 113.655 87.8138 114.49C87.8138 114.737 87.8138 115.058 87.8779 115.406C87.9603 116.944 88.1251 119.8 89.2145 120.478C89.4087 120.582 89.6258 120.636 89.8462 120.636C90.0666 120.636 90.2836 120.582 90.4779 120.478C90.7193 120.376 90.9304 120.214 91.0908 120.007C91.2512 119.8 91.3554 119.556 91.3934 119.297C91.512 118.911 91.6846 118.544 91.906 118.207C92.3721 117.633 92.96 117.171 93.6272 116.852C94.2998 116.553 94.8697 116.063 95.2659 115.442C95.3548 115.314 95.3938 115.158 95.3757 115.003C95.3757 114.82 95.0462 114.664 94.7715 114.701C94.438 114.779 94.1256 114.929 93.856 115.14L93.7462 115.223C93.6963 115.256 93.6402 115.28 93.5813 115.292C93.5223 115.304 93.4615 115.304 93.4024 115.293C93.3434 115.281 93.2871 115.258 93.2369 115.225C93.1867 115.192 93.1436 115.149 93.1099 115.099C93.0762 115.049 93.0527 114.993 93.0407 114.934C93.0287 114.875 93.0285 114.814 93.0399 114.755C93.0514 114.696 93.0744 114.64 93.1076 114.59C93.1408 114.54 93.1836 114.496 93.2335 114.463L93.3342 114.39C93.7743 114.08 94.1172 113.651 94.3229 113.154C94.4145 112.925 94.4053 112.842 94.3962 112.815C94.361 112.773 94.3152 112.742 94.2636 112.724C94.212 112.706 94.1566 112.703 94.1032 112.714C93.8662 112.767 93.6422 112.867 93.4441 113.007L92.437 113.63C92.3363 113.698 92.2126 113.723 92.0933 113.7C91.974 113.676 91.8687 113.607 91.8008 113.506C91.7328 113.405 91.7076 113.282 91.7308 113.162C91.754 113.043 91.8236 112.938 91.9243 112.87C92.7991 112.233 93.4957 111.381 93.9476 110.398C94.0666 110.123 94.0574 110.023 94.0483 109.986C94.0391 109.949 93.7279 109.858 93.4349 109.986C93.2119 110.058 92.9971 110.153 92.7941 110.27C92.5385 110.518 92.2629 110.745 91.9701 110.947C91.8812 111.014 91.7704 111.044 91.66 111.032C91.5496 111.02 91.4478 110.967 91.3751 110.883C91.2998 110.801 91.2581 110.693 91.2581 110.581C91.2581 110.469 91.2998 110.362 91.3751 110.279C91.6241 109.991 91.914 109.741 92.2356 109.537C92.882 108.886 93.3624 108.088 93.6363 107.212H93.6088Z" fill="#231F20"/>
<path d="M127.134 112.751C127.006 110.993 126.466 109.089 124.946 108.173C124.475 107.911 123.946 107.768 123.407 107.757C122.867 107.746 122.334 107.867 121.852 108.109C121.763 108.143 121.682 108.196 121.616 108.264C121.549 108.332 121.499 108.413 121.467 108.503C121.412 108.778 121.669 109.007 121.907 109.153C122.409 109.462 122.956 109.693 123.527 109.84C123.063 109.797 122.598 109.899 122.194 110.132C121.791 110.365 121.47 110.717 121.275 111.14C121.839 111.81 122.632 112.247 123.5 112.366C123.214 112.294 122.913 112.308 122.634 112.405C122.356 112.503 122.112 112.68 121.934 112.916C121.367 113.703 121.815 113.923 122.438 114.399C122.164 114.338 121.878 114.367 121.623 114.481C121.497 114.536 121.391 114.627 121.317 114.743C121.244 114.859 121.207 114.994 121.211 115.131C121.211 115.635 121.888 115.8 122.328 116.047C122.686 116.249 122.96 116.574 123.097 116.962C123.148 117.179 123.218 117.39 123.307 117.594C124.223 119.114 126.118 117.85 126.585 116.788C127.081 115.504 127.269 114.121 127.134 112.751Z" fill="white"/>
<path d="M124.443 118.775C124.129 118.773 123.822 118.688 123.553 118.526C123.284 118.365 123.063 118.135 122.914 117.859C122.826 117.694 122.758 117.519 122.712 117.338C122.698 117.272 122.68 117.208 122.657 117.145C122.56 116.859 122.362 116.618 122.099 116.468L121.815 116.321C121.385 116.12 120.808 115.845 120.753 115.195C120.739 114.969 120.793 114.744 120.907 114.549C121.021 114.353 121.19 114.196 121.394 114.097C121.165 113.758 121.101 113.309 121.559 112.669C121.652 112.532 121.763 112.409 121.888 112.302C121.544 112.085 121.235 111.817 120.973 111.506C120.915 111.441 120.877 111.36 120.864 111.274C120.851 111.188 120.863 111.1 120.9 111.021C121.131 110.5 121.527 110.069 122.026 109.794L121.705 109.611C121.019 109.19 121 108.695 121.055 108.476C121.101 108.321 121.179 108.178 121.285 108.056C121.391 107.934 121.522 107.837 121.669 107.771C122.22 107.491 122.831 107.351 123.449 107.364C124.067 107.377 124.672 107.542 125.212 107.844C126.988 108.869 127.509 111.085 127.628 112.769C127.762 114.211 127.561 115.665 127.043 117.017C126.8 117.498 126.441 117.911 125.998 118.218C125.555 118.525 125.042 118.717 124.507 118.775H124.443ZM122.136 114.829C122.028 114.824 121.921 114.846 121.824 114.893C121.783 114.909 121.746 114.935 121.717 114.968C121.689 115.002 121.669 115.042 121.659 115.085C121.659 115.223 121.952 115.36 122.209 115.479L122.557 115.653C123.01 115.915 123.354 116.331 123.527 116.825C123.527 116.907 123.527 116.99 123.6 117.072C123.621 117.181 123.658 117.286 123.71 117.383C123.776 117.534 123.887 117.661 124.028 117.747C124.169 117.832 124.333 117.871 124.498 117.859C124.852 117.798 125.188 117.654 125.477 117.439C125.767 117.225 126.002 116.945 126.164 116.623C126.624 115.41 126.8 114.107 126.676 112.815C126.576 111.359 126.145 109.446 124.717 108.622C124.315 108.389 123.861 108.262 123.397 108.252C122.933 108.243 122.473 108.351 122.062 108.567C122.011 108.594 121.962 108.624 121.916 108.659C121.916 108.659 121.998 108.723 122.145 108.805C122.611 109.091 123.117 109.307 123.646 109.446C123.767 109.469 123.875 109.539 123.944 109.642C124.014 109.744 124.04 109.869 124.017 109.991C123.994 110.112 123.923 110.219 123.821 110.289C123.719 110.358 123.594 110.385 123.472 110.362C123.157 110.338 122.842 110.397 122.556 110.532C122.271 110.666 122.025 110.873 121.843 111.131C122.316 111.57 122.914 111.852 123.555 111.936C123.615 111.943 123.673 111.962 123.726 111.992C123.778 112.022 123.825 112.061 123.862 112.109C123.9 112.157 123.927 112.211 123.944 112.269C123.96 112.328 123.965 112.389 123.957 112.449C123.95 112.509 123.931 112.567 123.901 112.62C123.872 112.673 123.832 112.719 123.784 112.756C123.737 112.794 123.682 112.821 123.624 112.838C123.566 112.854 123.505 112.859 123.445 112.852C122.868 112.778 122.529 112.852 122.309 113.209C122.09 113.566 122.062 113.566 122.557 113.941L122.721 114.06C122.802 114.121 122.86 114.207 122.887 114.305C122.913 114.403 122.907 114.507 122.868 114.6C122.83 114.696 122.759 114.775 122.669 114.825C122.579 114.875 122.475 114.893 122.374 114.875L122.136 114.829Z" fill="#231F20"/>
</svg>
