<svg width="367" height="276" viewBox="0 0 367 276" fill="none" xmlns="http://www.w3.org/2000/svg">
<path d="M133.552 121.521C133.496 121.522 133.44 121.512 133.388 121.492C133.336 121.471 133.288 121.44 133.248 121.401C133.208 121.362 133.176 121.315 133.154 121.263C133.133 121.212 133.121 121.156 133.121 121.1V71.5903C133.121 67.2198 134.858 63.0284 137.948 59.938C141.038 56.8476 145.23 55.1115 149.6 55.1115H161.767C161.878 55.1138 161.984 55.1589 162.062 55.2374C162.141 55.3159 162.186 55.4216 162.188 55.5326C162.188 55.6443 162.144 55.7514 162.065 55.8304C161.986 55.9093 161.879 55.9537 161.767 55.9537H149.564C145.44 55.9658 141.488 57.6094 138.572 60.5254C135.656 63.4415 134.012 67.3931 134 71.517V121.063C134.006 121.124 133.998 121.185 133.977 121.243C133.957 121.3 133.924 121.352 133.882 121.396C133.839 121.439 133.787 121.473 133.73 121.495C133.674 121.516 133.613 121.525 133.552 121.521Z" fill="#D1D3D4"/>
<path d="M133.552 121.613C133.496 121.614 133.44 121.604 133.388 121.583C133.336 121.563 133.288 121.532 133.248 121.493C133.208 121.453 133.176 121.407 133.154 121.355C133.133 121.303 133.121 121.248 133.121 121.192V108.073C133.107 101.536 130.504 95.2711 125.882 90.649C121.26 86.0269 114.995 83.4238 108.458 83.4093H92.4645C92.3535 83.4069 92.2478 83.3618 92.1693 83.2833C92.0908 83.2049 92.0457 83.0991 92.0434 82.9881C92.0434 82.8765 92.0877 82.7693 92.1667 82.6904C92.2457 82.6114 92.3528 82.567 92.4645 82.567H108.458C115.221 82.5743 121.705 85.2635 126.488 90.0449C131.272 94.8263 133.963 101.309 133.973 108.073V121.192C133.973 121.303 133.928 121.41 133.849 121.489C133.77 121.568 133.663 121.613 133.552 121.613Z" fill="#D1D3D4"/>
<path d="M289.817 158.141H243.52C243.465 158.141 243.41 158.13 243.359 158.109C243.308 158.087 243.262 158.056 243.223 158.017C243.184 157.978 243.152 157.932 243.131 157.881C243.11 157.83 243.099 157.775 243.099 157.72C243.098 157.664 243.108 157.609 243.129 157.557C243.15 157.505 243.18 157.458 243.22 157.419C243.259 157.38 243.306 157.349 243.358 157.328C243.409 157.307 243.465 157.297 243.52 157.298H289.808C289.919 157.298 290.026 157.343 290.105 157.422C290.184 157.501 290.229 157.608 290.229 157.72C290.226 157.829 290.183 157.933 290.106 158.012C290.03 158.09 289.926 158.136 289.817 158.141Z" fill="#D1D3D4"/>
<path d="M250.231 94.3494H169.366C169.31 94.3506 169.255 94.3406 169.203 94.3199C169.151 94.2991 169.104 94.2682 169.065 94.2288C169.026 94.1895 168.995 94.1425 168.974 94.0909C168.953 94.0392 168.943 93.9839 168.945 93.9282V61.4741C168.954 61.3697 169.003 61.2728 169.081 61.2031C169.159 61.1333 169.261 61.096 169.366 61.0988C169.477 61.0988 169.585 61.1431 169.663 61.2221C169.742 61.3011 169.787 61.4082 169.787 61.5199V93.5621H250.258C250.369 93.5644 250.475 93.6095 250.554 93.688C250.632 93.7665 250.677 93.8722 250.68 93.9832C250.666 94.09 250.612 94.1875 250.528 94.2556C250.445 94.3237 250.338 94.3573 250.231 94.3494Z" fill="#D1D3D4"/>
<path d="M330.721 213.07H35.4752C35.3643 213.068 35.2585 213.023 35.18 212.944C35.1016 212.866 35.0564 212.76 35.0541 212.649C35.0541 212.537 35.0985 212.43 35.1775 212.351C35.2564 212.272 35.3635 212.228 35.4752 212.228H330.721C330.832 212.228 330.94 212.272 331.019 212.351C331.098 212.43 331.142 212.537 331.142 212.649C331.14 212.76 331.094 212.866 331.016 212.944C330.938 213.023 330.832 213.068 330.721 213.07Z" fill="#D1D3D4"/>
<path d="M123.591 173.951H49.3449C49.2332 173.951 49.1261 173.907 49.0471 173.828C48.9682 173.749 48.9238 173.642 48.9238 173.53C48.9225 173.474 48.9326 173.419 48.9533 173.367C48.974 173.316 49.005 173.269 49.0444 173.23C49.0837 173.19 49.1306 173.159 49.1823 173.138C49.234 173.118 49.2893 173.108 49.3449 173.109H123.591C123.646 173.109 123.701 173.12 123.752 173.141C123.803 173.162 123.85 173.193 123.889 173.232C123.928 173.271 123.959 173.318 123.98 173.369C124.001 173.42 124.012 173.475 124.012 173.53C124.01 173.641 123.965 173.747 123.886 173.825C123.808 173.904 123.702 173.949 123.591 173.951Z" fill="#D1D3D4"/>
<path d="M118.245 118.372H247.951C250.525 118.372 252.993 119.394 254.813 121.214C256.633 123.034 257.656 125.502 257.656 128.076V207.293H108.531V128.076C108.531 126.801 108.783 125.538 109.271 124.36C109.759 123.182 110.475 122.112 111.377 121.211C112.279 120.31 113.35 119.595 114.528 119.108C115.707 118.621 116.97 118.371 118.245 118.372Z" fill="#E54B4B"/>
<path d="M248.345 126.337H117.86V207.293H248.345V126.337Z" fill="white"/>
<path d="M93.0321 207.293H273.164C273.164 210.151 272.029 212.892 270.008 214.913C267.987 216.934 265.246 218.069 262.389 218.069H103.807C100.95 218.069 98.2089 216.934 96.1881 214.913C94.1674 212.892 93.0321 210.151 93.0321 207.293Z" fill="#E54B4B"/>
<path d="M148.373 138.137L139.328 142.696L148.373 147.256L157.409 142.696L148.373 138.137Z" fill="white"/>
<path d="M148.373 147.677C148.31 147.692 148.244 147.692 148.181 147.677L139.136 143.099C139.068 143.063 139.01 143.009 138.97 142.943C138.93 142.877 138.908 142.801 138.907 142.724C138.906 142.646 138.927 142.57 138.967 142.503C139.008 142.437 139.066 142.383 139.136 142.349L148.181 137.771C148.24 137.744 148.304 137.73 148.369 137.73C148.434 137.73 148.498 137.744 148.557 137.771L157.602 142.349C157.671 142.383 157.73 142.437 157.77 142.503C157.811 142.57 157.832 142.646 157.83 142.724C157.83 142.801 157.808 142.877 157.768 142.943C157.727 143.009 157.67 143.063 157.602 143.099L148.557 147.677C148.496 147.69 148.434 147.69 148.373 147.677ZM140.262 142.696L148.373 146.78L156.476 142.696L148.373 138.604L140.262 142.696Z" fill="#D1D3D4"/>
<path d="M139.328 142.696V190.943L148.373 195.502V147.256L139.328 142.696Z" fill="white"/>
<path d="M148.373 195.923C148.307 195.923 148.241 195.908 148.181 195.877L139.136 191.3C139.068 191.264 139.01 191.21 138.97 191.144C138.93 191.077 138.908 191.002 138.907 190.924V142.678C138.907 142.605 138.925 142.533 138.961 142.469C138.996 142.405 139.047 142.351 139.109 142.312C139.171 142.276 139.242 142.257 139.315 142.257C139.387 142.257 139.458 142.276 139.521 142.312L148.557 146.889C148.628 146.923 148.688 146.976 148.731 147.042C148.773 147.109 148.795 147.186 148.795 147.265V195.511C148.793 195.583 148.774 195.653 148.739 195.715C148.704 195.777 148.654 195.83 148.593 195.868C148.527 195.907 148.45 195.926 148.373 195.923ZM139.75 190.677L147.943 194.815V147.512L139.75 143.383V190.677Z" fill="#D1D3D4"/>
<path d="M148.373 195.502L157.409 190.943V142.696L148.373 147.256V195.502Z" fill="white"/>
<path d="M148.373 195.923C148.293 195.925 148.213 195.902 148.145 195.859C148.084 195.821 148.034 195.768 147.999 195.706C147.963 195.644 147.944 195.573 147.943 195.502V147.256C147.943 147.177 147.965 147.1 148.007 147.033C148.049 146.966 148.11 146.913 148.181 146.88L157.217 142.303C157.28 142.267 157.351 142.248 157.423 142.248C157.495 142.248 157.566 142.267 157.629 142.303C157.691 142.342 157.742 142.396 157.777 142.46C157.812 142.524 157.831 142.596 157.83 142.669V190.915C157.83 190.993 157.808 191.068 157.768 191.134C157.727 191.2 157.67 191.254 157.602 191.291L148.557 195.868C148.501 195.9 148.438 195.919 148.373 195.923ZM148.795 147.512V194.815L156.988 190.677V143.383L148.795 147.512Z" fill="#D1D3D4"/>
<path d="M180.26 156.218L171.224 160.777L180.26 165.336L189.305 160.777L180.26 156.218Z" fill="white"/>
<path d="M180.26 165.758C180.2 165.775 180.137 165.775 180.077 165.758L171.032 161.18C170.963 161.145 170.905 161.091 170.865 161.025C170.824 160.959 170.803 160.882 170.803 160.805C170.804 160.728 170.826 160.652 170.866 160.586C170.906 160.52 170.963 160.466 171.032 160.43L180.077 155.852C180.135 155.821 180.199 155.804 180.265 155.804C180.33 155.804 180.395 155.821 180.452 155.852L189.497 160.43C189.566 160.466 189.623 160.52 189.663 160.586C189.704 160.652 189.725 160.728 189.726 160.805C189.726 160.882 189.705 160.959 189.665 161.025C189.624 161.091 189.566 161.145 189.497 161.18L180.452 165.758C180.39 165.777 180.323 165.777 180.26 165.758ZM172.158 160.777L180.26 164.87L188.371 160.777L180.26 156.694L172.158 160.777Z" fill="#D1D3D4"/>
<path d="M171.224 160.777V190.943L180.26 195.502V165.336L171.224 160.777Z" fill="white"/>
<path d="M180.26 195.923C180.196 195.922 180.134 195.906 180.077 195.877L171.032 191.3C170.964 191.264 170.906 191.21 170.866 191.144C170.826 191.078 170.804 191.002 170.803 190.924V160.713C170.802 160.641 170.819 160.57 170.855 160.507C170.89 160.444 170.942 160.392 171.004 160.356C171.067 160.32 171.138 160.301 171.21 160.301C171.283 160.301 171.354 160.32 171.416 160.356L180.452 164.934C180.523 164.968 180.583 165.021 180.625 165.087C180.667 165.154 180.69 165.23 180.69 165.309V195.474C180.689 195.546 180.67 195.616 180.635 195.678C180.6 195.741 180.55 195.793 180.489 195.831C180.424 195.885 180.344 195.917 180.26 195.923ZM171.645 190.677L179.839 194.815V165.602L171.645 161.464V190.677Z" fill="#D1D3D4"/>
<path d="M180.26 195.502L189.305 190.943V160.777L180.26 165.336V195.502Z" fill="white"/>
<path d="M180.26 195.923C180.182 195.923 180.106 195.901 180.04 195.859C179.98 195.821 179.929 195.768 179.894 195.706C179.859 195.644 179.84 195.573 179.839 195.502V165.336C179.84 165.258 179.862 165.181 179.904 165.115C179.946 165.049 180.006 164.995 180.077 164.961L189.113 160.384C189.175 160.348 189.246 160.328 189.319 160.328C189.391 160.328 189.462 160.348 189.525 160.384C189.587 160.42 189.639 160.472 189.674 160.535C189.71 160.597 189.728 160.669 189.726 160.741V190.952C189.725 191.029 189.704 191.105 189.663 191.171C189.623 191.237 189.566 191.291 189.497 191.327L180.452 195.905C180.39 195.926 180.325 195.932 180.26 195.923ZM180.69 165.602V194.815L188.884 190.677V161.464L180.69 165.602Z" fill="#D1D3D4"/>
<path d="M212.156 166.517L203.12 171.077L212.156 175.645L221.201 171.077L212.156 166.517Z" fill="white"/>
<path d="M212.156 176.066C212.092 176.065 212.029 176.049 211.973 176.02L202.928 171.443C202.859 171.406 202.801 171.351 202.761 171.284C202.72 171.218 202.699 171.141 202.699 171.063C202.699 170.985 202.72 170.908 202.761 170.841C202.801 170.774 202.859 170.72 202.928 170.683L211.973 166.105C212.031 166.078 212.095 166.064 212.16 166.064C212.225 166.064 212.289 166.078 212.348 166.105L221.393 170.683C221.462 170.72 221.52 170.774 221.56 170.841C221.6 170.908 221.621 170.985 221.621 171.063C221.621 171.141 221.6 171.218 221.56 171.284C221.52 171.351 221.462 171.406 221.393 171.443L212.348 176.02C212.288 176.049 212.222 176.065 212.156 176.066ZM204.054 171.086L212.156 175.169L220.267 171.086L212.156 166.993L204.054 171.086Z" fill="#D1D3D4"/>
<path d="M203.12 171.077V190.943L212.156 195.502V175.645L203.12 171.077Z" fill="white"/>
<path d="M212.156 195.923C212.092 195.922 212.029 195.906 211.973 195.877L202.928 191.3C202.859 191.264 202.802 191.21 202.762 191.144C202.721 191.078 202.7 191.002 202.699 190.924V171.086C202.697 171.013 202.714 170.941 202.749 170.876C202.783 170.812 202.834 170.758 202.896 170.719C202.958 170.68 203.029 170.658 203.102 170.655C203.175 170.652 203.247 170.668 203.312 170.701L212.348 175.279C212.419 175.311 212.479 175.365 212.52 175.432C212.56 175.498 212.58 175.576 212.577 175.654V195.511C212.578 195.583 212.56 195.654 212.525 195.717C212.49 195.78 212.438 195.832 212.375 195.868C212.31 195.909 212.233 195.928 212.156 195.923ZM203.541 190.677L211.735 194.815V175.901L203.541 171.763V190.677Z" fill="#D1D3D4"/>
<path d="M212.156 195.502L221.201 190.943V171.077L212.156 175.645V195.502Z" fill="white"/>
<path d="M212.156 195.923C212.078 195.923 212.001 195.901 211.936 195.859C211.875 195.821 211.825 195.768 211.79 195.706C211.755 195.644 211.736 195.573 211.735 195.502V175.645C211.733 175.566 211.755 175.488 211.797 175.421C211.839 175.355 211.9 175.302 211.973 175.27L221.009 170.692C221.072 170.658 221.143 170.641 221.214 170.641C221.286 170.641 221.357 170.658 221.42 170.692C221.482 170.731 221.533 170.785 221.569 170.849C221.604 170.913 221.622 170.985 221.622 171.058V190.915C221.621 190.993 221.599 191.068 221.559 191.134C221.519 191.2 221.461 191.254 221.393 191.291L212.348 195.868C212.288 195.899 212.223 195.918 212.156 195.923ZM212.577 175.901V194.815L220.816 190.677V171.763L212.577 175.901Z" fill="#D1D3D4"/>
<path d="M233.734 138.558H203.12C203.008 138.558 202.901 138.514 202.822 138.435C202.743 138.356 202.699 138.249 202.699 138.137C202.697 138.082 202.707 138.026 202.728 137.975C202.749 137.923 202.78 137.876 202.819 137.837C202.859 137.797 202.906 137.766 202.957 137.746C203.009 137.725 203.064 137.715 203.12 137.716H233.734C233.845 137.716 233.953 137.761 234.032 137.84C234.111 137.918 234.155 138.026 234.155 138.137C234.153 138.248 234.107 138.354 234.029 138.432C233.95 138.511 233.845 138.556 233.734 138.558Z" fill="#E54B4B"/>
<path d="M233.734 144.793H203.12C203.008 144.793 202.901 144.749 202.822 144.67C202.743 144.591 202.699 144.484 202.699 144.372C202.699 144.26 202.743 144.153 202.822 144.074C202.901 143.995 203.008 143.951 203.12 143.951H233.734C233.789 143.951 233.844 143.962 233.895 143.983C233.946 144.004 233.992 144.035 234.032 144.074C234.071 144.113 234.102 144.16 234.123 144.211C234.144 144.262 234.155 144.317 234.155 144.372C234.155 144.427 234.144 144.482 234.123 144.533C234.102 144.584 234.071 144.63 234.032 144.67C233.992 144.709 233.946 144.74 233.895 144.761C233.844 144.782 233.789 144.793 233.734 144.793Z" fill="#E54B4B"/>
<path d="M233.734 151.027H203.12C203.064 151.029 203.009 151.019 202.957 150.998C202.906 150.977 202.859 150.946 202.819 150.907C202.78 150.868 202.749 150.821 202.728 150.769C202.707 150.717 202.697 150.662 202.699 150.606C202.699 150.495 202.743 150.388 202.822 150.309C202.901 150.23 203.008 150.185 203.12 150.185H233.734C233.845 150.188 233.95 150.233 234.029 150.311C234.107 150.39 234.153 150.495 234.155 150.606C234.155 150.662 234.144 150.716 234.123 150.767C234.102 150.819 234.071 150.865 234.032 150.904C233.992 150.943 233.946 150.974 233.895 150.995C233.844 151.017 233.789 151.027 233.734 151.027Z" fill="#E54B4B"/>
<path d="M226.016 157.271H203.129C203.017 157.271 202.91 157.227 202.831 157.148C202.752 157.069 202.708 156.962 202.708 156.85C202.707 156.794 202.717 156.739 202.737 156.687C202.758 156.636 202.789 156.589 202.828 156.549C202.868 156.51 202.915 156.479 202.966 156.458C203.018 156.438 203.073 156.428 203.129 156.429H226.016C226.128 156.429 226.235 156.473 226.314 156.552C226.393 156.631 226.437 156.738 226.437 156.85C226.435 156.961 226.39 157.067 226.311 157.145C226.233 157.224 226.127 157.269 226.016 157.271Z" fill="#E54B4B"/>
<path d="M270.07 207.77H96.1265C96.027 207.741 95.9395 207.681 95.8772 207.598C95.8149 207.516 95.7812 207.415 95.7812 207.312C95.7812 207.208 95.8149 207.108 95.8772 207.025C95.9395 206.942 96.027 206.882 96.1265 206.854H270.07C270.169 206.882 270.257 206.942 270.319 207.025C270.381 207.108 270.415 207.208 270.415 207.312C270.415 207.415 270.381 207.516 270.319 207.598C270.257 207.681 270.169 207.741 270.07 207.77Z" fill="#231F20"/>
<path d="M278.236 93.8367H261.4C261.298 93.8217 261.204 93.7704 261.137 93.6922C261.069 93.6141 261.032 93.5142 261.032 93.411C261.032 93.3077 261.069 93.2079 261.137 93.1297C261.204 93.0516 261.298 93.0003 261.4 92.9853H278.236C280.252 92.9853 282.186 92.185 283.612 90.7603C285.038 89.3355 285.841 87.4028 285.843 85.3867V76.1036C285.842 76.0476 285.852 75.9918 285.873 75.9397C285.894 75.8875 285.924 75.84 285.964 75.7999C286.003 75.7598 286.05 75.728 286.101 75.7063C286.153 75.6845 286.209 75.6733 286.265 75.6733C286.377 75.6757 286.484 75.7221 286.563 75.8026C286.642 75.883 286.686 75.9911 286.686 76.1036V85.3867C286.683 87.627 285.792 89.7749 284.208 91.3591C282.624 92.9432 280.476 93.8343 278.236 93.8367Z" fill="#D1D3D4"/>
<path d="M308.145 135.492C308.034 135.489 307.928 135.444 307.85 135.366C307.771 135.287 307.726 135.181 307.724 135.07V107.944C307.719 104.203 306.23 100.616 303.583 97.9709C300.936 95.326 297.349 93.8392 293.607 93.8368H266.582C266.479 93.8217 266.386 93.7705 266.319 93.6923C266.251 93.6142 266.214 93.5143 266.214 93.4111C266.214 93.3078 266.251 93.208 266.319 93.1298C266.386 93.0516 266.479 93.0004 266.582 92.9854H293.607C297.573 92.9902 301.375 94.5678 304.179 97.3721C306.984 100.176 308.561 103.979 308.566 107.944V135.07C308.564 135.181 308.519 135.287 308.44 135.366C308.362 135.444 308.256 135.489 308.145 135.492Z" fill="#D1D3D4"/>
<path d="M86.0561 146.853H39.1921V190.686H86.0561V146.853Z" fill="#231F20"/>
<path d="M86.056 191.163H39.1921C39.0683 191.163 38.9495 191.113 38.8619 191.026C38.7744 190.938 38.7252 190.819 38.7252 190.696V146.853C38.7252 146.729 38.7744 146.61 38.8619 146.523C38.9495 146.435 39.0683 146.386 39.1921 146.386H86.056C86.1799 146.386 86.2986 146.435 86.3862 146.523C86.4737 146.61 86.5229 146.729 86.5229 146.853V190.696C86.5229 190.819 86.4737 190.938 86.3862 191.026C86.2986 191.113 86.1799 191.163 86.056 191.163ZM39.659 190.247H85.5891V147.329H39.6681L39.659 190.247Z" fill="#231F20"/>
<path d="M86.047 182.136H39.2105C37.1476 182.136 35.4753 183.808 35.4753 185.871V193.79C35.4753 195.853 37.1476 197.525 39.2105 197.525H86.047C88.1099 197.525 89.7822 195.853 89.7822 193.79V185.871C89.7822 183.808 88.1099 182.136 86.047 182.136Z" fill="white"/>
<path d="M86.0561 198.001H39.2104C38.0951 197.999 37.0263 197.554 36.2386 196.764C35.4508 195.975 35.0083 194.905 35.0083 193.79V185.871C35.0108 184.757 35.4543 183.69 36.2418 182.902C37.0293 182.115 38.0967 181.671 39.2104 181.669H86.0561C87.1698 181.671 88.2372 182.115 89.0247 182.902C89.8123 183.69 90.2558 184.757 90.2582 185.871V193.79C90.2582 194.905 89.8158 195.975 89.028 196.764C88.2402 197.554 87.1714 197.999 86.0561 198.001ZM39.2104 182.612C38.3468 182.614 37.5192 182.958 36.9086 183.569C36.2979 184.18 35.9537 185.007 35.9513 185.871V193.79C35.9513 194.655 36.2944 195.485 36.9053 196.098C37.5163 196.71 38.3452 197.056 39.2104 197.058H86.0561C86.9213 197.056 87.7502 196.71 88.3612 196.098C88.9721 195.485 89.3152 194.655 89.3152 193.79V185.871C89.3128 185.007 88.9687 184.18 88.358 183.569C87.7473 182.958 86.9197 182.614 86.0561 182.612H39.2104Z" fill="#231F20"/>
<path d="M86.047 163.386H39.2105C37.1476 163.386 35.4753 165.059 35.4753 167.122V175.041C35.4753 177.104 37.1476 178.776 39.2105 178.776H86.047C88.1099 178.776 89.7822 177.104 89.7822 175.041V167.122C89.7822 165.059 88.1099 163.386 86.047 163.386Z" fill="white"/>
<path d="M86.0561 179.252H39.2104C38.0951 179.249 37.0263 178.805 36.2386 178.015C35.4508 177.226 35.0083 176.156 35.0083 175.041V167.122C35.0108 166.008 35.4543 164.941 36.2418 164.153C37.0293 163.365 38.0967 162.922 39.2104 162.92H86.0561C87.1698 162.922 88.2372 163.365 89.0247 164.153C89.8123 164.941 90.2558 166.008 90.2582 167.122V175.041C90.2582 176.156 89.8158 177.226 89.028 178.015C88.2402 178.805 87.1714 179.249 86.0561 179.252ZM39.2104 163.863C38.3468 163.865 37.5192 164.209 36.9086 164.82C36.2979 165.43 35.9537 166.258 35.9513 167.122V175.041C35.9585 175.901 36.3048 176.724 36.915 177.331C37.5251 177.937 38.35 178.279 39.2104 178.281H86.0561C86.9197 178.279 87.7473 177.935 88.358 177.324C88.9687 176.714 89.3128 175.886 89.3152 175.022V167.103C89.308 166.243 88.9617 165.42 88.3516 164.813C87.7414 164.207 86.9166 163.865 86.0561 163.863H39.2104Z" fill="#231F20"/>
<path d="M86.047 144.637H39.2105C37.1476 144.637 35.4753 146.31 35.4753 148.372V156.291C35.4753 158.354 37.1476 160.027 39.2105 160.027H86.047C88.1099 160.027 89.7822 158.354 89.7822 156.291V148.372C89.7822 146.31 88.1099 144.637 86.047 144.637Z" fill="white"/>
<path d="M86.0561 160.493H39.2104C38.0999 160.491 37.0352 160.05 36.2482 159.267C35.4612 158.483 35.0156 157.42 35.0083 156.31V148.391C35.0083 147.275 35.4508 146.206 36.2386 145.416C37.0263 144.627 38.0951 144.182 39.2104 144.179H86.0561C87.1714 144.182 88.2402 144.627 89.028 145.416C89.8158 146.206 90.2582 147.275 90.2582 148.391V156.31C90.2509 157.42 89.8053 158.483 89.0183 159.267C88.2313 160.05 87.1666 160.491 86.0561 160.493ZM39.2196 145.113C38.3552 145.113 37.5262 145.457 36.915 146.068C36.3038 146.679 35.9605 147.508 35.9605 148.372V156.31C35.9629 157.173 36.307 158.001 36.9177 158.612C37.5284 159.222 38.356 159.566 39.2196 159.569H86.0561C86.9181 159.564 87.7434 159.219 88.3521 158.608C88.9608 157.998 89.3037 157.172 89.3061 156.31V148.391C89.3085 147.962 89.2263 147.537 89.0641 147.14C88.902 146.743 88.6631 146.382 88.3612 146.078C88.0593 145.773 87.7003 145.531 87.3047 145.366C86.9092 145.2 86.4848 145.114 86.0561 145.113H39.2196Z" fill="#231F20"/>
<path d="M42.2132 151.027C42.7795 151.027 43.2385 150.568 43.2385 150.002C43.2385 149.436 42.7795 148.977 42.2132 148.977C41.6469 148.977 41.1879 149.436 41.1879 150.002C41.1879 150.568 41.6469 151.027 42.2132 151.027Z" fill="white"/>
<path d="M42.2133 151.485C41.9199 151.485 41.6332 151.398 41.3893 151.235C41.1454 151.072 40.9553 150.841 40.8431 150.57C40.7308 150.299 40.7014 150 40.7587 149.713C40.8159 149.425 40.9571 149.161 41.1645 148.953C41.372 148.746 41.6362 148.605 41.9239 148.547C42.2116 148.49 42.5098 148.52 42.7808 148.632C43.0518 148.744 43.2834 148.934 43.4464 149.178C43.6094 149.422 43.6964 149.709 43.6964 150.002C43.6964 150.395 43.5401 150.773 43.262 151.051C42.9838 151.329 42.6066 151.485 42.2133 151.485ZM42.2133 149.434C42.0627 149.434 41.9183 149.494 41.8119 149.601C41.7055 149.707 41.6457 149.851 41.6457 150.002C41.6457 150.153 41.7055 150.297 41.8119 150.403C41.9183 150.51 42.0627 150.57 42.2133 150.57C42.2881 150.571 42.3625 150.557 42.4319 150.529C42.5013 150.501 42.5644 150.459 42.6174 150.406C42.6703 150.353 42.7121 150.29 42.7402 150.221C42.7683 150.151 42.7821 150.077 42.7809 150.002C42.7809 149.851 42.7211 149.707 42.6146 149.601C42.5082 149.494 42.3638 149.434 42.2133 149.434Z" fill="#D1D3D4"/>
<path d="M46.5527 151.027C47.119 151.027 47.578 150.568 47.578 150.002C47.578 149.436 47.119 148.977 46.5527 148.977C45.9864 148.977 45.5273 149.436 45.5273 150.002C45.5273 150.568 45.9864 151.027 46.5527 151.027Z" fill="white"/>
<path d="M46.5527 151.485C46.2594 151.485 45.9727 151.398 45.7288 151.235C45.4849 151.072 45.2948 150.841 45.1825 150.57C45.0703 150.299 45.0409 150 45.0981 149.713C45.1554 149.425 45.2966 149.161 45.504 148.953C45.7114 148.746 45.9757 148.605 46.2634 148.547C46.5511 148.49 46.8493 148.52 47.1203 148.632C47.3913 148.744 47.6229 148.934 47.7859 149.178C47.9488 149.422 48.0358 149.709 48.0358 150.002C48.0358 150.395 47.8796 150.773 47.6014 151.051C47.3233 151.329 46.9461 151.485 46.5527 151.485ZM46.5527 149.434C46.4022 149.434 46.2578 149.494 46.1514 149.601C46.0449 149.707 45.9851 149.851 45.9851 150.002C45.9851 150.153 46.0449 150.297 46.1514 150.403C46.2578 150.51 46.4022 150.57 46.5527 150.57C46.6276 150.571 46.702 150.557 46.7714 150.529C46.8408 150.501 46.9039 150.459 46.9568 150.406C47.0098 150.353 47.0516 150.29 47.0797 150.221C47.1077 150.151 47.1216 150.077 47.1203 150.002C47.1203 149.851 47.0605 149.707 46.9541 149.601C46.8476 149.494 46.7033 149.434 46.5527 149.434Z" fill="#D1D3D4"/>
<path d="M50.8922 151.027C51.4584 151.027 51.9175 150.568 51.9175 150.002C51.9175 149.436 51.4584 148.977 50.8922 148.977C50.3259 148.977 49.8668 149.436 49.8668 150.002C49.8668 150.568 50.3259 151.027 50.8922 151.027Z" fill="white"/>
<path d="M50.8921 151.485C50.5988 151.485 50.312 151.398 50.0681 151.235C49.8242 151.072 49.6341 150.841 49.5219 150.57C49.4096 150.299 49.3803 150 49.4375 149.713C49.4947 149.425 49.636 149.161 49.8434 148.953C50.0508 148.746 50.3151 148.605 50.6028 148.547C50.8904 148.49 51.1886 148.52 51.4596 148.632C51.7306 148.744 51.9623 148.934 52.1252 149.178C52.2882 149.422 52.3752 149.709 52.3752 150.002C52.3752 150.395 52.2189 150.773 51.9408 151.051C51.6627 151.329 51.2854 151.485 50.8921 151.485ZM50.8921 149.434C50.7416 149.434 50.5972 149.494 50.4907 149.601C50.3843 149.707 50.3245 149.851 50.3245 150.002C50.3245 150.153 50.3843 150.297 50.4907 150.403C50.5972 150.51 50.7416 150.57 50.8921 150.57C51.0426 150.57 51.187 150.51 51.2935 150.403C51.3999 150.297 51.4597 150.153 51.4597 150.002C51.4597 149.851 51.3999 149.707 51.2935 149.601C51.187 149.494 51.0426 149.434 50.8921 149.434Z" fill="#D1D3D4"/>
<path d="M152.338 67.434L149.536 43.1002H186.485L181.578 68.0382L152.338 67.434Z" fill="white"/>
<path d="M181.578 68.5143L152.338 67.9101C152.223 67.9084 152.113 67.8645 152.028 67.7868C151.944 67.7091 151.891 67.6031 151.88 67.4889L149.069 43.1552C149.066 43.0864 149.078 43.0177 149.105 42.9543C149.132 42.8909 149.173 42.8344 149.225 42.789C149.268 42.7391 149.321 42.6993 149.381 42.6724C149.442 42.6455 149.507 42.6322 149.573 42.6334H186.485C186.555 42.6342 186.624 42.6502 186.687 42.6803C186.751 42.7103 186.807 42.7536 186.852 42.8073C186.896 42.8597 186.928 42.9215 186.946 42.9881C186.963 43.0546 186.965 43.1243 186.952 43.1918L182.045 68.1298C182.024 68.238 181.966 68.3356 181.881 68.4057C181.795 68.4758 181.689 68.5142 181.578 68.5143ZM152.759 66.9763L181.194 67.5622L185.909 43.5763H150.067L152.759 66.9763Z" fill="#231F20"/>
<path d="M152.338 67.434V38.2939H186.888V68.0382L152.338 67.434Z" fill="#231F20"/>
<path d="M186.888 68.5143L152.338 67.91C152.276 67.9088 152.216 67.8956 152.16 67.871C152.103 67.8464 152.053 67.811 152.01 67.7668C151.968 67.7226 151.934 67.6705 151.912 67.6134C151.89 67.5563 151.879 67.4953 151.88 67.434V38.3031C151.879 38.241 151.89 38.1793 151.913 38.1216C151.936 38.0639 151.97 38.0113 152.013 37.967C152.057 37.9227 152.109 37.8875 152.166 37.8634C152.223 37.8394 152.285 37.827 152.347 37.827H186.897C186.959 37.827 187.021 37.8394 187.078 37.8634C187.135 37.8875 187.187 37.9227 187.231 37.967C187.274 38.0113 187.308 38.0639 187.331 38.1216C187.354 38.1793 187.365 38.241 187.364 38.3031V68.0382C187.365 68.101 187.354 68.1634 187.33 68.2216C187.307 68.2798 187.271 68.3326 187.227 68.3769C187.135 68.4635 187.014 68.5125 186.888 68.5143ZM152.814 66.9762L186.412 67.5621V38.77H152.814V66.9762Z" fill="#231F20"/>
<path d="M152.338 67.434L156.842 45.2059H176.067L177.578 41.3059H192.592L186.733 68.0382L152.338 67.434Z" fill="white"/>
<path d="M186.76 68.5143L152.365 67.9101C152.296 67.909 152.228 67.8925 152.166 67.8619C152.103 67.8312 152.049 67.7871 152.006 67.7327C151.963 67.6784 151.933 67.6152 151.917 67.5477C151.902 67.4802 151.901 67.4101 151.916 67.3425L156.421 45.1144C156.442 45.0086 156.499 44.9133 156.582 44.8449C156.666 44.7765 156.77 44.7391 156.878 44.739H175.774L177.156 41.132C177.192 41.0421 177.254 40.965 177.334 40.9111C177.414 40.8571 177.508 40.8288 177.605 40.8299H192.619C192.689 40.8288 192.759 40.8439 192.822 40.8741C192.886 40.9043 192.942 40.9487 192.985 41.0038C193.031 41.0593 193.063 41.1243 193.081 41.1939C193.098 41.2636 193.1 41.3362 193.086 41.4066L187.227 68.139C187.204 68.2455 187.145 68.341 187.06 68.4093C186.975 68.4776 186.869 68.5147 186.76 68.5143ZM152.887 66.9763L186.33 67.5622L191.978 41.7728H177.898L176.516 45.3799C176.481 45.4683 176.42 45.5444 176.342 45.5982C176.264 45.6521 176.171 45.6812 176.076 45.682H157.235L152.887 66.9763Z" fill="#231F20"/>
<path d="M305.728 79.0698H279.545V42.9263H311.587V71.9931L305.728 79.0698Z" fill="white"/>
<path d="M305.774 79.5368H279.591C279.529 79.5368 279.467 79.5244 279.41 79.5004C279.353 79.4764 279.301 79.4411 279.257 79.3968C279.214 79.3525 279.18 79.2999 279.157 79.2422C279.134 79.1845 279.123 79.1228 279.124 79.0607V42.9263C279.124 42.8025 279.173 42.6838 279.261 42.5962C279.348 42.5086 279.467 42.4594 279.591 42.4594H311.633C311.695 42.4582 311.757 42.4694 311.814 42.4923C311.872 42.5152 311.925 42.5494 311.969 42.5929C312.013 42.6364 312.048 42.6883 312.073 42.7455C312.097 42.8028 312.109 42.8643 312.109 42.9263V71.9932C312.108 72.1035 312.07 72.2103 311.999 72.2953L306.094 79.4086C306.008 79.4907 305.893 79.5366 305.774 79.5368ZM280.067 78.6213H305.554L311.166 71.8467V43.4665H280.039L280.067 78.6213Z" fill="#231F20"/>
<path d="M305.728 79.0699V71.6178H311.587" fill="#231F20"/>
<path d="M305.774 79.5368C305.712 79.5368 305.65 79.5244 305.593 79.5004C305.536 79.4763 305.484 79.4411 305.44 79.3968C305.397 79.3525 305.363 79.2999 305.34 79.2422C305.317 79.1845 305.306 79.1228 305.307 79.0607V71.6178C305.312 71.4971 305.363 71.383 305.45 71.2994C305.537 71.2158 305.653 71.1691 305.774 71.1692H311.633C311.704 71.149 311.778 71.1454 311.851 71.1589C311.923 71.1724 311.991 71.2025 312.05 71.2469C312.109 71.2913 312.157 71.3487 312.19 71.4146C312.223 71.4806 312.24 71.5533 312.24 71.6269C312.24 71.7006 312.223 71.7733 312.19 71.8392C312.157 71.9052 312.109 71.9626 312.05 72.007C311.991 72.0514 311.923 72.0815 311.851 72.095C311.778 72.1084 311.704 72.1049 311.633 72.0847H306.25V79.0516C306.251 79.1148 306.24 79.1777 306.216 79.2365C306.193 79.2954 306.158 79.3489 306.114 79.3941C306.069 79.4393 306.016 79.4752 305.958 79.4997C305.9 79.5242 305.837 79.5368 305.774 79.5368Z" fill="#231F20"/>
<path d="M306.744 50.653H284.397C284.285 50.653 284.178 50.6087 284.099 50.5297C284.02 50.4507 283.976 50.3436 283.976 50.2319C283.976 50.1202 284.02 50.0131 284.099 49.9341C284.178 49.8552 284.285 49.8108 284.397 49.8108H306.744C306.856 49.8108 306.963 49.8552 307.042 49.9341C307.121 50.0131 307.165 50.1202 307.165 50.2319C307.165 50.3436 307.121 50.4507 307.042 50.5297C306.963 50.6087 306.856 50.653 306.744 50.653Z" fill="#D1D3D4"/>
<path d="M306.744 56.1002H284.397C284.285 56.1002 284.178 56.0558 284.099 55.9768C284.02 55.8979 283.976 55.7908 283.976 55.6791C283.976 55.5674 284.02 55.4603 284.099 55.3813C284.178 55.3023 284.285 55.2579 284.397 55.2579H306.744C306.856 55.2579 306.963 55.3023 307.042 55.3813C307.121 55.4603 307.165 55.5674 307.165 55.6791C307.165 55.7908 307.121 55.8979 307.042 55.9768C306.963 56.0558 306.856 56.1002 306.744 56.1002Z" fill="#D1D3D4"/>
<path d="M306.744 61.5474H284.397C284.341 61.5487 284.286 61.5387 284.234 61.5179C284.183 61.4972 284.136 61.4663 284.096 61.4269C284.057 61.3875 284.026 61.3406 284.005 61.289C283.985 61.2373 283.975 61.182 283.976 61.1263C283.976 61.0146 284.02 60.9075 284.099 60.8285C284.178 60.7496 284.285 60.7052 284.397 60.7052H306.744C306.855 60.7075 306.961 60.7527 307.039 60.8311C307.118 60.9096 307.163 61.0154 307.165 61.1263C307.165 61.238 307.121 61.3451 307.042 61.4241C306.963 61.5031 306.856 61.5474 306.744 61.5474Z" fill="#D1D3D4"/>
<path d="M306.744 66.9946H284.397C284.341 66.9959 284.286 66.9858 284.234 66.9651C284.183 66.9444 284.136 66.9134 284.096 66.874C284.057 66.8347 284.026 66.7878 284.005 66.7361C283.985 66.6844 283.975 66.6291 283.976 66.5735C283.976 66.4618 284.02 66.3547 284.099 66.2757C284.178 66.1967 284.285 66.1523 284.397 66.1523H306.744C306.855 66.1547 306.961 66.1998 307.039 66.2783C307.118 66.3568 307.163 66.4625 307.165 66.5735C307.165 66.6852 307.121 66.7923 307.042 66.8713C306.963 66.9502 306.856 66.9946 306.744 66.9946Z" fill="#D1D3D4"/>
<path d="M261.4 95.2741C261.299 95.7502 261.208 96.1896 261.089 96.6931C260.569 98.7353 259.39 100.549 257.735 101.853C256.08 103.158 254.041 103.88 251.934 103.907C240.545 103.907 229.159 103.907 217.777 103.907C215.382 103.9 213.064 103.062 211.218 101.536C209.372 100.01 208.113 97.8913 207.655 95.5407C207.197 93.1902 207.569 90.7535 208.707 88.6463C209.845 86.5392 211.678 84.8921 213.895 83.9861C214.048 83.9462 214.183 83.8575 214.281 83.7336C214.378 83.6096 214.432 83.4572 214.435 83.2995C214.555 82.0551 214.992 80.862 215.703 79.834C216.414 78.806 217.377 77.9772 218.5 77.4265C219.622 76.8759 220.867 76.6217 222.115 76.6882C223.364 76.7548 224.574 77.1397 225.632 77.8065L226.035 78.0537C226.913 76.2129 228.176 74.5816 229.738 73.2694C231.299 71.9571 233.124 70.9944 235.089 70.446C237.899 69.6526 240.891 69.7842 243.621 70.8214C246.47 71.8661 248.908 73.7983 250.576 76.3332C252.244 78.8681 253.054 81.8718 252.886 84.9016C253.316 84.9931 253.756 85.0481 254.177 85.1762C258.132 86.3572 260.585 88.9023 261.308 93.0403C261.33 93.1434 261.361 93.2444 261.4 93.3424V95.2741Z" fill="white"/>
<path d="M234.027 104.392C228.396 104.392 223.041 104.392 217.74 104.392C215.248 104.362 212.841 103.48 210.92 101.893C208.998 100.306 207.677 98.1092 207.175 95.6678C206.682 93.2024 207.066 90.642 208.262 88.4301C209.457 86.2181 211.388 84.4939 213.721 83.5558C213.941 83.4643 213.95 83.4277 213.968 83.2629C214.121 81.9131 214.614 80.6241 215.4 79.5162C216.186 78.4084 217.24 77.5178 218.463 76.9277C219.631 76.36 220.925 76.1055 222.22 76.1889C223.516 76.2724 224.767 76.691 225.851 77.4037C226.782 75.6124 228.071 74.0314 229.638 72.759C231.205 71.4865 233.016 70.5496 234.961 70.0066C237.868 69.1906 240.96 69.3253 243.786 70.3911C246.663 71.4474 249.136 73.3794 250.857 75.9151C252.578 78.4509 253.461 81.4626 253.38 84.5263C253.689 84.5796 253.995 84.6499 254.296 84.7368C258.525 86.0002 261.034 88.765 261.757 92.9762C261.748 93.0185 261.748 93.0622 261.757 93.1044V93.2234C261.766 93.2688 261.766 93.3154 261.757 93.3607V95.3016C261.762 95.335 261.762 95.3689 261.757 95.4023L261.665 95.8417C261.601 96.1713 261.528 96.51 261.446 96.8396C260.904 98.9916 259.661 100.902 257.915 102.271C256.168 103.64 254.016 104.39 251.796 104.402L234.027 104.392ZM221.732 77.1016C220.742 77.1039 219.766 77.3292 218.875 77.7608C217.796 78.2794 216.865 79.064 216.172 80.0408C215.478 81.0177 215.045 82.1548 214.911 83.3453C214.896 83.5867 214.808 83.8179 214.659 84.0088C214.511 84.1998 214.308 84.3418 214.078 84.4164C211.95 85.2715 210.187 86.8446 209.097 88.8629C208.007 90.8812 207.657 93.2174 208.109 95.4664C208.563 97.6945 209.766 99.7001 211.518 101.149C213.271 102.598 215.466 103.404 217.74 103.431C228.323 103.431 239.501 103.431 251.897 103.431C253.907 103.417 255.855 102.736 257.436 101.495C259.016 100.254 260.14 98.523 260.631 96.5741C260.713 96.2629 260.777 95.9424 260.841 95.6586L260.924 95.265V93.434C260.885 93.3336 260.857 93.2292 260.841 93.1227C260.173 89.2594 257.948 86.8058 254.039 85.634C253.765 85.562 253.487 85.5039 253.206 85.4601L252.794 85.3777C252.682 85.3556 252.582 85.293 252.513 85.2019C252.443 85.1108 252.41 84.9974 252.419 84.8833C252.573 81.956 251.785 79.0564 250.173 76.6086C248.56 74.1608 246.207 72.2932 243.456 71.2791C240.82 70.279 237.932 70.1506 235.217 70.9129C233.311 71.4397 231.542 72.3717 230.03 73.6452C228.518 74.9187 227.299 76.5037 226.456 78.2918C226.417 78.3454 226.367 78.3908 226.311 78.4253C226.254 78.4599 226.192 78.483 226.126 78.4932C225.998 78.5217 225.865 78.5022 225.751 78.4383L225.339 78.1819C224.264 77.4854 223.012 77.1106 221.732 77.1016Z" fill="#231F20"/>
<path d="M333.275 130.868H283.024V177.879H333.275V130.868Z" fill="#231F20"/>
<path d="M333.238 178.355H283.024C282.898 178.352 282.779 178.302 282.69 178.213C282.601 178.124 282.55 178.004 282.548 177.879V130.868C282.55 130.744 282.601 130.625 282.69 130.538C282.779 130.45 282.899 130.401 283.024 130.401H333.238C333.301 130.4 333.362 130.411 333.42 130.434C333.478 130.457 333.53 130.491 333.575 130.535C333.619 130.578 333.654 130.63 333.678 130.688C333.702 130.745 333.715 130.806 333.715 130.868V177.879C333.715 178.005 333.664 178.126 333.575 178.215C333.486 178.305 333.365 178.355 333.238 178.355ZM283.463 177.439H332.772V131.344H283.5L283.463 177.439Z" fill="#231F20"/>
<path d="M333.266 168.706H283.042C280.833 168.706 279.041 170.497 279.041 172.706V181.202C279.041 183.412 280.833 185.203 283.042 185.203H333.266C335.475 185.203 337.267 183.412 337.267 181.202V172.706C337.267 170.497 335.475 168.706 333.266 168.706Z" fill="white"/>
<path d="M333.238 185.679H283.042C281.855 185.679 280.716 185.207 279.877 184.368C279.037 183.528 278.565 182.389 278.565 181.202V172.706C278.568 171.52 279.04 170.382 279.879 169.543C280.718 168.704 281.856 168.232 283.042 168.229H333.238C334.425 168.232 335.562 168.704 336.401 169.543C337.24 170.382 337.713 171.52 337.715 172.706V181.202C337.713 182.389 337.24 183.526 336.401 184.365C335.562 185.204 334.425 185.676 333.238 185.679ZM283.015 169.2C282.079 169.2 281.182 169.571 280.519 170.232C279.857 170.892 279.483 171.789 279.481 172.725V181.22C279.481 181.684 279.572 182.144 279.75 182.573C279.927 183.001 280.188 183.391 280.516 183.719C280.844 184.047 281.234 184.308 281.662 184.485C282.091 184.663 282.551 184.754 283.015 184.754H333.238C334.174 184.752 335.071 184.378 335.731 183.716C336.392 183.053 336.763 182.156 336.763 181.22V172.725C336.761 171.79 336.389 170.895 335.728 170.235C335.068 169.574 334.172 169.202 333.238 169.2H283.015Z" fill="#231F20"/>
<path d="M333.266 148.601H283.042C280.833 148.601 279.041 150.392 279.041 152.602V161.098C279.041 163.307 280.833 165.098 283.042 165.098H333.266C335.475 165.098 337.267 163.307 337.267 161.098V152.602C337.267 150.392 335.475 148.601 333.266 148.601Z" fill="white"/>
<path d="M333.238 165.575H283.042C281.856 165.572 280.718 165.1 279.879 164.261C279.04 163.422 278.568 162.284 278.565 161.098V152.648C278.565 151.461 279.037 150.322 279.877 149.482C280.716 148.643 281.855 148.171 283.042 148.171H333.238C334.425 148.174 335.562 148.646 336.401 149.485C337.24 150.324 337.713 151.461 337.715 152.648V161.144C337.701 162.322 337.223 163.448 336.385 164.277C335.548 165.106 334.417 165.572 333.238 165.575ZM283.015 149.096C282.551 149.096 282.091 149.187 281.662 149.365C281.234 149.542 280.844 149.803 280.516 150.131C280.188 150.459 279.927 150.849 279.75 151.277C279.572 151.706 279.481 152.166 279.481 152.63V161.125C279.483 162.061 279.857 162.957 280.519 163.618C281.182 164.279 282.079 164.65 283.015 164.65H333.238C334.172 164.648 335.068 164.275 335.728 163.615C336.389 162.954 336.761 162.059 336.763 161.125V152.648C336.763 151.712 336.392 150.815 335.731 150.152C335.071 149.49 334.174 149.117 333.238 149.114L283.015 149.096Z" fill="#231F20"/>
<path d="M333.266 128.488H283.042C280.833 128.488 279.041 130.279 279.041 132.489V140.984C279.041 143.194 280.833 144.985 283.042 144.985H333.266C335.475 144.985 337.267 143.194 337.267 140.984V132.489C337.267 130.279 335.475 128.488 333.266 128.488Z" fill="white"/>
<path d="M333.238 145.461H283.042C281.855 145.461 280.716 144.99 279.877 144.15C279.037 143.31 278.565 142.172 278.565 140.984V132.507C278.565 131.32 279.037 130.181 279.877 129.341C280.716 128.502 281.855 128.03 283.042 128.03H333.238C334.425 128.033 335.562 128.505 336.401 129.344C337.24 130.183 337.713 131.32 337.715 132.507V140.994C337.71 142.179 337.237 143.314 336.398 144.151C335.559 144.988 334.423 145.459 333.238 145.461ZM283.015 128.982C282.551 128.982 282.091 129.074 281.662 129.251C281.234 129.429 280.844 129.689 280.516 130.017C280.188 130.346 279.927 130.735 279.75 131.164C279.572 131.593 279.481 132.052 279.481 132.516V141.003C279.481 141.467 279.572 141.926 279.75 142.355C279.927 142.784 280.188 143.173 280.516 143.502C280.844 143.83 281.234 144.09 281.662 144.268C282.091 144.445 282.551 144.537 283.015 144.537H333.238C334.174 144.534 335.071 144.161 335.731 143.498C336.392 142.836 336.763 141.938 336.763 141.003V132.507C336.763 131.571 336.392 130.674 335.731 130.011C335.071 129.349 334.174 128.976 333.238 128.973L283.015 128.982Z" fill="#231F20"/>
<path d="M286.265 135.345C286.871 135.345 287.363 134.853 287.363 134.246C287.363 133.64 286.871 133.148 286.265 133.148C285.658 133.148 285.166 133.64 285.166 134.246C285.166 134.853 285.658 135.345 286.265 135.345Z" fill="white"/>
<path d="M286.265 135.803C285.957 135.803 285.656 135.712 285.4 135.541C285.144 135.37 284.945 135.126 284.827 134.842C284.709 134.558 284.678 134.245 284.738 133.943C284.798 133.641 284.946 133.364 285.164 133.146C285.382 132.928 285.659 132.78 285.961 132.72C286.263 132.66 286.576 132.691 286.86 132.809C287.145 132.926 287.388 133.126 287.559 133.382C287.73 133.638 287.821 133.939 287.821 134.247C287.819 134.659 287.654 135.053 287.362 135.344C287.071 135.636 286.677 135.8 286.265 135.803ZM286.265 133.606C286.095 133.606 285.932 133.673 285.812 133.793C285.691 133.914 285.624 134.077 285.624 134.247C285.624 134.416 285.691 134.579 285.812 134.7C285.932 134.82 286.095 134.887 286.265 134.887C286.435 134.887 286.598 134.82 286.718 134.7C286.838 134.579 286.905 134.416 286.905 134.247C286.905 134.077 286.838 133.914 286.718 133.793C286.598 133.673 286.435 133.606 286.265 133.606Z" fill="#D1D3D4"/>
<path d="M290.915 135.345C291.522 135.345 292.014 134.853 292.014 134.246C292.014 133.64 291.522 133.148 290.915 133.148C290.309 133.148 289.817 133.64 289.817 134.246C289.817 134.853 290.309 135.345 290.915 135.345Z" fill="white"/>
<path d="M290.915 135.803C290.607 135.803 290.307 135.712 290.051 135.541C289.795 135.37 289.595 135.126 289.477 134.842C289.36 134.558 289.329 134.245 289.389 133.943C289.449 133.641 289.597 133.364 289.815 133.146C290.032 132.928 290.31 132.78 290.612 132.72C290.914 132.66 291.227 132.691 291.511 132.809C291.795 132.926 292.038 133.126 292.209 133.382C292.38 133.638 292.472 133.939 292.472 134.247C292.472 134.659 292.308 135.055 292.016 135.347C291.724 135.639 291.328 135.803 290.915 135.803ZM290.915 133.606C290.789 133.606 290.665 133.643 290.559 133.714C290.454 133.784 290.372 133.884 290.323 134.001C290.275 134.118 290.262 134.247 290.287 134.372C290.311 134.496 290.373 134.61 290.462 134.7C290.552 134.789 290.666 134.85 290.79 134.875C290.915 134.9 291.043 134.887 291.161 134.839C291.278 134.79 291.378 134.708 291.448 134.603C291.519 134.497 291.556 134.373 291.556 134.247C291.556 134.077 291.489 133.914 291.368 133.793C291.248 133.673 291.085 133.606 290.915 133.606Z" fill="#D1D3D4"/>
<path d="M295.566 135.345C296.173 135.345 296.665 134.853 296.665 134.246C296.665 133.64 296.173 133.148 295.566 133.148C294.959 133.148 294.467 133.64 294.467 134.246C294.467 134.853 294.959 135.345 295.566 135.345Z" fill="white"/>
<path d="M295.566 135.803C295.259 135.801 294.959 135.708 294.704 135.536C294.449 135.364 294.251 135.12 294.135 134.836C294.018 134.551 293.989 134.239 294.05 133.937C294.111 133.636 294.26 133.36 294.478 133.143C294.696 132.926 294.973 132.779 295.275 132.719C295.577 132.66 295.889 132.691 296.173 132.81C296.457 132.928 296.699 133.127 296.87 133.383C297.04 133.639 297.131 133.939 297.132 134.246C297.132 134.452 297.091 134.655 297.012 134.844C296.933 135.034 296.818 135.206 296.672 135.35C296.527 135.495 296.354 135.609 296.164 135.687C295.975 135.765 295.771 135.804 295.566 135.803ZM295.566 133.606C295.396 133.606 295.233 133.673 295.113 133.793C294.993 133.914 294.925 134.077 294.925 134.246C294.925 134.416 294.993 134.579 295.113 134.7C295.233 134.82 295.396 134.887 295.566 134.887C295.736 134.887 295.899 134.82 296.019 134.7C296.139 134.579 296.207 134.416 296.207 134.246C296.207 134.077 296.139 133.914 296.019 133.793C295.899 133.673 295.736 133.606 295.566 133.606Z" fill="#D1D3D4"/>
<path d="M49.3449 73.3297C49.6928 72.2952 50.0407 71.2699 50.4069 70.2354C50.59 69.7044 50.8006 69.1825 51.0203 68.6607C51.1356 68.3303 51.362 68.0502 51.6609 67.8682C51.9598 67.6862 52.3126 67.6136 52.659 67.6628C53.4921 67.7544 54.3161 67.9283 55.1491 68.0656C55.5893 68.1596 56.0363 68.2177 56.4858 68.2396C56.8159 68.243 57.1379 68.1367 57.4013 67.9375C58.3167 67.022 59.278 66.1065 60.1477 65.1178C60.299 64.9467 60.407 64.7419 60.4627 64.5205C60.5185 64.2991 60.5203 64.0675 60.4681 63.8452C60.2576 62.8382 60.0196 61.8312 59.809 60.8241C59.7139 60.435 59.6769 60.0339 59.6991 59.634C59.7248 59.3361 59.8661 59.06 60.0928 58.865C61.6262 57.8388 63.305 57.0488 65.0731 56.5213C65.3344 56.439 65.6156 56.4446 65.8735 56.5372C66.1314 56.6298 66.3519 56.8043 66.5012 57.034C67.1329 57.9037 67.8012 58.7551 68.4146 59.6523C68.6123 59.9873 68.902 60.2585 69.2493 60.4338C69.5965 60.6091 69.9868 60.681 70.3738 60.641C71.4815 60.5586 72.5892 60.5403 73.6878 60.4945C73.8907 60.4822 74.0875 60.4208 74.2613 60.3155C74.4351 60.2103 74.5808 60.0643 74.6857 59.8903C75.0794 59.3044 75.4547 58.7093 75.8392 58.1234C76.2237 57.5375 76.4984 57.1072 76.8463 56.622C76.9999 56.3699 77.2365 56.179 77.5154 56.0822C77.7943 55.9853 78.0983 55.9884 78.3751 56.091C79.904 56.622 81.4237 57.1622 82.9526 57.7389C83.2403 57.8526 83.4798 58.0625 83.63 58.333C83.7803 58.6034 83.8321 58.9176 83.7765 59.222C83.6941 60.0643 83.5019 60.9065 83.3737 61.7488C83.3096 62.1424 83.2455 62.5361 83.2181 62.9389C83.1862 63.1955 83.2152 63.456 83.3027 63.6993C83.3901 63.9427 83.5337 64.162 83.7216 64.3396C84.5272 65.0995 85.342 65.8502 86.1202 66.6375C86.3492 66.8824 86.641 67.0597 86.9639 67.1501C87.2868 67.2405 87.6283 67.2405 87.9512 67.1502L91.2195 66.4086C91.5837 66.2894 91.9803 66.3187 92.3231 66.4901C92.6659 66.6615 92.9272 66.9612 93.0504 67.3241C93.6608 68.6241 94.2711 69.9394 94.8814 71.2699C94.9921 71.4489 95.0653 71.6485 95.0967 71.8566C95.128 72.0647 95.1169 72.2771 95.0638 72.4807C95.0107 72.6844 94.9169 72.8752 94.788 73.0416C94.6591 73.208 94.4978 73.3465 94.3138 73.4487C93.7554 73.8882 93.1511 74.2727 92.5744 74.703C92.1624 75.0142 91.7504 75.3346 91.3659 75.6184C91.1998 75.7562 91.0672 75.9301 90.9784 76.1268C90.8895 76.3235 90.8467 76.5379 90.8533 76.7536C90.8533 77.898 90.8533 79.0424 90.954 80.1867C90.9653 80.4969 91.0552 80.7991 91.2154 81.0649C91.3755 81.3307 91.6006 81.5515 91.8695 81.7065L93.7004 82.8142C94.0883 83.0484 94.4642 83.302 94.8265 83.5741C95.0881 83.7459 95.2821 84.0031 95.3755 84.3018C95.469 84.6006 95.4561 84.9224 95.3392 85.2128C94.8356 86.5952 94.3138 87.9592 93.792 89.3416C93.702 89.5493 93.5884 89.7459 93.4533 89.9276C93.3291 90.1487 93.1385 90.3251 92.9085 90.4319C92.6784 90.5387 92.4206 90.5705 92.1716 90.5226L89.1962 90.0283H88.9765C88.5618 89.9184 88.1237 89.9356 87.7189 90.0776C87.3141 90.2197 86.9613 90.4799 86.7061 90.8247C86.1476 91.493 85.5068 92.0881 84.8751 92.7106C84.5925 92.9847 84.3909 93.3313 84.2923 93.7125C84.1938 94.0936 84.2022 94.4945 84.3167 94.8712C84.5638 95.8325 84.8019 96.7937 84.9941 97.7642C85.0718 97.9495 85.1095 98.1492 85.1047 98.3501C85.0999 98.5511 85.0528 98.7487 84.9664 98.9302C84.88 99.1116 84.7562 99.2728 84.6033 99.4032C84.4503 99.5336 84.2715 99.6302 84.0786 99.6867C82.7329 100.337 81.3322 100.941 79.9864 101.518C79.6805 101.694 79.318 101.743 78.9761 101.656C78.6341 101.569 78.3397 101.352 78.1554 101.051C77.6244 100.373 77.1392 99.6684 76.6357 98.9726C75.5737 97.4804 75.3082 97.343 73.4681 97.4346L71.3259 97.5627C70.9842 97.5658 70.6492 97.6577 70.3539 97.8295C70.0585 98.0012 69.813 98.2469 69.6414 98.5423C69.2019 99.2656 68.7899 99.9979 68.3322 100.703C68.0911 101.07 67.8152 101.414 67.5083 101.728C67.3725 101.888 67.1904 102.002 66.9872 102.055C66.7839 102.107 66.5694 102.096 66.3731 102.021L62.0336 100.401C61.8387 100.316 61.6544 100.208 61.4843 100.08C61.2608 99.9578 61.0814 99.7682 60.9713 99.5382C60.8613 99.3083 60.8262 99.0496 60.871 98.7987C61.0266 97.8191 61.2005 96.8395 61.347 95.8599C61.347 95.567 61.4203 95.2649 61.4386 94.9444C61.4649 94.7 61.4339 94.4528 61.3481 94.2224C61.2623 93.992 61.124 93.7847 60.9442 93.617C60.1569 92.8937 59.3787 92.1613 58.6005 91.429C58.3782 91.2133 58.102 91.0614 57.8009 90.9889C57.4998 90.9165 57.1847 90.9261 56.8886 91.017C55.9731 91.255 54.9569 91.4656 53.9865 91.6853H53.8766C52.6132 91.9142 52.2104 91.7494 51.6611 90.5867C51.1118 89.424 50.5076 88.0142 49.9766 86.7325C49.8842 86.5796 49.8242 86.4094 49.8005 86.2323C49.7768 86.0552 49.7898 85.8752 49.8387 85.7033C49.8877 85.5315 49.9716 85.3717 50.0851 85.2337C50.1986 85.0957 50.3393 84.9827 50.4985 84.9015C51.2675 84.3156 52.0548 83.748 52.8604 83.2262C53.2589 82.9984 53.5811 82.6578 53.7864 82.2472C53.9916 81.8367 54.0708 81.3746 54.0139 80.9191C53.9407 79.8938 53.9224 78.8593 53.8675 77.8339C53.8629 77.6182 53.8054 77.4068 53.7 77.2185C53.5947 77.0301 53.4447 76.8705 53.2632 76.7536C52.4027 76.2044 51.5421 75.6734 50.6907 75.1149C50.0854 74.8216 49.6048 74.3216 49.3358 73.7051L49.3449 73.3297ZM82.1012 79.079C82.0988 77.792 81.8419 76.5182 81.3452 75.3308C80.8486 74.1435 80.122 73.0662 79.2072 72.1608C78.2925 71.2555 77.2077 70.54 76.0154 70.0555C74.823 69.5711 73.5466 69.3273 72.2597 69.3382C69.7008 69.4135 67.2701 70.4748 65.4753 72.3003C63.6806 74.1258 62.6607 76.5742 62.6287 79.1339C62.6526 81.6978 63.6817 84.1499 65.4947 85.963C67.3077 87.776 69.7599 88.8051 72.3237 88.829C73.6098 88.8449 74.8861 88.6038 76.0778 88.1197C77.2694 87.6357 78.3524 86.9186 79.2631 86.0104C80.1739 85.1022 80.894 84.0213 81.3814 82.831C81.8688 81.6407 82.1135 80.3651 82.1012 79.079Z" fill="#231F20"/>
<path d="M66.7575 102.561C66.5756 102.564 66.395 102.529 66.2265 102.461L65.0639 102.03L61.8871 100.84C61.6863 100.759 61.4958 100.655 61.3195 100.529C60.9929 100.36 60.7284 100.091 60.5639 99.7624C60.3994 99.4335 60.3434 99.0608 60.404 98.698L60.6237 97.3889C60.7061 96.8487 60.7977 96.3086 60.8801 95.7593C60.9256 95.4775 60.9532 95.1932 60.9625 94.9079C60.9826 94.7394 60.9624 94.5685 60.9035 94.4093C60.8446 94.2501 60.7487 94.1072 60.6237 93.9924C59.9005 93.3332 59.1864 92.6649 58.4723 91.9875L58.2709 91.8044C58.1077 91.6409 57.9023 91.5261 57.6775 91.4728C57.4528 91.4194 57.2177 91.4296 56.9984 91.5023C56.3301 91.667 55.6526 91.8135 54.9843 91.9692L54.0139 92.2255C52.5125 92.5001 51.8991 92.2255 51.2674 90.8614C50.6357 89.4973 50.0041 87.9959 49.5555 86.8973C49.3351 86.4937 49.2826 86.0194 49.4094 85.5773C49.5362 85.1352 49.8321 84.7609 50.2329 84.5354C51.1484 83.8488 51.89 83.3086 52.6224 82.8326C52.94 82.6533 53.1968 82.3832 53.3599 82.057C53.523 81.7308 53.585 81.3633 53.5378 81.0016C53.5378 80.3607 53.4646 79.7199 53.4371 79.0791L53.3822 77.9072C53.3854 77.7664 53.3515 77.6271 53.284 77.5034C53.2166 77.3798 53.1178 77.2759 52.9977 77.2023L51.9266 76.5157L50.4252 75.6002C49.7283 75.2501 49.1795 74.6624 48.878 73.9432C48.8693 73.8916 48.8693 73.839 48.878 73.7875V73.4122C48.8693 73.3607 48.8693 73.3081 48.878 73.2565L49.1893 72.341C49.4365 71.6178 49.6836 70.8854 49.94 70.1622C50.1322 69.622 50.3428 69.0911 50.5625 68.5601C50.7198 68.1374 51.0149 67.7801 51.4003 67.5458C51.7857 67.3116 52.2388 67.2142 52.6864 67.2692C53.2449 67.3333 53.8033 67.434 54.3526 67.5347L55.204 67.6812L55.5336 67.7361C55.8347 67.8011 56.1412 67.8379 56.4491 67.846C56.6651 67.8511 56.8781 67.7939 57.0625 67.6812C58.0695 66.7657 59.0216 65.7221 59.809 64.8707C59.9157 64.7467 59.9873 64.5964 60.0163 64.4354C60.0453 64.2744 60.0306 64.1086 59.9737 63.9552C59.8822 63.5066 59.7723 63.0397 59.6716 62.6094C59.5709 62.1791 59.4245 61.4925 59.3146 60.934C59.2079 60.497 59.1677 60.0464 59.1956 59.5974C59.2134 59.3808 59.2763 59.1704 59.3804 58.9796C59.4845 58.7888 59.6273 58.6219 59.7998 58.4897C61.3999 57.4282 63.1537 56.6192 64.9998 56.0911C65.3524 55.9833 65.7304 55.9929 66.0771 56.1183C66.4238 56.2438 66.7204 56.4784 66.9223 56.7869L67.6089 57.7024C68.0301 58.27 68.4512 58.8284 68.8448 59.4143C68.9972 59.6827 69.2251 59.9005 69.5001 60.0405C69.7752 60.1804 70.0854 60.2365 70.392 60.2016C71.1061 60.1467 71.8293 60.1193 72.5434 60.0918L73.7153 60.046C73.8439 60.0386 73.9685 59.9985 74.0774 59.9297C74.1863 59.8608 74.2759 59.7654 74.3378 59.6524C74.5758 59.3136 74.7955 58.9657 75.0244 58.6179L75.6469 57.7024C75.9216 57.2721 76.2054 56.7869 76.5075 56.4207C76.7184 56.0854 77.0384 55.8331 77.4136 55.7064C77.7889 55.5796 78.1964 55.5862 78.5674 55.7249C80.3983 56.3566 81.8265 56.8693 83.1448 57.3728C83.5043 57.531 83.8034 57.8006 83.9979 58.1419C84.1925 58.4831 84.2721 58.8779 84.2251 59.2678C84.161 59.8538 84.0603 60.4214 83.9596 60.9798C83.9047 61.2636 83.8589 61.5474 83.8131 61.8312C83.7673 62.115 83.6849 62.6002 83.6575 62.9847C83.631 63.1725 83.6505 63.3639 83.7143 63.5425C83.778 63.7211 83.8842 63.8816 84.0237 64.0101L84.5913 64.5502C85.2138 65.127 85.8363 65.7129 86.4223 66.3171C86.5897 66.5012 86.8057 66.6341 87.0455 66.7005C87.2853 66.7669 87.5389 66.7641 87.7772 66.6925C88.3082 66.5826 88.8391 66.4544 89.361 66.3354L91.0455 65.9601C91.5086 65.8127 92.0104 65.8471 92.449 66.0562C92.8877 66.2654 93.2304 66.6336 93.4074 67.0861C94.03 68.3861 94.6342 69.7227 95.2384 71.0411C95.5067 71.4993 95.5832 72.045 95.4512 72.5594C95.3191 73.0737 94.9893 73.5151 94.5335 73.7875C94.1948 74.053 93.8469 74.3002 93.4898 74.5474L92.7849 75.0509C92.3729 75.353 91.9793 75.6643 91.6039 75.9664C91.4885 76.0573 91.3966 76.1746 91.3361 76.3084C91.2755 76.4423 91.2481 76.5887 91.256 76.7354V77.4586C91.256 78.3741 91.256 79.2896 91.3384 80.1502C91.3404 80.3836 91.4052 80.6122 91.526 80.812C91.6468 81.0117 91.8192 81.1753 92.0251 81.2854C92.2814 81.4502 92.5469 81.6058 92.8215 81.7614L93.9018 82.4023C94.268 82.6312 94.68 82.8875 95.0736 83.1896C95.4133 83.4251 95.6633 83.7686 95.783 84.1642C95.9026 84.5598 95.885 84.9842 95.7328 85.3685C95.2293 86.7417 94.7166 88.1149 94.1856 89.4973C94.0958 89.7184 93.9789 89.9275 93.8377 90.1199C93.6646 90.4402 93.3934 90.6967 93.0639 90.8516C92.7344 91.0064 92.3638 91.0516 92.0067 90.9804L89.0314 90.4861H88.7751C88.4412 90.3869 88.0847 90.3955 87.756 90.5105C87.4273 90.6256 87.1432 90.8413 86.9441 91.1269C86.5413 91.603 86.1018 92.0424 85.6716 92.4727L85.1314 93.0311C84.9085 93.2489 84.7497 93.5238 84.6722 93.8256C84.5947 94.1275 84.6015 94.4449 84.692 94.7431C84.9666 95.8234 85.1863 96.7297 85.3786 97.6635C85.4648 97.9019 85.5022 98.1552 85.4888 98.4083C85.4753 98.6615 85.4112 98.9093 85.3002 99.1373C85.1892 99.3652 85.0337 99.5685 84.8427 99.7352C84.6517 99.902 84.4293 100.029 84.1885 100.108C82.9525 100.703 81.6159 101.307 80.0871 101.939C79.7029 102.125 79.2657 102.171 78.8511 102.069C78.4365 101.967 78.0706 101.724 77.8166 101.38C77.3772 100.822 76.9744 100.245 76.5624 99.6776L76.2878 99.2839C75.3082 97.9107 75.1983 97.8558 73.5413 97.9473L72.3329 98.0114L71.4174 98.0663C71.1514 98.0657 70.8901 98.1357 70.66 98.2692C70.43 98.4027 70.2396 98.5949 70.1082 98.8262L69.6779 99.5494C69.385 100.035 69.1012 100.52 68.7625 100.996C68.492 101.39 68.1855 101.757 67.847 102.094C67.5596 102.388 67.168 102.556 66.7575 102.561ZM57.4287 90.4952C57.9934 90.4926 58.5362 90.713 58.9392 91.1086L59.1406 91.2917C59.8456 91.96 60.5597 92.6283 61.2829 93.2875C61.5153 93.5016 61.6942 93.7671 61.8055 94.0628C61.9168 94.3585 61.9573 94.6761 61.9237 94.9903C61.9146 95.2972 61.8841 95.6031 61.8322 95.9058C61.7498 96.4551 61.6582 97.0044 61.5667 97.5445L61.3378 98.872C61.3066 99.0331 61.3292 99.2001 61.4019 99.3472C61.4747 99.4944 61.5936 99.6137 61.7406 99.6867L61.823 99.7417C61.9414 99.8259 62.067 99.8994 62.1984 99.9614L65.366 101.142L66.5378 101.573C66.6471 101.62 66.7694 101.629 66.8844 101.597C66.9993 101.566 67.0999 101.495 67.1695 101.399C67.4494 101.114 67.7065 100.808 67.9385 100.483C68.2315 100.016 68.5153 99.5677 68.7991 99.0734L69.2385 98.3318C69.4485 97.9698 69.7485 97.6683 70.1094 97.4566C70.4704 97.2448 70.8799 97.13 71.2984 97.1234L72.2138 97.0684L73.4314 97.0044C75.4089 96.9037 75.8483 97.1142 77.0019 98.7438L77.2857 99.1283C77.6793 99.6867 78.0821 100.254 78.5033 100.785C78.5631 100.89 78.643 100.982 78.7386 101.056C78.8341 101.13 78.9433 101.184 79.0599 101.216C79.1765 101.247 79.2981 101.255 79.4178 101.24C79.5376 101.224 79.653 101.185 79.7575 101.124C81.2772 100.474 82.6047 99.879 83.8223 99.2931C84.5547 98.936 84.6645 98.7163 84.4997 97.8924C84.3349 97.0684 84.0969 96.0614 83.8223 95.0086C83.6904 94.5565 83.6829 94.0773 83.8005 93.6214C83.9181 93.1654 84.1565 92.7496 84.4906 92.4178L85.049 91.8501C85.461 91.429 85.8913 90.9987 86.2666 90.5502C86.5837 90.1444 87.0133 89.8411 87.5018 89.6783C87.9903 89.5155 88.516 89.5003 89.0131 89.6347H89.1046H89.2053L92.1807 90.1382C92.3405 90.1672 92.5054 90.1437 92.6506 90.071C92.7959 89.9984 92.9137 89.8806 92.9863 89.7354C93.1019 89.5819 93.2001 89.4161 93.2793 89.241C93.7981 87.88 94.3107 86.5067 94.8173 85.1213C94.8939 84.926 94.9012 84.7104 94.8379 84.5104C94.7746 84.3104 94.6445 84.1383 94.4694 84.0227C94.1124 83.7481 93.7187 83.5009 93.38 83.2903L92.3089 82.6586L91.549 82.1551C91.2128 81.9603 90.9315 81.6835 90.7314 81.3505C90.5313 81.0175 90.4188 80.6391 90.4046 80.2509C90.4046 79.3354 90.3497 78.4199 90.3314 77.5044V76.7812C90.3216 76.4966 90.3767 76.2136 90.4925 75.9534C90.6083 75.6933 90.7817 75.4629 90.9997 75.2798C91.4025 74.941 91.8145 74.6115 92.2356 74.3002C92.4736 74.1171 92.7208 73.9432 92.968 73.7784C93.2152 73.6136 93.6455 73.3023 93.9659 73.046C94.1082 72.9755 94.2337 72.8753 94.3338 72.7521C94.434 72.6289 94.5065 72.4856 94.5464 72.3319C94.5864 72.1782 94.5928 72.0178 94.5653 71.8614C94.5378 71.705 94.477 71.5564 94.387 71.4256C93.8194 70.1164 93.2152 68.7981 92.556 67.4981C92.5131 67.371 92.4449 67.2538 92.3557 67.1536C92.2664 67.0534 92.1578 66.9723 92.0365 66.915C91.9151 66.8577 91.7834 66.8256 91.6493 66.8203C91.5152 66.8151 91.3815 66.837 91.256 66.8847L89.5899 67.2692L87.9877 67.6263C87.5922 67.7296 87.1761 67.7246 86.783 67.6119C86.39 67.4991 86.0346 67.2828 85.7539 66.9854C85.168 66.3904 84.5547 65.8228 83.923 65.246L83.3828 64.7608C83.135 64.5302 82.9459 64.2437 82.8312 63.9252C82.7166 63.6067 82.6797 63.2654 82.7237 62.9298C82.7603 62.5148 82.8152 62.1028 82.8885 61.6939C82.8885 61.4101 82.9892 61.1171 83.0349 60.7784C83.1448 60.22 83.2364 59.689 83.2913 59.158C83.3257 58.9587 83.2932 58.7536 83.1988 58.5747C83.1044 58.3958 82.9534 58.2533 82.7695 58.1693C81.4603 57.6657 80.023 57.1531 78.192 56.5214C78.0117 56.4527 77.8128 56.4509 77.6314 56.5164C77.4499 56.5819 77.298 56.7104 77.2033 56.8784C76.9103 57.2812 76.6357 57.7024 76.361 58.1235L75.7385 59.039C75.5188 59.396 75.2899 59.7531 75.0519 60.1009C74.9062 60.3352 74.7061 60.5308 74.4686 60.671C74.2311 60.8113 73.9632 60.8921 73.6878 60.9066L72.5068 60.9523C71.8019 60.9523 71.0878 61.0073 70.3829 61.0622C69.9118 61.1102 69.4368 61.0228 69.0136 60.8104C68.5903 60.598 68.2365 60.2693 67.9934 59.8629C67.6089 59.2953 67.1878 58.7369 66.7758 58.1876L66.0892 57.2721C65.9945 57.1237 65.8533 57.0109 65.6877 56.9512C65.522 56.8916 65.3413 56.8885 65.1737 56.9425C63.453 57.4659 61.8228 58.2501 60.3399 59.2678C60.2415 59.3843 60.1808 59.528 60.166 59.6798C60.1526 60.0342 60.1896 60.3887 60.2759 60.7326C60.3857 61.2819 60.5139 61.8312 60.6329 62.3805C60.7519 62.9298 60.8435 63.296 60.935 63.7446C61.0219 64.0448 61.0305 64.3623 60.96 64.6667C60.8895 64.9712 60.7422 65.2526 60.5322 65.484C59.7266 66.3446 58.7653 67.315 57.74 68.322C57.387 68.6049 56.9471 68.7569 56.4949 68.7523C56.1225 68.7514 55.7512 68.7115 55.3871 68.6333L55.0667 68.5784L54.2062 68.4228C53.6752 68.3312 53.1442 68.2305 52.604 68.1756C52.3597 68.1399 52.1105 68.1921 51.901 68.3229C51.6915 68.4536 51.5351 68.6545 51.4597 68.8897C51.24 69.4023 51.0294 69.915 50.8463 70.446C50.59 71.1601 50.3519 71.8833 50.1048 72.6065L49.8118 73.4579V73.6685C50.0633 74.141 50.4573 74.5222 50.9379 74.7579L52.4484 75.6734L53.5287 76.36C53.7743 76.5141 53.9775 76.7272 54.1198 76.9798C54.2621 77.2324 54.339 77.5166 54.3435 77.8065L54.3984 78.9967C54.3984 79.6284 54.4533 80.26 54.4991 80.8917C54.5592 81.4342 54.4606 81.9824 54.2152 82.47C53.9698 82.9575 53.5882 83.3633 53.1167 83.6382C52.4026 84.0959 51.6611 84.6269 50.7822 85.2952C50.2329 85.7072 50.1688 85.9452 50.4069 86.5495C50.8555 87.6389 51.4414 89.0762 52.1005 90.4678C52.5491 91.3833 52.7322 91.5023 53.8125 91.3008L54.0139 91.7403L53.904 91.2825L54.8195 91.0811L56.7604 90.5685C56.9798 90.52 57.2039 90.4954 57.4287 90.4952ZM72.3237 89.2959C69.6236 89.2838 67.038 88.2033 65.1321 86.2906C63.2262 84.3778 62.155 81.7884 62.1526 79.0882C62.1509 77.7466 62.4172 76.4181 62.936 75.1808C63.4548 73.9436 64.2156 72.8224 65.1737 71.8833C67.039 69.9887 69.5653 68.8896 72.223 68.8164C73.5796 68.7969 74.9265 69.0481 76.185 69.5552C77.4434 70.0623 78.5881 70.8153 79.5522 71.7699C80.5162 72.7246 81.2803 73.8619 81.7997 75.1153C82.3191 76.3688 82.5834 77.7131 82.5772 79.0699C82.6105 80.3643 82.3847 81.6523 81.9131 82.8582C81.4414 84.064 80.7334 85.1634 79.8307 86.0917C78.8679 87.1144 77.704 87.9269 76.4121 88.4784C75.1202 89.0298 73.7283 89.3081 72.3237 89.2959ZM72.1955 69.7594C69.7782 69.8244 67.4806 70.8255 65.7871 72.5516C64.9177 73.4038 64.227 74.4209 63.7554 75.5432C63.2838 76.6656 63.0408 77.8708 63.0406 79.0882C63.0406 80.3064 63.2809 81.5127 63.7476 82.6379C64.2144 83.7632 64.8984 84.7853 65.7607 85.6459C66.6229 86.5064 67.6464 87.1885 68.7726 87.653C69.8988 88.1175 71.1055 88.3554 72.3237 88.353C73.5963 88.3639 74.8573 88.1117 76.0278 87.6123C77.1984 87.1129 78.2531 86.3771 79.1258 85.4509C79.9437 84.6134 80.5854 83.6204 81.0131 82.5308C81.4408 81.4411 81.6458 80.2767 81.6159 79.1065C81.6245 77.8755 81.3879 76.6551 80.9199 75.5165C80.452 74.3779 79.762 73.3439 78.8903 72.4747C78.0185 71.6055 76.9825 70.9186 75.8425 70.454C74.7025 69.9894 73.4814 69.7563 72.2505 69.7685L72.1955 69.7594Z" fill="#231F20"/>
</svg>
